<svg width="12" height="12" viewBox="0 0 12 12" fill="none" xmlns="http://www.w3.org/2000/svg">
<path fill-rule="evenodd" clip-rule="evenodd" d="M6.54996 5.75L11.35 0.950003C11.55 0.750003 11.55 0.35 11.35 0.15C11.15 -0.05 10.75 -0.05 10.55 0.15L5.74998 4.95L0.949988 0.15C0.749988 -0.05 0.35 -0.05 0.15 0.15C-0.05 0.35 -0.05 0.750003 0.15 0.950003L4.94999 5.75L0.15 10.55C-0.05 10.75 -0.05 11.15 0.15 11.35C0.25 11.45 0.349963 11.55 0.549963 11.55C0.649963 11.55 0.849988 11.45 0.949988 11.35L5.74998 6.55L10.55 11.35C10.65 11.45 10.85 11.55 10.95 11.55C11.05 11.55 11.25 11.45 11.35 11.35C11.55 11.15 11.55 10.75 11.35 10.55L6.54996 5.75Z" fill="white"/>
</svg>
