<svg width="19" height="19" viewBox="0 0 19 19" fill="none" xmlns="http://www.w3.org/2000/svg">
<path d="M16.2187 2.77837C12.5143 -0.926124 6.48662 -0.926124 2.78218 2.77837C1.48245 4.0781 0.593387 5.71097 0.211014 7.50051C-0.16124 9.243 -0.0393033 11.0483 0.563612 12.7212C0.636052 12.9221 0.85769 13.0263 1.05851 12.9539C1.25946 12.8814 1.36361 12.6599 1.29117 12.459C0.737236 10.9219 0.625224 9.26324 0.967317 7.66202C1.31837 6.01884 2.13506 4.51912 3.32903 3.32515C6.73197 -0.0777893 12.2689 -0.0777893 15.6719 3.32515C17.2924 4.94577 18.1996 7.09996 18.2262 9.39104C18.2528 11.6779 17.4006 13.8493 15.8265 15.5051C15.8079 15.5247 15.7895 15.5444 15.7711 15.5642C15.7384 15.599 15.7059 15.634 15.6719 15.668C12.2689 19.0709 6.73197 19.0709 3.32903 15.668C3.31092 15.6499 3.29326 15.6315 3.2758 15.613C3.27489 15.5773 3.27412 15.5421 3.27412 15.5075C3.27412 15.4296 3.2756 15.3521 3.27844 15.2748C3.2794 15.249 3.28134 15.2234 3.28263 15.1976C3.28514 15.1462 3.28752 15.0949 3.29126 15.0437C3.29352 15.0133 3.29681 14.9831 3.29951 14.9527C3.30357 14.9067 3.30737 14.8606 3.3124 14.8148C3.31595 14.7824 3.32059 14.7503 3.32465 14.7181C3.33013 14.6746 3.33535 14.631 3.34179 14.5876C3.34669 14.5546 3.35249 14.522 3.3579 14.4892C3.3648 14.447 3.3715 14.4047 3.3793 14.3628C3.38542 14.3296 3.39245 14.2967 3.39915 14.2637C3.40746 14.2225 3.41565 14.1813 3.4248 14.1404C3.43221 14.1072 3.44046 14.0742 3.44839 14.0412C3.45806 14.0009 3.46766 13.9606 3.4781 13.9207C3.4868 13.8875 3.49621 13.8547 3.50536 13.8217C3.51638 13.7823 3.52734 13.7428 3.53913 13.7036C3.54899 13.6707 3.55956 13.6381 3.57 13.6055C3.58238 13.5668 3.59475 13.528 3.60783 13.4896C3.61892 13.4572 3.63052 13.4249 3.64212 13.3927C3.65585 13.3546 3.66964 13.3164 3.68408 13.2785C3.69632 13.2465 3.70902 13.2148 3.72178 13.183C3.73679 13.1455 3.75194 13.1081 3.76767 13.071C3.78107 13.0394 3.79486 13.0081 3.80878 12.9768C3.82509 12.94 3.84159 12.9033 3.8586 12.8669C3.8731 12.8359 3.88793 12.8051 3.90294 12.7743C3.9206 12.7382 3.93845 12.7021 3.95676 12.6663C3.97229 12.636 3.98808 12.6059 4.00413 12.5758C4.02307 12.5402 4.04235 12.5048 4.062 12.4695C4.07856 12.4399 4.09532 12.4104 4.11234 12.3811C4.13257 12.3462 4.15313 12.3115 4.17408 12.277C4.19167 12.248 4.20946 12.2191 4.22751 12.1904C4.24903 12.1562 4.27088 12.1222 4.29305 12.0885C4.31161 12.0602 4.3303 12.0321 4.34931 12.0041C4.37206 11.9706 4.39533 11.9375 4.41879 11.9044C4.43832 11.8769 4.45784 11.8494 4.47782 11.8223C4.50186 11.7896 4.52642 11.7571 4.5511 11.7249C4.57153 11.6982 4.5919 11.6715 4.61278 11.6452C4.63811 11.6132 4.66401 11.5815 4.68999 11.55C4.71119 11.5242 4.73239 11.4984 4.75405 11.473C4.78073 11.4417 4.80799 11.4108 4.83532 11.38C4.85736 11.3551 4.87927 11.3302 4.9017 11.3057C4.92967 11.2751 4.95822 11.2452 4.98684 11.2152C5.00965 11.1912 5.03234 11.1672 5.05554 11.1435C5.08486 11.1137 5.11483 11.0846 5.14474 11.0554C5.16819 11.0325 5.19146 11.0093 5.21531 10.9868C5.24611 10.9577 5.27763 10.9292 5.30901 10.9007C5.33299 10.879 5.35664 10.857 5.38094 10.8357C5.41336 10.8071 5.44661 10.7794 5.47967 10.7515C5.50391 10.7311 5.52788 10.7103 5.55244 10.6902C5.58666 10.6622 5.62172 10.6351 5.65665 10.6078C5.68101 10.5887 5.70499 10.5693 5.7296 10.5506C5.7664 10.5227 5.80398 10.4957 5.84149 10.4687C5.86514 10.4515 5.88834 10.434 5.91232 10.4172C5.95369 10.3881 5.99603 10.3601 6.03825 10.3319C6.05907 10.3181 6.07943 10.3037 6.10038 10.29C6.15542 10.2543 6.21142 10.2197 6.26781 10.1855C6.27658 10.1802 6.28509 10.1745 6.29391 10.1693C6.35914 10.1302 6.42526 10.0923 6.49216 10.0554C6.51504 10.0429 6.53856 10.0311 6.5617 10.0188C6.6061 9.99505 6.65038 9.97114 6.69556 9.94845C6.72449 9.93389 6.75414 9.92022 6.78334 9.90611C6.8202 9.88826 6.85694 9.87021 6.89425 9.85301C7.59513 10.5225 8.53008 10.9015 9.50055 10.9015C10.471 10.9015 11.406 10.5224 12.1069 9.85288C13.4751 10.4861 14.5949 11.6222 15.2028 13.0039C15.2888 13.1993 15.5169 13.2882 15.7125 13.2021C15.9079 13.1161 15.9967 12.8879 15.9107 12.6925C15.2457 11.1812 14.088 9.97346 12.6226 9.24442C13.0478 8.62075 13.2778 7.8843 13.2778 7.12432C13.2778 5.04154 11.5833 3.34706 9.50055 3.34706C9.28703 3.34706 9.11386 3.52024 9.11386 3.73376C9.11386 3.94727 9.28703 4.12045 9.50055 4.12045C11.1569 4.12045 12.5044 5.468 12.5044 7.12432C12.5044 7.86496 12.2292 8.57815 11.7294 9.13234C11.7294 9.13241 11.7293 9.13247 11.7292 9.13254C11.1586 9.76529 10.3463 10.1282 9.50048 10.1282C8.65466 10.1282 7.84229 9.76529 7.27173 9.13254C7.27166 9.13241 7.27153 9.13234 7.2714 9.13228C6.77174 8.57789 6.49654 7.8649 6.49654 7.12439C6.49654 6.31595 6.81305 5.55752 7.3878 4.98895C7.53964 4.83872 7.54093 4.59388 7.3907 4.44211C7.24053 4.2902 6.99569 4.28904 6.84385 4.43914C6.12119 5.15388 5.72316 6.10752 5.72316 7.12413C5.72316 7.88333 5.9526 8.61927 6.37705 9.24261C6.37325 9.24448 6.36958 9.24654 6.36584 9.24848C6.33568 9.26356 6.30622 9.27954 6.27632 9.29495C6.2305 9.31866 6.18455 9.34225 6.13937 9.36693C6.1074 9.38434 6.07614 9.40264 6.0445 9.42049C6.00229 9.4444 5.96001 9.46818 5.91837 9.49287C5.88609 9.51207 5.85431 9.53192 5.82235 9.55158C5.78239 9.5762 5.74243 9.60075 5.70305 9.62608C5.67089 9.64677 5.63931 9.66804 5.60754 9.68918C5.56932 9.71463 5.53117 9.74022 5.49353 9.76639C5.46189 9.78843 5.43063 9.81092 5.39937 9.83341C5.36264 9.8599 5.32603 9.88652 5.28987 9.91365C5.25887 9.93692 5.22826 9.9605 5.19771 9.98422C5.16227 10.0117 5.12708 10.0395 5.09227 10.0676C5.06211 10.092 5.03221 10.1167 5.00243 10.1415C4.96821 10.1701 4.93425 10.199 4.9006 10.2283C4.87141 10.2536 4.84241 10.2791 4.81366 10.305C4.78047 10.3348 4.74773 10.365 4.71519 10.3954C4.68709 10.4216 4.65905 10.4479 4.63134 10.4747C4.59918 10.5057 4.56753 10.5373 4.53595 10.5689C4.50902 10.5959 4.48208 10.6228 4.45565 10.6502C4.4244 10.6826 4.39372 10.7156 4.3631 10.7486C4.33752 10.7762 4.31174 10.8037 4.2866 10.8317C4.25599 10.8657 4.22622 10.9005 4.19631 10.9351C4.17227 10.9629 4.14804 10.9905 4.12445 11.0187C4.0941 11.055 4.06471 11.092 4.03513 11.1288C4.01315 11.1563 3.99072 11.1833 3.96913 11.2111C3.93807 11.2511 3.90803 11.2918 3.87787 11.3324C3.85892 11.3579 3.83946 11.383 3.8209 11.4088C3.78275 11.4616 3.74582 11.5153 3.70921 11.5691C3.69961 11.5833 3.68943 11.5971 3.67989 11.6114C3.63432 11.6794 3.59005 11.7482 3.54693 11.8178C3.53204 11.8419 3.51806 11.8664 3.50349 11.8906C3.47559 11.9369 3.44755 11.9832 3.42068 12.0302C3.40392 12.0595 3.38806 12.0894 3.37176 12.1189C3.34824 12.1615 3.32458 12.2039 3.30203 12.2469C3.28527 12.2788 3.26941 12.3111 3.25311 12.3433C3.2321 12.3848 3.21102 12.4262 3.19085 12.4682C3.1748 12.5016 3.15953 12.5353 3.144 12.5689C3.12492 12.6104 3.10578 12.6517 3.08748 12.6936C3.0724 12.728 3.05796 12.7629 3.04346 12.7976C3.02599 12.8393 3.00866 12.881 2.99203 12.923C2.97804 12.9583 2.96464 12.9938 2.95123 13.0293C2.93538 13.0715 2.91972 13.1137 2.90464 13.1562C2.89188 13.1922 2.8795 13.2284 2.86726 13.2647C2.85288 13.3073 2.8389 13.35 2.82537 13.393C2.81383 13.4296 2.80268 13.4662 2.79172 13.503C2.77883 13.5464 2.76639 13.5899 2.75434 13.6335C2.74416 13.6704 2.73417 13.7073 2.72457 13.7445C2.71316 13.7886 2.70233 13.833 2.69176 13.8774C2.68293 13.9145 2.67417 13.9516 2.66598 13.9889C2.65606 14.0339 2.64684 14.0792 2.63782 14.1246C2.63041 14.1617 2.62287 14.1988 2.61604 14.2361C2.60759 14.2824 2.59999 14.3289 2.59245 14.3755C2.58652 14.4123 2.58027 14.449 2.57492 14.4858C2.56789 14.5339 2.56196 14.5822 2.55591 14.6306C2.55146 14.6664 2.54656 14.7022 2.54263 14.7381C2.53709 14.7888 2.53283 14.8398 2.52839 14.8907C2.52542 14.9247 2.52188 14.9585 2.51943 14.9927C2.5153 15.0496 2.5126 15.1068 2.50983 15.164C2.50847 15.1924 2.50635 15.2207 2.50531 15.2491C2.50222 15.335 2.50048 15.4212 2.50048 15.5076C2.50048 15.601 2.50364 15.6893 2.50744 15.7868C2.50834 15.8094 2.5115 15.8313 2.51601 15.8527C2.5164 15.8544 2.51659 15.8561 2.51698 15.8577C2.52175 15.8788 2.52845 15.899 2.53651 15.9186C2.53728 15.9206 2.53799 15.9225 2.53883 15.9244C2.54714 15.9438 2.55707 15.9622 2.56828 15.9797C2.5697 15.9819 2.57105 15.9841 2.57247 15.9862C2.58401 16.0034 2.59683 16.0196 2.61082 16.0347C2.61185 16.0358 2.61256 16.0372 2.61359 16.0382L2.66463 16.0926C2.70317 16.1338 2.74171 16.1749 2.78193 16.2151C4.63417 18.0673 7.06717 18.9935 9.50022 18.9935C11.9333 18.9935 14.3663 18.0673 16.2185 16.2151C16.2587 16.1749 16.2973 16.1338 16.3358 16.0926L16.3869 16.0382C18.1005 14.2356 19.0283 11.8719 18.9993 9.38234C18.9705 6.88786 17.9829 4.54258 16.2187 2.77837Z" fill="#308589"/>
</svg>
