<svg width="17" height="17" viewBox="0 0 17 17" fill="none" xmlns="http://www.w3.org/2000/svg">
<path d="M6.83503 3.69072C6.83503 3.13151 6.61164 2.57227 6.16483 2.1249L4.60098 0.559212C4.26587 0.223685 3.70736 0 3.26054 0C2.81373 0 2.25522 0.223685 1.92011 0.559212L0.914794 1.56569C0.244577 2.23674 -0.0905353 3.01975 0.0211676 3.91449C0.244573 6.59871 2.92544 10.1776 4.71268 11.9671L5.15949 12.4145C6.83503 14.0921 10.2978 16.7763 12.9787 17C13.0904 17 13.2021 17 13.3138 17C14.0957 17 14.8777 16.6644 15.4362 16.1052L16.4415 15.0987C16.7766 14.7632 17 14.2039 17 13.7565C17 13.3092 16.7766 12.75 16.4415 12.4145L14.7659 10.7368C14.4308 10.4013 13.8723 10.1776 13.4255 10.1776C12.9787 10.1776 12.4202 10.4013 12.0851 10.7368L11.1915 11.6315C10.968 11.6315 9.85102 11.0723 8.06377 9.28284L7.72866 8.9474C5.82971 7.04608 5.4946 6.15123 5.4946 6.03938L6.27652 5.25654C6.61163 4.92101 6.83503 4.36177 6.83503 3.69072ZM5.718 4.69733L4.93609 5.48017C4.15417 6.26307 5.71801 8.05263 7.17014 9.61842L7.50526 9.95387C9.1808 11.6315 10.4095 12.5263 11.1915 12.5263C11.5266 12.5263 11.6383 12.4145 11.75 12.3027L12.7553 11.2961C12.9787 11.0724 13.3138 10.9605 13.5372 10.9605C13.7606 10.9605 14.0957 11.0724 14.3191 11.2961L15.9947 12.9737C16.2181 13.1974 16.3298 13.5329 16.3298 13.7565C16.3298 14.0921 16.2181 14.3158 15.9947 14.5395L14.9894 15.546C14.5426 15.9934 13.8723 16.2172 13.2021 16.2172C10.7446 15.9935 7.39355 13.4211 5.82971 11.8553L5.38291 11.4079C3.81907 9.84208 1.24989 6.37502 1.02649 3.91449C0.914784 3.24343 1.2499 2.68422 1.69671 2.23685L2.70203 1.23024C2.92544 1.00655 3.26054 0.894658 3.48395 0.894658C3.70735 0.894658 4.04247 1.00655 4.26588 1.23024L5.82971 2.79606C6.05312 3.01975 6.27652 3.35519 6.27652 3.69072C6.27652 4.02625 5.94141 4.47364 5.718 4.69733Z" fill="#308589"/>
</svg>
