<svg width="56" height="54" viewBox="0 0 56 54" fill="none" xmlns="http://www.w3.org/2000/svg">
<path d="M46.6038 7.60714C46.6554 7.32705 46.6812 7.18701 46.707 7.0597C46.8232 6.46133 47.2103 6.11758 47.7523 6.13032C48.2944 6.13032 48.6815 6.49952 48.7718 7.08516C48.888 7.88723 48.9267 8.6893 49.1074 9.47863C49.8172 12.5851 51.7916 14.5075 54.9275 15.2714C55.6631 15.4496 56.0245 15.7679 55.9987 16.3153C55.9599 16.9773 55.5212 17.2192 54.9017 17.3593C51.469 18.0977 49.3268 20.6185 48.9138 24.3487C48.8751 24.7052 48.8235 25.0617 48.7847 25.4182C48.6944 26.1056 48.3202 26.4876 47.7394 26.4876C47.1845 26.4876 46.8232 26.1311 46.707 25.4691C46.6941 25.3672 46.6683 25.2654 46.5264 25.1381C46.4618 25.3418 46.3973 25.5455 46.3328 25.7492C45.3778 29.1611 44.0486 32.4331 42.087 35.3867C38.9898 40.0336 37.1831 45.1516 35.9959 50.5369C35.9184 50.8934 35.841 51.2371 35.7249 51.5809C35.2216 53.1086 33.7246 54.0889 32.0986 53.9743C30.5371 53.8725 29.1691 52.7521 28.911 51.1989C28.3561 47.8761 27.8786 44.5405 27.3624 41.2049C27.0914 39.4225 26.8333 37.6402 26.5623 35.8578C26.3429 34.4828 25.2976 33.5789 23.9555 33.6044C22.665 33.6298 21.6455 34.5465 21.439 35.896C20.6905 40.823 19.9549 45.75 19.2064 50.677C18.9225 52.5994 17.6191 53.8852 15.864 53.9743C14.0315 54.0635 12.612 52.9558 12.1345 51.0462C11.9409 50.2823 11.7344 49.5311 11.5538 48.7673C10.4827 43.8912 8.45657 39.4225 5.79813 35.183C1.96534 29.0975 0.236071 22.3754 0.261881 15.2077C0.274786 13.0816 0.223166 10.9809 0.907132 8.91846C3.52685 1.03782 12.9862 -2.45055 20.1614 1.87808C22.7166 3.41856 25.246 3.45675 27.8141 1.91627C34.2795 -1.97949 42.6936 0.312135 46.2554 6.94512C46.3328 7.12335 46.436 7.30159 46.6038 7.60714ZM14.38 2.05632C7.88875 2.03085 3.01065 6.11758 2.46864 11.5029C2.21054 14.0364 2.30087 16.6336 2.52026 19.1798C3.02356 24.9853 4.99802 30.3197 8.18556 35.2212C9.72126 37.5892 11.0376 40.0718 11.9022 42.7454C12.741 45.368 13.4121 48.0416 14.1606 50.6897C14.3929 51.5299 14.9478 51.9883 15.7092 51.9501C16.4577 51.9119 16.9997 51.3899 17.1287 50.5496C17.6578 47.074 18.174 43.5856 18.7032 40.11C18.9613 38.4168 19.1677 36.698 19.5162 35.0303C19.9549 32.9169 21.9939 31.491 24.2394 31.5801C26.4849 31.6692 28.2529 33.3243 28.6142 35.6923C29.3627 40.6193 30.0983 45.5463 30.8468 50.4733C30.9758 51.3644 31.492 51.9119 32.2663 51.9501C33.0277 51.9883 33.5955 51.5299 33.8278 50.6388C34.3182 48.78 34.7828 46.8958 35.299 45.037C36.4088 41.0521 38.3575 37.4619 40.5384 33.9608C43.0291 29.9632 44.5261 25.5837 45.2488 20.9368C45.2875 20.7076 45.1842 20.3893 45.0423 20.1856C43.9067 18.6451 42.3839 17.6776 40.4868 17.3084C39.9061 17.1938 39.5448 16.9137 39.4931 16.3153C39.4544 15.7806 39.8029 15.4114 40.4739 15.2459C40.603 15.2204 40.7191 15.1822 40.8482 15.1568C42.4484 14.7876 43.726 13.9091 44.8229 12.7124C45.5198 11.9485 45.623 11.1974 45.3391 10.217C43.3259 2.9857 35.1312 -0.171652 28.6529 3.73684C25.5557 5.60833 22.3682 5.57014 19.271 3.69865C17.4514 2.62922 15.5156 2.06905 14.38 2.05632ZM47.7394 11.9612C46.7845 13.8709 45.4553 15.2586 43.6356 16.3153C45.4811 17.3593 46.7845 18.7724 47.7523 20.6567C48.6815 18.747 50.0236 17.3593 51.8432 16.3153C50.0107 15.2586 48.6944 13.8709 47.7394 11.9612Z" fill="url(#paint0_linear)"/>
<defs>
<linearGradient id="paint0_linear" x1="9.5" y1="54.0001" x2="53" y2="-13.4999" gradientUnits="userSpaceOnUse">
<stop stop-color="#3BA0A5" stop-opacity="0.65"/>
<stop offset="1" stop-color="#0AA61B" stop-opacity="0.65"/>
</linearGradient>
</defs>
</svg>
