<svg width="8" height="21" viewBox="0 0 8 21" fill="none" xmlns="http://www.w3.org/2000/svg">
<path d="M1.38522 0.621977C2.03047 0.609246 2.43053 1.04211 2.43053 1.79325C2.45634 4.41589 2.79187 6.9876 3.45002 9.52112C4.26304 12.6403 5.51483 15.5685 7.2312 18.3184C7.34734 18.4967 7.46348 18.6749 7.56672 18.8659C7.86354 19.4133 7.74739 19.948 7.26991 20.2663C6.79242 20.5846 6.14717 20.4573 5.81164 19.9226C5.1793 18.8913 4.54695 17.8474 4.00494 16.7779C1.63042 12.0928 0.43025 7.12765 0.37863 1.8951C0.365725 1.0803 0.727066 0.634709 1.38522 0.621977Z" fill="url(#paint0_linear)"/>
<defs>
<linearGradient id="paint0_linear" x1="-6.5" y1="39.5001" x2="51" y2="-30.9999" gradientUnits="userSpaceOnUse">
<stop stop-color="#3BA0A5" stop-opacity="0.65"/>
<stop offset="1" stop-color="#0AA61B" stop-opacity="0.65"/>
</linearGradient>
</defs>
</svg>
