<svg width="17" height="21" viewBox="0 0 17 21" fill="none" xmlns="http://www.w3.org/2000/svg">
<path d="M16.5082 10.8021C16.4437 11.4132 16.0824 11.706 15.4887 11.846C12.3141 12.5717 10.3396 14.5069 9.61696 17.6388C9.43629 18.4026 9.39758 19.192 9.29434 19.9686C9.204 20.6179 8.82976 20.9871 8.27484 20.9998C7.69411 21.0125 7.31987 20.6306 7.21663 19.9431C7.07467 19.001 7.02305 18.0334 6.76495 17.1295C5.93903 14.3032 4.01618 12.559 1.12546 11.8715C0.338253 11.6805 -0.0359929 11.3623 0.00272215 10.7893C0.0543422 10.1273 0.493113 9.89816 1.11255 9.75811C4.55819 9.0197 6.71333 6.46072 7.08758 2.705C7.12629 2.32306 7.16501 1.94113 7.22953 1.57192C7.31987 0.986284 7.73283 0.629811 8.26194 0.642542C8.80395 0.655273 9.204 1.01175 9.28143 1.59739C9.39758 2.37399 9.42339 3.16333 9.60406 3.9272C10.3138 7.08455 12.2883 9.0579 15.4887 9.78358C16.0824 9.89816 16.4437 10.1782 16.5082 10.8021ZM8.18451 6.5753C7.29406 8.38314 5.93903 9.75812 4.15814 10.8148C6.02937 11.846 7.30696 13.2847 8.27484 15.1307C9.204 13.2083 10.559 11.8333 12.2367 10.853C11.4495 10.191 10.6494 9.64353 9.99121 8.94331C9.32015 8.25583 8.80395 7.41556 8.18451 6.5753Z" fill="url(#paint0_linear)"/>
<defs>
<linearGradient id="paint0_linear" x1="3.47645e-07" y1="21.0001" x2="25" y2="-7.49988" gradientUnits="userSpaceOnUse">
<stop stop-color="#3BA0A5" stop-opacity="0.65"/>
<stop offset="1" stop-color="#0AA61B" stop-opacity="0.65"/>
</linearGradient>
</defs>
</svg>
