<svg width="31" height="32" viewBox="0 0 31 32" fill="none" xmlns="http://www.w3.org/2000/svg">
<mask id="path-1-outside-1" maskUnits="userSpaceOnUse" x="0" y="0" width="31" height="32" fill="black">
<rect fill="white" width="31" height="32"/>
<path d="M29.239 24.2631L23.3693 20.1926C22.6244 19.6802 21.626 19.8488 21.0753 20.58L19.3655 22.866C19.1457 23.1673 18.7463 23.2547 18.4284 23.0711L18.1032 22.8847C17.025 22.2735 15.6835 21.5127 12.9806 18.701C10.2778 15.8894 9.54465 14.4933 8.95698 13.3742L8.77865 13.036C8.59963 12.7055 8.68209 12.2884 8.97193 12.058L11.1688 10.2806C11.8717 9.70789 12.0341 8.66988 11.5419 7.89506L7.62748 1.79126C7.12306 1.00224 6.11104 0.765382 5.33014 1.25353L2.87564 2.78675C2.10442 3.25823 1.53861 4.02181 1.29685 4.91748C0.412989 8.26636 1.07791 14.046 9.26534 22.561C15.7783 29.3331 20.6268 31.1543 23.9594 31.1543C24.7264 31.1578 25.4904 31.054 26.2308 30.8458C27.0923 30.5947 27.8267 30.0063 28.2798 29.204L29.7557 26.6532C30.2258 25.841 29.9981 24.7879 29.239 24.2631ZM28.923 26.1375L27.4505 28.6899C27.1251 29.2689 26.5969 29.6947 25.9765 29.8779C23.0035 30.7267 17.8094 30.0237 9.94912 21.8499C2.08885 13.6762 1.41283 8.27543 2.22907 5.18337C2.40554 4.53746 2.81544 3.98748 3.37293 3.64862L5.82743 2.1174C6.16626 1.90539 6.6055 2.00816 6.82438 2.35055L10.7355 8.45381C10.9492 8.7899 10.879 9.24036 10.5741 9.48905L8.37667 11.2665C7.70796 11.7982 7.51699 12.7603 7.92871 13.5239L8.10319 13.8536C8.72082 15.0315 9.4887 16.4969 12.2921 19.4116C15.0955 22.3263 16.5042 23.1249 17.6365 23.7671L17.954 23.949C18.6882 24.3771 19.6135 24.1785 20.1248 23.4832L21.8341 21.1981C22.0733 20.8812 22.5063 20.8083 22.8296 21.0303L28.6988 25.1008C29.0283 25.3283 29.1271 25.7853 28.923 26.1375Z"/>
<path d="M17.4324 6.02758C21.9675 6.03282 25.6427 9.85466 25.6478 14.5707C25.6478 14.8482 25.8642 15.0732 26.1311 15.0732C26.398 15.0732 26.6143 14.8482 26.6143 14.5707C26.6087 9.29979 22.5011 5.02832 17.4324 5.02255C17.1654 5.02255 16.9491 5.24752 16.9491 5.52507C16.9491 5.80262 17.1654 6.02758 17.4324 6.02758Z"/>
<path d="M17.4324 9.04284C20.3668 9.04643 22.7448 11.5193 22.7483 14.5707C22.7483 14.8483 22.9646 15.0733 23.2315 15.0733C23.4984 15.0733 23.7147 14.8483 23.7147 14.5707C23.7107 10.9644 20.9003 8.04193 17.4324 8.03781C17.1654 8.03781 16.9491 8.26277 16.9491 8.54033C16.9491 8.81788 17.1654 9.04284 17.4324 9.04284Z"/>
<path d="M17.4324 12.0581C18.7662 12.0597 19.847 13.1837 19.8487 14.5708C19.8487 14.8483 20.0651 15.0733 20.3319 15.0733C20.5988 15.0733 20.8152 14.8483 20.8152 14.5708C20.813 12.6289 19.2997 11.0552 17.4324 11.0531C17.1654 11.0531 16.9491 11.278 16.9491 11.5556C16.9491 11.8331 17.1654 12.0581 17.4324 12.0581Z"/>
</mask>
<path d="M29.239 24.2631L23.3693 20.1926C22.6244 19.6802 21.626 19.8488 21.0753 20.58L19.3655 22.866C19.1457 23.1673 18.7463 23.2547 18.4284 23.0711L18.1032 22.8847C17.025 22.2735 15.6835 21.5127 12.9806 18.701C10.2778 15.8894 9.54465 14.4933 8.95698 13.3742L8.77865 13.036C8.59963 12.7055 8.68209 12.2884 8.97193 12.058L11.1688 10.2806C11.8717 9.70789 12.0341 8.66988 11.5419 7.89506L7.62748 1.79126C7.12306 1.00224 6.11104 0.765382 5.33014 1.25353L2.87564 2.78675C2.10442 3.25823 1.53861 4.02181 1.29685 4.91748C0.412989 8.26636 1.07791 14.046 9.26534 22.561C15.7783 29.3331 20.6268 31.1543 23.9594 31.1543C24.7264 31.1578 25.4904 31.054 26.2308 30.8458C27.0923 30.5947 27.8267 30.0063 28.2798 29.204L29.7557 26.6532C30.2258 25.841 29.9981 24.7879 29.239 24.2631ZM28.923 26.1375L27.4505 28.6899C27.1251 29.2689 26.5969 29.6947 25.9765 29.8779C23.0035 30.7267 17.8094 30.0237 9.94912 21.8499C2.08885 13.6762 1.41283 8.27543 2.22907 5.18337C2.40554 4.53746 2.81544 3.98748 3.37293 3.64862L5.82743 2.1174C6.16626 1.90539 6.6055 2.00816 6.82438 2.35055L10.7355 8.45381C10.9492 8.7899 10.879 9.24036 10.5741 9.48905L8.37667 11.2665C7.70796 11.7982 7.51699 12.7603 7.92871 13.5239L8.10319 13.8536C8.72082 15.0315 9.4887 16.4969 12.2921 19.4116C15.0955 22.3263 16.5042 23.1249 17.6365 23.7671L17.954 23.949C18.6882 24.3771 19.6135 24.1785 20.1248 23.4832L21.8341 21.1981C22.0733 20.8812 22.5063 20.8083 22.8296 21.0303L28.6988 25.1008C29.0283 25.3283 29.1271 25.7853 28.923 26.1375Z" fill="white"/>
<path d="M17.4324 6.02758C21.9675 6.03282 25.6427 9.85466 25.6478 14.5707C25.6478 14.8482 25.8642 15.0732 26.1311 15.0732C26.398 15.0732 26.6143 14.8482 26.6143 14.5707C26.6087 9.29979 22.5011 5.02832 17.4324 5.02255C17.1654 5.02255 16.9491 5.24752 16.9491 5.52507C16.9491 5.80262 17.1654 6.02758 17.4324 6.02758Z" fill="white"/>
<path d="M17.4324 9.04284C20.3668 9.04643 22.7448 11.5193 22.7483 14.5707C22.7483 14.8483 22.9646 15.0733 23.2315 15.0733C23.4984 15.0733 23.7147 14.8483 23.7147 14.5707C23.7107 10.9644 20.9003 8.04193 17.4324 8.03781C17.1654 8.03781 16.9491 8.26277 16.9491 8.54033C16.9491 8.81788 17.1654 9.04284 17.4324 9.04284Z" fill="white"/>
<path d="M17.4324 12.0581C18.7662 12.0597 19.847 13.1837 19.8487 14.5708C19.8487 14.8483 20.0651 15.0733 20.3319 15.0733C20.5988 15.0733 20.8152 14.8483 20.8152 14.5708C20.813 12.6289 19.2997 11.0552 17.4324 11.0531C17.1654 11.0531 16.9491 11.278 16.9491 11.5556C16.9491 11.8331 17.1654 12.0581 17.4324 12.0581Z" fill="white"/>
<path d="M29.239 24.2631L29.0966 24.4685L29.0969 24.4687L29.239 24.2631ZM23.3693 20.1926L23.5118 19.9871L23.511 19.9866L23.3693 20.1926ZM21.0753 20.58L20.8756 20.4296L20.8751 20.4303L21.0753 20.58ZM19.3655 22.866L19.1653 22.7163L19.1635 22.7187L19.3655 22.866ZM18.4284 23.0711L18.5535 22.8546L18.5528 22.8542L18.4284 23.0711ZM18.1032 22.8847L18.2275 22.6678L18.2265 22.6672L18.1032 22.8847ZM12.9806 18.701L12.8004 18.8743L12.9806 18.701ZM8.95698 13.3742L9.17832 13.258L9.17812 13.2576L8.95698 13.3742ZM8.77865 13.036L8.9998 12.9194L8.99847 12.9169L8.77865 13.036ZM8.97193 12.058L9.12747 12.2538L9.12918 12.2524L8.97193 12.058ZM11.1688 10.2806L11.3261 10.475L11.3267 10.4744L11.1688 10.2806ZM11.5419 7.89506L11.7529 7.76101L11.7523 7.7601L11.5419 7.89506ZM7.62748 1.79126L7.41685 1.92592L7.41704 1.92622L7.62748 1.79126ZM5.33014 1.25353L5.46259 1.46556L5.46266 1.46552L5.33014 1.25353ZM2.87564 2.78675L3.00605 3.00006L3.00809 2.99878L2.87564 2.78675ZM1.29685 4.91748L1.05548 4.85233L1.05513 4.85368L1.29685 4.91748ZM9.26534 22.561L9.08514 22.7343L9.08515 22.7343L9.26534 22.561ZM23.9594 31.1543L23.9605 30.9043H23.9594V31.1543ZM26.2308 30.8458L26.2985 31.0865L26.3007 31.0858L26.2308 30.8458ZM28.2798 29.204L28.0634 29.0788L28.0621 29.0811L28.2798 29.204ZM29.7557 26.6532L29.5393 26.528L29.5393 26.528L29.7557 26.6532ZM28.923 26.1375L28.7067 26.0122L28.7064 26.0126L28.923 26.1375ZM27.4505 28.6899L27.2339 28.565L27.2325 28.5675L27.4505 28.6899ZM25.9765 29.8779L26.0451 30.1183L26.0473 30.1177L25.9765 29.8779ZM9.94912 21.8499L9.76892 22.0232L9.94912 21.8499ZM2.22907 5.18337L1.9879 5.11748L1.98735 5.11956L2.22907 5.18337ZM3.37293 3.64862L3.50279 3.86226L3.50525 3.86073L3.37293 3.64862ZM5.82743 2.1174L5.95975 2.32951L5.96003 2.32933L5.82743 2.1174ZM6.82438 2.35055L6.61374 2.4852L6.61389 2.48543L6.82438 2.35055ZM10.7355 8.45381L10.9464 8.31966L10.9459 8.31893L10.7355 8.45381ZM10.5741 9.48905L10.7313 9.68343L10.7321 9.68279L10.5741 9.48905ZM8.37667 11.2665L8.53227 11.4622L8.5339 11.4609L8.37667 11.2665ZM7.92871 13.5239L8.14968 13.4069L8.14876 13.4053L7.92871 13.5239ZM8.10319 13.8536L8.32461 13.7375L8.32415 13.7366L8.10319 13.8536ZM12.2921 19.4116L12.1119 19.5849L12.1119 19.5849L12.2921 19.4116ZM17.6365 23.7671L17.7608 23.5502L17.7598 23.5496L17.6365 23.7671ZM17.954 23.949L18.0799 23.733L18.0783 23.7321L17.954 23.949ZM20.1248 23.4832L19.9246 23.3334L19.9234 23.3351L20.1248 23.4832ZM21.8341 21.1981L21.6345 21.0475L21.6339 21.0484L21.8341 21.1981ZM22.8296 21.0303L22.9721 20.8249L22.9711 20.8242L22.8296 21.0303ZM28.6988 25.1008L28.5563 25.3063L28.5568 25.3066L28.6988 25.1008ZM17.4324 6.02758L17.4326 5.77758H17.4324V6.02758ZM25.6478 14.5707H25.8978V14.5704L25.6478 14.5707ZM26.6143 14.5707H26.8643V14.5704L26.6143 14.5707ZM17.4324 5.02255L17.4326 4.77255H17.4324V5.02255ZM17.4324 9.04284L17.4327 8.79284H17.4324V9.04284ZM22.7483 14.5707H22.9983V14.5705L22.7483 14.5707ZM23.7147 14.5707H23.9647V14.5705L23.7147 14.5707ZM17.4324 8.03781L17.4327 7.78781H17.4324V8.03781ZM17.4324 12.0581L17.4327 11.8081H17.4324V12.0581ZM19.8487 14.5708H20.0987V14.5705L19.8487 14.5708ZM20.8152 14.5708H21.0652V14.5705L20.8152 14.5708ZM17.4324 11.0531L17.4326 10.8031H17.4324V11.0531ZM29.3815 24.0577L23.5118 19.9871L23.2269 20.398L29.0966 24.4685L29.3815 24.0577ZM23.511 19.9866C22.6536 19.3968 21.5052 19.5936 20.8756 20.4296L21.275 20.7304C21.7468 20.1039 22.5953 19.9636 23.2276 20.3986L23.511 19.9866ZM20.8751 20.4303L19.1653 22.7163L19.5657 23.0158L21.2755 20.7298L20.8751 20.4303ZM19.1635 22.7187C19.0172 22.9193 18.758 22.9728 18.5535 22.8546L18.3034 23.2876C18.7346 23.5367 19.2743 23.4154 19.5675 23.0134L19.1635 22.7187ZM18.5528 22.8542L18.2275 22.6678L17.9789 23.1015L18.3041 23.288L18.5528 22.8542ZM18.2265 22.6672C17.1671 22.0667 15.8453 21.3203 13.1609 18.5278L12.8004 18.8743C15.5217 21.7052 16.883 22.4804 17.9799 23.1021L18.2265 22.6672ZM13.1609 18.5278C10.4763 15.7352 9.75647 14.3589 9.17832 13.258L8.73564 13.4904C9.33284 14.6277 10.0792 16.0436 12.8004 18.8743L13.1609 18.5278ZM9.17812 13.2576L8.99979 12.9194L8.55751 13.1526L8.73584 13.4908L9.17812 13.2576ZM8.99847 12.9169C8.8759 12.6906 8.93471 12.4069 9.12747 12.2538L8.8164 11.8623C8.42946 12.1698 8.32336 12.7204 8.55882 13.1551L8.99847 12.9169ZM9.12918 12.2524L11.3261 10.475L11.0116 10.0863L8.81469 11.8637L9.12918 12.2524ZM11.3267 10.4744C12.1298 9.82014 12.3118 8.64073 11.7529 7.76101L11.3309 8.02911C11.7564 8.69904 11.6137 9.59565 11.0109 10.0868L11.3267 10.4744ZM11.7523 7.7601L7.83793 1.6563L7.41704 1.92622L11.3315 8.03002L11.7523 7.7601ZM7.83812 1.6566C7.26195 0.755367 6.09804 0.478683 5.19762 1.04154L5.46266 1.46552C6.12404 1.05208 6.98416 1.24912 7.41685 1.92592L7.83812 1.6566ZM5.19769 1.0415L2.74319 2.57472L3.00809 2.99878L5.46259 1.46556L5.19769 1.0415ZM2.74524 2.57345C1.91788 3.07926 1.31343 3.8967 1.05549 4.85233L1.53821 4.98263C1.76379 4.14692 2.29097 3.4372 3.00604 3.00005L2.74524 2.57345ZM1.05513 4.85368C0.140191 8.32031 0.86582 14.1861 9.08514 22.7343L9.44555 22.3877C1.28999 13.9059 0.685787 8.21242 1.53857 4.98128L1.05513 4.85368ZM9.08515 22.7343C15.6211 29.5304 20.5305 31.4043 23.9594 31.4043V30.9043C20.7232 30.9043 15.9354 29.1359 9.44554 22.3877L9.08515 22.7343ZM23.9583 31.4043C24.7486 31.4079 25.5357 31.3009 26.2984 31.0865L26.1631 30.6051C25.445 30.807 24.7042 30.9077 23.9605 30.9043L23.9583 31.4043ZM26.3007 31.0858C27.2267 30.8159 28.0132 30.1843 28.4975 29.327L28.0621 29.0811C27.6401 29.8282 26.9578 30.3735 26.1608 30.6058L26.3007 31.0858ZM28.4962 29.3292L29.9721 26.7784L29.5393 26.528L28.0634 29.0788L28.4962 29.3292ZM29.9721 26.7784C30.5057 25.8565 30.2503 24.6584 29.3812 24.0575L29.0969 24.4687C29.7459 24.9175 29.9459 25.8255 29.5393 26.528L29.9721 26.7784ZM28.7064 26.0126L27.2339 28.565L27.667 28.8149L29.1395 26.2625L28.7064 26.0126ZM27.2325 28.5675C26.9381 29.0914 26.4618 29.4739 25.9057 29.6382L26.0473 30.1177C26.732 29.9154 27.3121 29.4465 27.6684 28.8124L27.2325 28.5675ZM25.9079 29.6375C23.0662 30.4488 17.9632 29.8229 10.1293 21.6767L9.76892 22.0232C17.6556 30.2244 22.9408 31.0046 26.0451 30.1183L25.9079 29.6375ZM10.1293 21.6767C2.29768 13.5327 1.68646 8.21837 2.47079 5.24718L1.98735 5.11956C1.1392 8.33249 1.88003 13.8197 9.76892 22.0232L10.1293 21.6767ZM2.47023 5.24926C2.63034 4.66321 3.0015 4.16694 3.50278 3.86225L3.24308 3.43499C2.62938 3.80801 2.18073 4.41171 1.98791 5.11749L2.47023 5.24926ZM3.50525 3.86073L5.95975 2.32951L5.6951 1.90529L3.24061 3.43651L3.50525 3.86073ZM5.96003 2.32933C6.17933 2.19212 6.46661 2.25504 6.61374 2.4852L7.03502 2.21589C6.74439 1.76127 6.15319 1.61866 5.69482 1.90546L5.96003 2.32933ZM10.5245 8.58797C10.6715 8.81919 10.6209 9.12824 10.416 9.29532L10.7321 9.68279C11.137 9.35248 11.2268 8.76062 10.9464 8.31966L10.5245 8.58797ZM10.4168 9.29468L8.21945 11.0721L8.5339 11.4609L10.7313 9.68343L10.4168 9.29468ZM8.22108 11.0708C7.45545 11.6796 7.2408 12.7748 7.70866 13.6425L8.14876 13.4053C7.79319 12.7458 7.96046 11.9168 8.53226 11.4622L8.22108 11.0708ZM7.70775 13.6408L7.88223 13.9705L8.32415 13.7366L8.14967 13.407L7.70775 13.6408ZM7.88178 13.9697C8.50879 15.1655 9.28992 16.6509 12.1119 19.5849L12.4723 19.2383C9.68748 16.3429 8.93286 14.8975 8.3246 13.7375L7.88178 13.9697ZM12.1119 19.5849C14.934 22.519 16.3625 23.3319 17.5132 23.9845L17.7598 23.5496C16.646 22.9179 15.2571 22.1336 12.4723 19.2383L12.1119 19.5849ZM17.5122 23.984L17.8297 24.1659L18.0783 23.7321L17.7608 23.5502L17.5122 23.984ZM17.8281 24.165C18.6754 24.659 19.741 24.4271 20.3262 23.6313L19.9234 23.3351C19.4859 23.93 18.701 24.0952 18.0799 23.733L17.8281 24.165ZM20.325 23.6329L22.0343 21.3479L21.6339 21.0484L19.9246 23.3334L20.325 23.6329ZM22.0336 21.3488C22.1939 21.1365 22.4772 21.0916 22.6881 21.2364L22.9711 20.8242C22.5354 20.525 21.9527 20.626 21.6345 21.0475L22.0336 21.3488ZM22.6871 21.2357L28.5563 25.3063L28.8413 24.8954L22.9721 20.8249L22.6871 21.2357ZM28.5568 25.3066C28.7761 25.4579 28.8472 25.7697 28.7067 26.0122L29.1393 26.2629C29.4071 25.8008 29.2805 25.1986 28.8408 24.8951L28.5568 25.3066ZM17.4321 6.27758C21.8203 6.28265 25.3929 9.98351 25.3978 14.571L25.8978 14.5704C25.8926 9.72582 22.1148 5.78299 17.4326 5.77758L17.4321 6.27758ZM25.3978 14.5707C25.3978 14.977 25.717 15.3232 26.1311 15.3232V14.8232C26.0114 14.8232 25.8978 14.7195 25.8978 14.5707H25.3978ZM26.1311 15.3232C26.5452 15.3232 26.8643 14.977 26.8643 14.5707H26.3643C26.3643 14.7195 26.2508 14.8232 26.1311 14.8232V15.3232ZM26.8643 14.5704C26.8586 9.17095 22.6484 4.77849 17.4326 4.77255L17.4321 5.27255C22.3539 5.27816 26.3588 9.42864 26.3643 14.571L26.8643 14.5704ZM17.4324 4.77255C17.0183 4.77255 16.6991 5.11875 16.6991 5.52507H17.1991C17.1991 5.37628 17.3126 5.27255 17.4324 5.27255V4.77255ZM16.6991 5.52507C16.6991 5.93139 17.0183 6.27758 17.4324 6.27758V5.77758C17.3126 5.77758 17.1991 5.67385 17.1991 5.52507H16.6991ZM17.4321 9.29284C20.2196 9.29625 22.4949 11.6481 22.4983 14.571L22.9983 14.5705C22.9947 11.3904 20.5141 8.79661 17.4327 8.79284L17.4321 9.29284ZM22.4983 14.5707C22.4983 14.9771 22.8175 15.3233 23.2315 15.3233V14.8233C23.1118 14.8233 22.9983 14.7195 22.9983 14.5707H22.4983ZM23.2315 15.3233C23.6456 15.3233 23.9647 14.9771 23.9647 14.5707H23.4647C23.4647 14.7195 23.3512 14.8233 23.2315 14.8233V15.3233ZM23.9647 14.5705C23.9606 10.8355 21.0476 7.79211 17.4327 7.78781L17.4321 8.28781C20.7531 8.29176 23.4609 11.0932 23.4647 14.571L23.9647 14.5705ZM17.4324 7.78781C17.0183 7.78781 16.6991 8.13401 16.6991 8.54033H17.1991C17.1991 8.39154 17.3126 8.28781 17.4324 8.28781V7.78781ZM16.6991 8.54033C16.6991 8.94665 17.0183 9.29284 17.4324 9.29284V8.79284C17.3126 8.79284 17.1991 8.68911 17.1991 8.54033H16.6991ZM17.432 12.3081C18.6189 12.3096 19.5972 13.3126 19.5987 14.5711L20.0987 14.5705C20.0969 13.0549 18.9134 11.8099 17.4327 11.8081L17.432 12.3081ZM19.5987 14.5708C19.5987 14.9771 19.9179 15.3233 20.3319 15.3233V14.8233C20.2123 14.8233 20.0987 14.7196 20.0987 14.5708H19.5987ZM20.3319 15.3233C20.746 15.3233 21.0652 14.9771 21.0652 14.5708H20.5652C20.5652 14.7196 20.4516 14.8233 20.3319 14.8233V15.3233ZM21.0652 14.5705C21.0629 12.5001 19.447 10.8054 17.4326 10.8031L17.4321 11.3031C19.1525 11.3051 20.5632 12.7578 20.5652 14.5711L21.0652 14.5705ZM17.4324 10.8031C17.0183 10.8031 16.6991 11.1493 16.6991 11.5556H17.1991C17.1991 11.4068 17.3126 11.3031 17.4324 11.3031V10.8031ZM16.6991 11.5556C16.6991 11.9619 17.0183 12.3081 17.4324 12.3081V11.8081C17.3126 11.8081 17.1991 11.7044 17.1991 11.5556H16.6991ZM6.61389 2.48543L10.525 8.5887L10.9459 8.31893L7.03487 2.21566L6.61389 2.48543Z" fill="white" mask="url(#path-1-outside-1)"/>
</svg>
