<svg width="147" height="147" viewBox="0 0 147 147" fill="none" xmlns="http://www.w3.org/2000/svg">
<path d="M8 118.555C22.4123 135.936 44.1331 147 68.4297 147C111.823 147 147 111.707 147 68.171C147 50.0306 140.893 33.3214 130.628 20.0001L8 118.555Z" fill="url(#paint0_linear)"/>
<circle cx="69.5" cy="69.5001" r="69.5" fill="white"/>
<path d="M62.3721 52.0803C60.717 49.7298 59.1926 47.5678 57.6536 45.3914C56.8551 44.2597 56.0856 43.1279 55.2581 42.0252C54.8516 41.4738 54.8225 40.9515 55.1419 40.3421C56.2453 38.1947 57.3197 36.0327 58.3795 33.8708C58.6844 33.2614 59.1345 33.0002 59.8169 33.0002C66.597 33.0148 73.3626 33.0148 80.1427 33.0002C80.8686 33.0002 81.3187 33.2759 81.6236 33.9143C82.6689 36.0618 83.7433 38.1947 84.8321 40.3276C85.1661 40.966 85.108 41.4883 84.687 42.0687C82.4947 45.1447 80.3314 48.2208 78.1537 51.3113C78.0085 51.5289 77.8633 51.7321 77.631 52.0803C78.2262 51.9497 78.6618 51.8482 79.1119 51.7611C85.7613 50.5713 92.2511 55.3014 93.0641 62.0339C93.5287 65.8064 92.9044 69.5063 91.9607 73.1482C91.017 76.8481 89.5652 80.374 87.3729 83.4935C83.7578 88.6444 81.4348 94.3031 80.1572 100.426C80.0265 101.021 79.8814 101.601 79.7216 102.182C79.199 104.039 77.4423 105.214 75.5984 104.968C73.7255 104.706 72.3318 103.139 72.3172 101.21C72.3027 96.32 72.3172 91.4447 72.3027 86.555C72.3027 84.6543 70.4879 83.508 68.8909 84.3641C68.0198 84.8429 67.6568 85.5974 67.6568 86.584C67.6713 91.4447 67.6713 96.3054 67.6568 101.166C67.6568 103.125 66.2485 104.721 64.3466 104.968C62.4883 105.2 60.7606 104.025 60.2379 102.153C60.1363 101.805 60.0637 101.456 59.9621 101.108C59.1055 98.1482 58.3505 95.1447 57.3487 92.2283C56.3179 89.2248 54.5902 86.555 52.8335 83.9143C48.7829 77.7767 46.7793 71.0153 46.7503 63.6734C46.7358 57.652 51.2365 52.5446 57.189 51.7176C58.9022 51.4564 60.5283 51.6305 62.3721 52.0803ZM67.3519 59.5237C67.381 59.4512 67.41 59.3786 67.439 59.3061C65.9436 56.8104 65.3629 56.1575 63.7804 55.2579C57.7407 51.7756 50.2347 55.345 49.2184 62.237C48.8119 64.9648 49.2474 67.6926 49.7556 70.3769C50.6993 75.3391 52.7899 79.8226 55.6501 83.9723C57.7262 86.9903 59.3378 90.2695 60.3976 93.7808C61.1526 96.2764 61.7623 98.8156 62.4302 101.326C62.648 102.153 63.0835 102.588 63.7659 102.646C64.6805 102.719 65.3339 102.051 65.3339 100.992C65.3339 96.2039 65.3484 91.4157 65.3339 86.6276C65.3339 85.1331 65.813 83.8562 66.9599 82.8986C68.4408 81.6508 70.1395 81.3751 71.9107 82.1876C73.682 83.0002 74.6112 84.4366 74.6257 86.3809C74.6547 91.2706 74.6402 96.1458 74.6402 101.036C74.6402 101.935 75.1338 102.53 75.9033 102.632C76.6583 102.733 77.3116 102.254 77.5294 101.398C77.6891 100.789 77.8488 100.179 77.9794 99.5701C79.2861 93.5341 81.5365 87.9189 85.0499 82.7971C88.9844 77.0658 90.8573 70.638 90.9008 63.688C90.9299 57.3618 84.9628 52.6317 78.8505 54.2277C77.4713 54.5905 76.034 55.1563 74.9451 56.0414C73.9143 56.8685 73.3045 58.2179 72.4334 59.4221C73.9723 59.132 75.2645 58.5661 76.4986 57.8261C76.8034 57.6375 77.21 57.3908 77.4858 57.4779C77.8923 57.6085 78.3569 57.9277 78.5311 58.2904C78.7925 58.8127 78.4876 59.3061 77.9794 59.6398C74.4805 61.8743 70.7202 62.5562 66.6696 61.6421C64.9854 61.2649 63.4174 60.5684 61.9801 59.6108C61.3703 59.2045 61.2252 58.5226 61.5881 57.9712C61.9366 57.4488 62.5609 57.3038 63.1851 57.6375C63.4465 57.7681 63.6643 57.9567 63.9401 58.0728C65.058 58.5516 66.205 59.0449 67.3519 59.5237ZM73.1593 42.3154C71.0251 42.3154 68.949 42.3154 66.8148 42.3154C67.8456 46.6973 68.8764 51.0501 69.8927 55.403C69.9507 55.403 70.0088 55.403 70.0669 55.403C71.1122 51.0501 72.1285 46.6973 73.1593 42.3154ZM67.2648 54.9822C67.3084 54.9532 67.3519 54.9387 67.3955 54.9097C66.4082 50.7164 65.421 46.5232 64.4337 42.3299C62.4011 42.3299 60.4121 42.3299 58.336 42.3299C61.3558 46.6102 64.3031 50.789 67.2648 54.9822ZM72.5931 54.9097C72.6366 54.9242 72.6947 54.9532 72.7383 54.9677C75.7 50.7745 78.6473 46.5957 81.6526 42.3444C79.5329 42.3444 77.5439 42.3444 75.5549 42.3444C74.5531 46.5522 73.5803 50.7309 72.5931 54.9097ZM67.7875 35.3798C65.842 35.3798 64.0127 35.3798 62.0817 35.3798C63.1706 36.6857 64.1869 37.89 65.2468 39.1813C66.1033 37.89 66.9164 36.6857 67.7875 35.3798ZM77.9214 35.3653C75.9614 35.3653 74.1321 35.3653 72.2011 35.3653C73.0722 36.6712 73.8998 37.89 74.7563 39.1668C75.8307 37.8755 76.847 36.6712 77.9214 35.3653ZM67.5552 39.9068C69.2393 39.9068 70.7783 39.9068 72.4334 39.9068C71.6058 38.659 70.8218 37.4982 69.9943 36.2504C69.1522 37.5272 68.3827 38.6735 67.5552 39.9068ZM80.2008 36.2794C79.1699 37.5127 78.1972 38.6735 77.1664 39.9068C78.8651 39.9068 80.404 39.9068 82.0156 39.9068C81.4058 38.6735 80.825 37.5272 80.2008 36.2794ZM59.7878 36.2649C59.149 37.5417 58.5683 38.7025 57.973 39.9068C59.6136 39.9068 61.1526 39.9068 62.8367 39.9068C61.7769 38.6735 60.8186 37.5127 59.7878 36.2649Z" fill="url(#paint1_linear)"/>
<path d="M96.7227 33.0002C97.3325 33.0148 97.768 33.421 97.8697 34.0885C98.0003 35.0026 98.0439 35.9167 98.2472 36.8163C99.0457 40.3566 101.252 42.5475 104.78 43.4181C105.623 43.6212 106 43.9695 106 44.5934C106 45.2318 105.623 45.5945 104.78 45.7832C100.919 46.6247 98.494 49.5266 98.0294 53.8069C97.9858 54.2422 97.9277 54.6775 97.8697 55.0983C97.768 55.7657 97.3325 56.1865 96.7372 56.201C96.0984 56.2155 95.6483 55.7948 95.5612 55.0693C95.4451 54.1842 95.4015 53.2846 95.1983 52.414C94.3998 48.8737 92.222 46.6682 88.694 45.7977C87.8229 45.58 87.4019 45.2173 87.4454 44.5644C87.489 43.8099 87.9971 43.5487 88.694 43.4036C92.5269 42.5911 94.9805 39.6311 95.4161 35.3653C95.4596 34.9155 95.5032 34.4512 95.5903 34.0014C95.6629 33.392 96.142 33.0002 96.7227 33.0002ZM96.7082 39.6456C95.6483 41.8511 94.1384 43.4181 92.1059 44.6079C94.182 45.7977 95.6484 47.4082 96.7227 49.5411C97.7826 47.3647 99.2925 45.7977 101.311 44.5934C99.2489 43.4036 97.7826 41.8221 96.7082 39.6456Z" fill="url(#paint2_linear)"/>
<path d="M43.382 104.968C42.6561 104.968 42.2205 104.547 42.1189 103.821C42.0027 102.965 41.9592 102.08 41.7704 101.239C40.9864 97.6549 38.7941 95.4204 35.2371 94.5643C34.5548 94.4047 34.0466 94.1435 34.0031 93.389C33.9595 92.7506 34.3805 92.3734 35.2662 92.1702C39.0845 91.3287 41.5381 88.3833 41.9737 84.1755C42.0172 83.7402 42.0753 83.3049 42.1334 82.8841C42.235 82.1732 42.6996 81.7524 43.3239 81.7669C43.9192 81.7814 44.3547 82.2022 44.4563 82.8696C44.5725 83.7547 44.616 84.6543 44.8193 85.5249C45.6178 89.0942 47.8246 91.3142 51.3816 92.1848C52.2092 92.3879 52.6157 92.7506 52.5867 93.3745C52.5431 94.0855 52.1076 94.4047 51.4252 94.5498C47.4762 95.4059 45.0516 98.2788 44.616 102.588C44.5725 103.038 44.5289 103.502 44.4563 103.952C44.3257 104.576 43.9192 104.91 43.382 104.968ZM43.2658 98.2933C44.3402 96.1749 45.8066 94.5353 47.8972 93.36C45.8211 92.1702 44.3547 90.5597 43.2803 88.4123C42.2205 90.5742 40.7251 92.1702 38.678 93.36C40.7251 94.5498 42.206 96.1314 43.2658 98.2933Z" fill="url(#paint3_linear)"/>
<path d="M46.7647 44.6514C46.7647 45.0432 46.7938 45.4204 46.7647 45.8122C46.7212 46.4796 46.213 46.9439 45.5888 46.9294C44.979 46.9149 44.4999 46.4651 44.4708 45.8267C44.4418 45.0142 44.4273 44.1871 44.4708 43.3746C44.4999 42.7507 45.008 42.3009 45.6178 42.2864C46.213 42.2864 46.7212 42.7216 46.7793 43.3456C46.7938 43.7808 46.7647 44.2161 46.7647 44.6514Z" fill="url(#paint4_linear)"/>
<path d="M42.1334 49.2509C41.7269 49.2509 41.3059 49.2799 40.8994 49.2509C40.2605 49.2074 39.8105 48.7286 39.796 48.1337C39.7814 47.5098 40.246 46.9874 40.9139 46.9584C41.7269 46.9294 42.5545 46.9294 43.3675 46.9584C43.9918 46.9874 44.4419 47.5098 44.4273 48.1192C44.4273 48.7141 43.9773 49.2074 43.3385 49.2654C42.9465 49.2654 42.5399 49.2509 42.1334 49.2509Z" fill="url(#paint5_linear)"/>
<path d="M49.0878 49.251C48.6958 49.251 48.3183 49.2655 47.9263 49.251C47.2439 49.2074 46.7793 48.7431 46.7648 48.1047C46.7503 47.4808 47.2149 46.9585 47.8972 46.9439C48.6958 46.9149 49.4943 46.9149 50.2783 46.9439C50.9461 46.973 51.4107 47.4808 51.4107 48.1192C51.3962 48.7431 50.9316 49.2219 50.2492 49.251C49.8572 49.2655 49.4652 49.251 49.0878 49.251Z" fill="url(#paint6_linear)"/>
<path d="M44.4418 51.587C44.4418 51.1807 44.4128 50.76 44.4418 50.3537C44.4854 49.7153 44.9645 49.2655 45.5597 49.251C46.184 49.2365 46.7067 49.7008 46.7357 50.3682C46.7648 51.1662 46.7648 51.9643 46.7357 52.7478C46.7067 53.4297 46.1985 53.894 45.5742 53.894C44.95 53.894 44.4708 53.4297 44.4273 52.7478C44.4273 52.356 44.4418 51.9643 44.4418 51.587Z" fill="url(#paint7_linear)"/>
<path d="M94.3853 87.5562C94.3853 87.9625 94.4143 88.3832 94.3853 88.7895C94.3417 89.4279 93.8481 89.8632 93.2528 89.8777C92.643 89.8777 92.1204 89.4424 92.0913 88.8185C92.0478 87.977 92.0478 87.1354 92.0913 86.2938C92.1204 85.6699 92.6576 85.2347 93.2528 85.2492C93.8626 85.2637 94.3417 85.7135 94.3853 86.3374C94.4143 86.7437 94.3853 87.1499 94.3853 87.5562Z" fill="url(#paint8_linear)"/>
<path d="M89.7684 89.8777C90.1604 89.8777 90.5379 89.8632 90.9299 89.8777C91.5977 89.9212 92.0768 90.4146 92.0623 91.0385C92.0623 91.6769 91.5977 92.1557 90.9153 92.1847C90.1459 92.2137 89.3764 92.2137 88.6069 92.1847C87.8955 92.1557 87.4164 91.6479 87.4309 90.9804C87.4599 90.3565 87.9245 89.9067 88.6214 89.8632C88.9989 89.8632 89.3764 89.8777 89.7684 89.8777Z" fill="url(#paint9_linear)"/>
<path d="M96.7372 92.1993C96.3307 92.1993 95.9097 92.2283 95.5032 92.1993C94.8208 92.1557 94.3707 91.6479 94.3853 91.024C94.3998 90.4291 94.8498 89.9358 95.4887 89.9067C96.3017 89.8777 97.1292 89.8777 97.9423 89.9067C98.5811 89.9358 99.0166 90.4436 99.0312 91.0385C99.0312 91.6479 98.5956 92.1412 97.9713 92.1993C97.5503 92.2283 97.1438 92.1993 96.7372 92.1993Z" fill="url(#paint10_linear)"/>
<path d="M94.3853 94.4918C94.3853 94.898 94.4143 95.3188 94.3853 95.7251C94.3417 96.3925 93.8336 96.8568 93.2093 96.8423C92.614 96.8278 92.1204 96.378 92.0914 95.7396C92.0623 94.9271 92.0623 94.1 92.0914 93.2875C92.1204 92.6491 92.6285 92.2138 93.2383 92.1993C93.8481 92.1993 94.3272 92.6345 94.3998 93.2585C94.4288 93.4761 94.4143 93.6937 94.4143 93.9114C94.3853 94.1145 94.3853 94.3031 94.3853 94.4918Z" fill="url(#paint11_linear)"/>
<defs>
<linearGradient id="paint0_linear" x1="135.5" y1="20.0001" x2="29.5" y2="133" gradientUnits="userSpaceOnUse">
<stop stop-color="#0AA61B" stop-opacity="0.65"/>
<stop offset="1" stop-color="#3BA0A5" stop-opacity="0"/>
</linearGradient>
<linearGradient id="paint1_linear" x1="100.043" y1="33.0002" x2="39.8466" y2="91.632" gradientUnits="userSpaceOnUse">
<stop stop-color="#0AA61B" stop-opacity="0.65"/>
<stop offset="1" stop-color="#3BA0A5" stop-opacity="0.65"/>
</linearGradient>
<linearGradient id="paint2_linear" x1="100.043" y1="33.0002" x2="39.8466" y2="91.632" gradientUnits="userSpaceOnUse">
<stop stop-color="#0AA61B" stop-opacity="0.65"/>
<stop offset="1" stop-color="#3BA0A5" stop-opacity="0.65"/>
</linearGradient>
<linearGradient id="paint3_linear" x1="100.043" y1="33.0002" x2="39.8466" y2="91.632" gradientUnits="userSpaceOnUse">
<stop stop-color="#0AA61B" stop-opacity="0.65"/>
<stop offset="1" stop-color="#3BA0A5" stop-opacity="0.65"/>
</linearGradient>
<linearGradient id="paint4_linear" x1="100.043" y1="33.0002" x2="39.8466" y2="91.632" gradientUnits="userSpaceOnUse">
<stop stop-color="#0AA61B" stop-opacity="0.65"/>
<stop offset="1" stop-color="#3BA0A5" stop-opacity="0.65"/>
</linearGradient>
<linearGradient id="paint5_linear" x1="100.043" y1="33.0002" x2="39.8466" y2="91.632" gradientUnits="userSpaceOnUse">
<stop stop-color="#0AA61B" stop-opacity="0.65"/>
<stop offset="1" stop-color="#3BA0A5" stop-opacity="0.65"/>
</linearGradient>
<linearGradient id="paint6_linear" x1="100.043" y1="33.0002" x2="39.8466" y2="91.632" gradientUnits="userSpaceOnUse">
<stop stop-color="#0AA61B" stop-opacity="0.65"/>
<stop offset="1" stop-color="#3BA0A5" stop-opacity="0.65"/>
</linearGradient>
<linearGradient id="paint7_linear" x1="100.043" y1="33.0002" x2="39.8466" y2="91.632" gradientUnits="userSpaceOnUse">
<stop stop-color="#0AA61B" stop-opacity="0.65"/>
<stop offset="1" stop-color="#3BA0A5" stop-opacity="0.65"/>
</linearGradient>
<linearGradient id="paint8_linear" x1="100.043" y1="33.0002" x2="39.8466" y2="91.632" gradientUnits="userSpaceOnUse">
<stop stop-color="#0AA61B" stop-opacity="0.65"/>
<stop offset="1" stop-color="#3BA0A5" stop-opacity="0.65"/>
</linearGradient>
<linearGradient id="paint9_linear" x1="100.043" y1="33.0002" x2="39.8466" y2="91.632" gradientUnits="userSpaceOnUse">
<stop stop-color="#0AA61B" stop-opacity="0.65"/>
<stop offset="1" stop-color="#3BA0A5" stop-opacity="0.65"/>
</linearGradient>
<linearGradient id="paint10_linear" x1="100.043" y1="33.0002" x2="39.8466" y2="91.632" gradientUnits="userSpaceOnUse">
<stop stop-color="#0AA61B" stop-opacity="0.65"/>
<stop offset="1" stop-color="#3BA0A5" stop-opacity="0.65"/>
</linearGradient>
<linearGradient id="paint11_linear" x1="100.043" y1="33.0002" x2="39.8466" y2="91.632" gradientUnits="userSpaceOnUse">
<stop stop-color="#0AA61B" stop-opacity="0.65"/>
<stop offset="1" stop-color="#3BA0A5" stop-opacity="0.65"/>
</linearGradient>
</defs>
</svg>
