<svg width="147" height="147" viewBox="0 0 147 147" fill="none" xmlns="http://www.w3.org/2000/svg">
<path d="M8 118.555C22.4123 135.936 44.1331 147 68.4297 147C111.823 147 147 111.707 147 68.1712C147 50.0307 140.893 33.3215 130.628 20.0002L8 118.555Z" fill="url(#paint0_linear)"/>
<circle cx="69.5" cy="69.5002" r="69.5" fill="white"/>
<path d="M58.7308 71.1415C58.534 70.2956 58.428 69.5554 58.201 68.8454C57.3533 66.202 55.885 63.906 54.0989 61.7761C50.6477 57.6674 48.9221 52.9092 48.907 47.5468C48.8918 45.2357 48.8616 42.9095 48.9221 40.5983C49.0281 36.4292 50.9202 33.242 54.6136 31.2934C58.3372 29.3297 62.0457 29.6469 65.5726 31.9429C65.9056 32.1695 66.2386 32.4112 66.5716 32.6378C68.6 34.0275 70.4315 34.0426 72.4598 32.6227C73.9281 31.5955 75.4418 30.7043 77.2279 30.2964C83.0859 28.9672 89.2011 33.0909 89.8974 39.0576C90.2002 41.6406 90.0337 44.284 90.0791 46.8973C90.1245 49.0271 89.8974 51.1117 89.3525 53.166C88.5049 56.3533 87.0517 59.2233 84.9023 61.7308C82.8891 64.0721 81.33 66.6552 80.5278 69.6611C80.4067 70.1143 80.3915 70.5826 80.331 71.1264C80.7094 71.1264 80.9819 71.1264 81.2543 71.1264C85.6137 71.1264 89.9883 71.1264 94.3477 71.1264C97.6626 71.1264 99.9331 72.939 100.675 76.1565C102.749 85.1744 104.837 94.1772 106.926 103.195C107.199 104.373 106.714 104.962 105.488 104.962C95.604 104.962 85.7045 104.962 75.8202 104.962C74.8817 104.962 74.3217 104.494 74.3368 103.739C74.3519 102.984 74.8969 102.546 75.8505 102.546C84.978 102.546 94.1206 102.546 103.248 102.546C103.566 102.546 103.899 102.546 104.293 102.546C103.627 99.6907 102.991 96.8962 102.34 94.1168C100.978 88.2408 99.6304 82.3648 98.253 76.4888C97.814 74.6157 96.4819 73.5583 94.5747 73.5583C89.8823 73.5432 85.1899 73.5583 80.3915 73.5583C80.3915 73.9209 80.3915 74.2683 80.3915 74.6006C80.3764 75.4918 79.9374 75.945 79.0444 75.9601C78.6659 75.9752 78.2875 75.9601 77.9091 75.9601C77.5609 75.9601 77.2128 75.9601 76.8041 75.9601C76.8041 76.4284 76.8041 76.8362 76.8041 77.3045C77.1068 77.2592 77.3944 77.2138 77.682 77.1836C78.4843 77.1081 79.0746 77.5311 79.1655 78.241C79.2411 78.9056 78.787 79.4494 78.0302 79.5854C77.6366 79.6458 77.2431 79.7062 76.8041 79.7818C76.8041 80.5672 76.8041 81.3376 76.8041 82.1382C77.1825 82.0929 77.5155 82.0325 77.8637 82.0174C78.56 81.9872 79.1049 82.4554 79.1806 83.105C79.2411 83.7243 78.8173 84.2681 78.1664 84.404C77.9394 84.4493 77.7123 84.4644 77.5004 84.5098C77.2733 84.54 77.0614 84.5853 76.8041 84.6306C76.8041 85.4161 76.8041 86.1865 76.8041 87.0021C77.122 86.9568 77.3944 86.9115 77.6669 86.8813C78.4692 86.7907 79.0746 87.1985 79.1806 87.8934C79.2865 88.5882 78.8173 89.1471 78.0151 89.2831C77.6215 89.3435 77.2279 89.4039 76.8041 89.4794C76.8041 90.2649 76.8041 91.0051 76.8041 91.8208C77.1674 91.7755 77.5004 91.715 77.8334 91.6999C78.5448 91.6546 79.0898 92.0927 79.1806 92.7422C79.2563 93.3917 78.8324 93.9506 78.1361 94.0866C77.7123 94.1621 77.2885 94.2225 76.7738 94.2981C76.7738 95.3252 76.8344 96.3524 76.7436 97.3645C76.6982 97.8629 76.4862 98.452 76.1381 98.8146C74.3217 100.703 72.4447 102.546 70.598 104.388C69.7806 105.204 69.2357 105.204 68.4032 104.388C66.6624 102.666 64.9671 100.914 63.1961 99.2224C62.515 98.5729 62.076 97.878 62.2274 96.9113C62.2576 96.7451 62.1971 96.5639 62.182 96.3675C61.8489 96.4128 61.5462 96.4732 61.2586 96.5035C60.5018 96.579 59.9266 96.156 59.8206 95.4763C59.7298 94.8116 60.1839 94.2376 60.9256 94.1017C61.3192 94.0262 61.7278 93.9809 62.182 93.9053C62.182 93.1349 62.182 92.3797 62.182 91.5489C61.8489 91.5942 61.5008 91.6546 61.1678 91.6697C60.4564 91.6999 59.9114 91.2619 59.8206 90.6123C59.7449 89.9779 60.1688 89.4039 60.8802 89.268C61.304 89.1924 61.7279 89.1471 62.1971 89.0716C62.1971 88.3012 62.1971 87.5308 62.1971 86.7C61.8641 86.7454 61.5462 86.8058 61.2283 86.8209C60.4715 86.8813 59.8963 86.4281 59.8206 85.7484C59.7449 85.0989 60.1839 84.5551 60.8953 84.4191C61.3192 84.3436 61.743 84.2832 62.1971 84.2228C62.1971 83.4373 62.1971 82.6669 62.1971 81.8512C61.8187 81.8965 61.4705 81.972 61.1224 81.9872C60.4261 82.0174 59.8812 81.5491 59.8206 80.8845C59.7601 80.2651 60.1839 79.7213 60.8348 79.5854C61.2737 79.4948 61.7279 79.4494 62.1971 79.3739C62.2122 79.1624 62.2274 78.9963 62.2274 78.8301C62.2274 77.9087 62.2274 76.9722 62.2274 75.945C61.5008 75.945 60.8348 75.945 60.1536 75.945C59.0032 75.945 58.5945 75.5371 58.5945 74.4193C58.5945 74.1474 58.5945 73.8755 58.5945 73.5281C58.2464 73.5281 57.9739 73.5281 57.7166 73.5281C53.3269 73.5281 48.9373 73.5281 44.5476 73.5281C42.489 73.5281 41.1872 74.5402 40.718 76.5643C38.735 85.1442 36.7521 93.6787 34.7843 102.228C34.7692 102.304 34.7541 102.379 34.7389 102.515C34.966 102.531 35.1779 102.561 35.3898 102.561C44.5173 102.561 53.6599 102.561 62.7874 102.561C62.8934 102.561 62.9842 102.561 63.0902 102.561C64.1043 102.561 64.6644 102.999 64.6644 103.769C64.6644 104.54 64.0892 104.978 63.075 104.978C53.2361 104.978 43.3972 104.978 33.5583 104.978C32.2414 104.978 31.7873 104.404 32.09 103.12C34.1789 94.0564 36.2677 84.9931 38.3566 75.9299C39.0378 72.9994 41.3991 71.1415 44.4265 71.1415C48.6951 71.1415 52.9485 71.1415 57.2171 71.1415C57.6409 71.1415 58.0647 71.1415 58.7308 71.1415ZM78.2875 68.7246C79.3017 65.054 81.4965 62.1084 83.8276 59.1931C86.0224 56.4439 87.2788 53.2113 87.5058 49.6918C87.7026 46.6556 87.6723 43.6043 87.6421 40.5681C87.6118 37.5772 86.2495 35.251 83.7065 33.68C80.7548 31.8523 77.2431 32.094 74.3065 34.3145C72.7474 35.4927 71.037 36.2178 69.0541 36.0818C67.2982 35.9761 65.8602 35.1453 64.4525 34.1483C61.743 32.1997 58.8216 31.8674 55.8245 33.393C52.8425 34.9187 51.3743 37.4564 51.3289 40.7947C51.2986 43.0303 51.3289 45.281 51.3289 47.5166C51.344 52.3956 52.9334 56.6705 56.0667 60.4015C56.7024 61.1568 57.3685 61.897 57.8377 62.7429C58.9275 64.6612 59.8963 66.6401 60.9861 68.7397C63.5443 68.7397 66.3294 68.7397 69.1297 68.7397C70.1288 68.7397 70.704 69.1929 70.6888 69.9784C70.6737 70.7336 70.1288 71.1566 69.16 71.1566C66.7079 71.1566 64.2708 71.1566 61.8187 71.1566C61.5613 71.1566 61.2889 71.1566 61.0467 71.1566C61.0467 72.0327 61.0467 72.7729 61.0467 73.5281C66.6927 73.5281 72.3085 73.5281 77.9242 73.5281C77.9242 72.7275 77.9242 71.9874 77.9242 71.1717C76.789 71.1717 75.684 71.1717 74.579 71.1717C73.6708 71.1717 73.141 70.7336 73.1107 69.9935C73.0956 69.2382 73.6557 68.7548 74.579 68.7548C75.8202 68.7246 77.0312 68.7246 78.2875 68.7246ZM74.3368 94.6304C71.037 95.0986 67.8583 95.5518 64.6947 96.005C64.6038 97.1681 64.6038 97.1681 65.3153 97.878C66.2386 98.7995 67.1771 99.7209 68.0853 100.657C68.5394 101.126 68.9178 101.654 69.3417 102.183C71.0673 100.461 72.5961 98.9505 74.0946 97.44C74.2006 97.3191 74.3065 97.1379 74.3217 96.9868C74.3519 96.2467 74.3368 95.4914 74.3368 94.6304ZM74.3065 76.0356C71.0521 76.0356 67.8734 76.0356 64.6947 76.0356C64.6947 77.0628 64.6947 78.0295 64.6947 79.0718C67.9188 78.6186 71.0975 78.1655 74.3065 77.6972C74.3065 77.1081 74.3065 76.5945 74.3065 76.0356ZM64.6947 83.8904C67.9339 83.4373 71.1127 82.9841 74.3065 82.5158C74.3065 81.7001 74.3065 80.96 74.3065 80.1292C71.0673 80.5823 67.8885 81.0355 64.6947 81.5038C64.6947 82.3195 64.6947 83.0747 64.6947 83.8904ZM64.6947 88.7242C67.9339 88.271 71.1127 87.8178 74.2914 87.3647C74.2914 86.549 74.2914 85.8088 74.2914 84.978C71.0521 85.4312 67.8734 85.8843 64.6947 86.3375C64.6947 87.1532 64.6947 87.9085 64.6947 88.7242ZM64.6947 93.573C67.9642 93.1047 71.1429 92.6516 74.2914 92.1984C74.2914 91.3525 74.2914 90.6123 74.2914 89.8118C71.0521 90.28 67.8583 90.7332 64.6947 91.1863C64.6947 92.0171 64.6947 92.7422 64.6947 93.573Z" fill="url(#paint1_linear)"/>
<path d="M69.5839 40.9457C66.6322 40.9004 64.0892 39.9186 61.8338 38.1814C61.2283 37.7283 61.1224 37.0032 61.5159 36.4594C61.9246 35.9005 62.6209 35.7797 63.2567 36.2479C64.7249 37.3204 66.2992 38.1059 68.1156 38.3627C70.7645 38.7554 73.1561 38.0606 75.3207 36.5501C76.3651 35.825 77.0009 35.7948 77.5004 36.4594C77.9999 37.1241 77.7275 37.8189 76.6982 38.544C74.5336 40.0545 72.1571 40.9004 69.5839 40.9457Z" fill="url(#paint2_linear)"/>
<path d="M55.0071 46.3988C55.7034 46.429 56.1575 46.9577 56.1727 47.7885C56.2332 50.3262 56.8538 52.7129 58.1405 54.9032C58.6097 55.7037 59.1849 56.4439 59.7298 57.1841C60.2596 57.894 60.2445 58.604 59.6844 59.0571C59.0941 59.5254 58.4281 59.4046 57.8529 58.7097C55.2342 55.5678 53.8416 51.9425 53.7508 47.8489C53.7508 46.9577 54.2654 46.3686 55.0071 46.3988Z" fill="url(#paint3_linear)"/>
<path d="M54.9919 42.1391C55.6428 42.1542 56.1726 42.698 56.1726 43.3475C56.1726 44.0273 55.5823 44.5862 54.9011 44.5409C54.2502 44.5107 53.7356 43.9367 53.7659 43.2871C53.781 42.6527 54.3411 42.124 54.9919 42.1391Z" fill="url(#paint4_linear)"/>
<defs>
<linearGradient id="paint0_linear" x1="135.5" y1="20.0002" x2="29.5" y2="133" gradientUnits="userSpaceOnUse">
<stop stop-color="#0AA61B" stop-opacity="0.65"/>
<stop offset="1" stop-color="#3BA0A5" stop-opacity="0"/>
</linearGradient>
<linearGradient id="paint1_linear" x1="97" y1="26.5002" x2="44.5" y2="105" gradientUnits="userSpaceOnUse">
<stop stop-color="#0AA61B" stop-opacity="0.65"/>
<stop offset="1" stop-color="#3BA0A5" stop-opacity="0.65"/>
</linearGradient>
<linearGradient id="paint2_linear" x1="69.5134" y1="35.9585" x2="69.5134" y2="40.9457" gradientUnits="userSpaceOnUse">
<stop stop-color="#0AA61B" stop-opacity="0.65"/>
<stop offset="1" stop-color="#3BA0A5" stop-opacity="0.65"/>
</linearGradient>
<linearGradient id="paint3_linear" x1="56.9335" y1="46.3977" x2="56.9335" y2="59.3373" gradientUnits="userSpaceOnUse">
<stop stop-color="#0AA61B" stop-opacity="0.65"/>
<stop offset="1" stop-color="#3BA0A5" stop-opacity="0.65"/>
</linearGradient>
<linearGradient id="paint4_linear" x1="54.9686" y1="42.1388" x2="54.9686" y2="44.5434" gradientUnits="userSpaceOnUse">
<stop stop-color="#0AA61B" stop-opacity="0.65"/>
<stop offset="1" stop-color="#3BA0A5" stop-opacity="0.65"/>
</linearGradient>
</defs>
</svg>
