<svg width="147" height="147" viewBox="0 0 147 147" fill="none" xmlns="http://www.w3.org/2000/svg">
<path d="M8 118.555C22.4123 135.936 44.1331 147 68.4297 147C111.823 147 147 111.707 147 68.1712C147 50.0307 140.893 33.3215 130.628 20.0002L8 118.555Z" fill="url(#paint0_linear)"/>
<circle cx="69.5" cy="69.5002" r="69.5" fill="url(#paint1_linear)"/>
<path d="M92.6038 49.6071C92.6554 49.3271 92.6812 49.187 92.707 49.0597C92.8232 48.4613 93.2103 48.1176 93.7523 48.1303C94.2944 48.1303 94.6815 48.4995 94.7718 49.0852C94.888 49.8872 94.9267 50.6893 95.1074 51.4786C95.8172 54.5851 97.7916 56.5075 100.928 57.2714C101.663 57.4496 102.024 57.7679 101.999 58.3153C101.96 58.9773 101.521 59.2192 100.902 59.3593C97.469 60.0977 95.3268 62.6185 94.9138 66.3487C94.8751 66.7052 94.8235 67.0617 94.7847 67.4182C94.6944 68.1056 94.3202 68.4876 93.7394 68.4876C93.1845 68.4876 92.8232 68.1311 92.707 67.4691C92.6941 67.3672 92.6683 67.2654 92.5264 67.1381C92.4618 67.3418 92.3973 67.5455 92.3328 67.7492C91.3778 71.1611 90.0486 74.4331 88.087 77.3867C84.9898 82.0336 83.1831 87.1516 81.9959 92.5369C81.9184 92.8934 81.841 93.2371 81.7249 93.5809C81.2216 95.1086 79.7246 96.0889 78.0986 95.9743C76.5371 95.8725 75.1691 94.7521 74.911 93.1989C74.3561 89.8761 73.8786 86.5405 73.3624 83.2049C73.0914 81.4225 72.8333 79.6402 72.5623 77.8578C72.3429 76.4828 71.2976 75.5789 69.9555 75.6044C68.665 75.6298 67.6455 76.5465 67.439 77.896C66.6905 82.823 65.9549 87.75 65.2064 92.677C64.9225 94.5994 63.6191 95.8852 61.864 95.9743C60.0315 96.0635 58.612 94.9558 58.1345 93.0462C57.9409 92.2823 57.7344 91.5311 57.5538 90.7673C56.4827 85.8912 54.4566 81.4225 51.7981 77.183C47.9653 71.0975 46.2361 64.3754 46.2619 57.2077C46.2748 55.0816 46.2232 52.9809 46.9071 50.9185C49.5269 43.0378 58.9862 39.5495 66.1614 43.8781C68.7166 45.4186 71.246 45.4568 73.8141 43.9163C80.2795 40.0205 88.6936 42.3121 92.2554 48.9451C92.3328 49.1234 92.436 49.3016 92.6038 49.6071ZM60.38 44.0563C53.8887 44.0309 49.0106 48.1176 48.4686 53.5029C48.2105 56.0364 48.3009 58.6336 48.5203 61.1798C49.0236 66.9853 50.998 72.3197 54.1856 77.2212C55.7213 79.5892 57.0376 82.0718 57.9022 84.7454C58.741 87.368 59.4121 90.0416 60.1606 92.6897C60.3929 93.5299 60.9478 93.9883 61.7092 93.9501C62.4577 93.9119 62.9997 93.3899 63.1287 92.5496C63.6578 89.074 64.174 85.5856 64.7032 82.11C64.9613 80.4168 65.1677 78.698 65.5162 77.0303C65.9549 74.9169 67.9939 73.491 70.2394 73.5801C72.4849 73.6692 74.2529 75.3243 74.6142 77.6923C75.3627 82.6193 76.0983 87.5463 76.8468 92.4733C76.9758 93.3644 77.492 93.9119 78.2663 93.9501C79.0277 93.9883 79.5955 93.5299 79.8278 92.6388C80.3182 90.78 80.7828 88.8958 81.299 87.037C82.4088 83.0521 84.3575 79.4619 86.5384 75.9608C89.0291 71.9632 90.5261 67.5837 91.2488 62.9368C91.2875 62.7076 91.1842 62.3893 91.0423 62.1856C89.9067 60.6451 88.3839 59.6776 86.4868 59.3084C85.9061 59.1938 85.5448 58.9137 85.4931 58.3153C85.4544 57.7806 85.8029 57.4114 86.4739 57.2459C86.603 57.2204 86.7191 57.1822 86.8482 57.1568C88.4484 56.7876 89.726 55.9091 90.8229 54.7124C91.5198 53.9485 91.623 53.1974 91.3391 52.217C89.3259 44.9857 81.1312 41.8283 74.6529 45.7368C71.5557 47.6083 68.3682 47.5701 65.271 45.6986C63.4514 44.6292 61.5156 44.069 60.38 44.0563ZM93.7394 53.9612C92.7845 55.8709 91.4553 57.2586 89.6356 58.3153C91.4811 59.3593 92.7845 60.7724 93.7523 62.6567C94.6815 60.747 96.0236 59.3593 97.8432 58.3153C96.0107 57.2586 94.6944 55.8709 93.7394 53.9612Z" fill="url(#paint2_linear)"/>
<path d="M54.5082 85.8021C54.4437 86.4132 54.0824 86.706 53.4887 86.846C50.3141 87.5717 48.3396 89.5069 47.617 92.6388C47.4363 93.4026 47.3976 94.192 47.2943 94.9686C47.204 95.6179 46.8298 95.9871 46.2748 95.9998C45.6941 96.0125 45.3199 95.6306 45.2166 94.9431C45.0747 94.001 45.0231 93.0334 44.765 92.1295C43.939 89.3032 42.0162 87.559 39.1255 86.8715C38.3383 86.6805 37.964 86.3623 38.0027 85.7893C38.0543 85.1273 38.4931 84.8982 39.1126 84.7581C42.5582 84.0197 44.7133 81.4607 45.0876 77.705C45.1263 77.3231 45.165 76.9411 45.2295 76.5719C45.3199 75.9863 45.7328 75.6298 46.2619 75.6425C46.8039 75.6553 47.204 76.0117 47.2814 76.5974C47.3976 77.374 47.4234 78.1633 47.6041 78.9272C48.3138 82.0846 50.2883 84.0579 53.4887 84.7836C54.0824 84.8982 54.4437 85.1782 54.5082 85.8021ZM46.1845 81.5753C45.2941 83.3831 43.939 84.7581 42.1581 85.8148C44.0294 86.846 45.307 88.2847 46.2748 90.1307C47.204 88.2083 48.559 86.8333 50.2367 85.853C49.4495 85.191 48.6494 84.6435 47.9912 83.9433C47.3201 83.2558 46.8039 82.4156 46.1845 81.5753Z" fill="url(#paint3_linear)"/>
<path d="M51.3852 56.622C52.0305 56.6092 52.4305 57.0421 52.4305 57.7933C52.4563 60.4159 52.7919 62.9876 53.45 65.5211C54.263 68.6403 55.5148 71.5685 57.2312 74.3184C57.3473 74.4967 57.4635 74.6749 57.5667 74.8659C57.8635 75.4133 57.7474 75.948 57.2699 76.2663C56.7924 76.5846 56.1472 76.4573 55.8116 75.9226C55.1793 74.8913 54.547 73.8474 54.0049 72.7779C51.6304 68.0928 50.4303 63.1276 50.3786 57.8951C50.3657 57.0803 50.7271 56.6347 51.3852 56.622Z" fill="url(#paint4_linear)"/>
<path d="M69.9815 51.1858C67.4392 51.1349 65.1163 50.4856 62.9999 49.1361C62.3547 48.7287 62.1611 48.1812 62.4837 47.6465C62.8063 47.0991 63.4258 47.0099 64.1097 47.4173C68.02 49.7472 71.9431 49.7344 75.8662 47.4301C76.5631 47.0227 77.1567 47.0863 77.4922 47.621C77.8278 48.1685 77.6342 48.7287 76.9502 49.1615C74.8209 50.511 72.4722 51.1476 69.9815 51.1858Z" fill="url(#paint5_linear)"/>
<defs>
<linearGradient id="paint0_linear" x1="135.5" y1="20.0002" x2="29.5" y2="133" gradientUnits="userSpaceOnUse">
<stop stop-color="#0AA61B" stop-opacity="0.32"/>
<stop offset="1" stop-color="#3BA0A5" stop-opacity="0"/>
</linearGradient>
<linearGradient id="paint1_linear" x1="127.5" y1="0.000242775" x2="11.2873" y2="113.192" gradientUnits="userSpaceOnUse">
<stop stop-color="#0AA61B" stop-opacity="0.65"/>
<stop offset="1" stop-color="#3BA0A5" stop-opacity="0"/>
</linearGradient>
<linearGradient id="paint2_linear" x1="55.5" y1="96.0001" x2="99" y2="28.5001" gradientUnits="userSpaceOnUse">
<stop stop-color="#3BA0A5" stop-opacity="0.65"/>
<stop offset="1" stop-color="#0AA61B" stop-opacity="0.65"/>
</linearGradient>
<linearGradient id="paint3_linear" x1="38" y1="96.0001" x2="63" y2="67.5001" gradientUnits="userSpaceOnUse">
<stop stop-color="#3BA0A5" stop-opacity="0.65"/>
<stop offset="1" stop-color="#0AA61B" stop-opacity="0.65"/>
</linearGradient>
<linearGradient id="paint4_linear" x1="43.5" y1="95.5001" x2="101" y2="25.0001" gradientUnits="userSpaceOnUse">
<stop stop-color="#3BA0A5" stop-opacity="0.65"/>
<stop offset="1" stop-color="#0AA61B" stop-opacity="0.65"/>
</linearGradient>
<linearGradient id="paint5_linear" x1="69.9918" y1="47.1639" x2="69.9918" y2="51.1858" gradientUnits="userSpaceOnUse">
<stop stop-color="#3BA0A5" stop-opacity="0.65"/>
<stop offset="1" stop-color="#0AA61B" stop-opacity="0.65"/>
</linearGradient>
</defs>
</svg>
