<svg width="147" height="147" viewBox="0 0 147 147" fill="none" xmlns="http://www.w3.org/2000/svg">
<path d="M8 118.555C22.4123 135.936 44.1331 147 68.4297 147C111.823 147 147 111.707 147 68.1712C147 50.0307 140.893 33.3215 130.628 20.0002L8 118.555Z" fill="url(#paint0_linear)"/>
<circle cx="69.5" cy="69.5002" r="69.5" fill="white"/>
<path d="M58.5604 84.5617C58.5604 82.1665 58.5604 79.7714 58.5604 77.3762C58.5604 75.8521 57.5879 74.7924 56.2235 74.8069C54.8736 74.8214 53.9156 75.8666 53.9156 77.3472C53.9156 82.1085 53.9156 86.8843 53.9156 91.6455C53.9156 93.8375 52.5512 95.4778 50.5627 95.6955C48.5886 95.9133 46.963 94.6504 46.3969 92.5455C45.6421 89.7294 44.9454 86.8843 44.06 84.1117C43.0585 80.9617 41.4473 78.0875 39.5749 75.373C36.28 70.5537 34.1608 65.2844 33.3915 59.507C33.0142 56.7488 32.7239 53.9909 33.4351 51.2183C34.6253 46.6457 38.704 43.0458 43.3778 42.407C46.3388 42.0006 49.0822 42.5957 51.5497 44.207C54.7284 46.2828 57.7621 46.2103 60.9553 44.1925C67.2113 40.2296 75.2235 42.6538 78.3587 49.3602C79.3312 51.436 79.5489 53.6134 79.4328 55.878C79.1135 62.4828 77.3572 68.6955 73.6268 74.1681C70.0707 79.394 67.6903 85.0406 66.3839 91.181C66.2533 91.7761 66.1081 92.3568 65.9485 92.9375C65.4404 94.7519 63.7132 95.9133 61.8698 95.6955C59.9974 95.4633 58.5749 93.881 58.5604 91.9794C58.5459 89.4972 58.5604 87.0294 58.5604 84.5617ZM60.8828 84.3585C60.8828 86.8262 60.8828 89.2938 60.8828 91.7617C60.8828 92.6617 61.3618 93.2713 62.131 93.3729C62.9149 93.4891 63.5535 92.9955 63.7857 92.081C63.8874 91.6891 63.989 91.2826 64.076 90.8907C65.4114 84.5907 67.7193 78.7117 71.3916 73.3552C75.3106 67.636 77.1685 61.2052 77.1104 54.2811C77.0814 50.4053 75.2235 47.4586 71.7835 45.6877C68.4015 43.9457 65.0485 44.2941 61.8698 46.3409C60.1135 47.4732 58.2265 48.1119 56.1364 48.0973C54.0898 48.0828 52.2609 47.4296 50.5627 46.3264C45.018 42.7264 38.0073 45.0925 35.8446 51.2618C35.0608 53.5118 35.293 55.8054 35.5398 58.0844C36.1639 63.9199 38.196 69.2471 41.5199 74.081C44.2487 78.0584 46.2372 82.3843 47.4275 87.073C47.8484 88.7568 48.2693 90.4407 48.7048 92.1245C48.9225 92.9809 49.5611 93.46 50.3159 93.3729C51.0852 93.2858 51.5787 92.6762 51.5932 91.7907C51.5932 91.5439 51.5932 91.3117 51.5932 91.0649C51.5932 86.4633 51.5932 81.8762 51.5932 77.2746C51.5932 74.5456 53.6253 72.4698 56.2525 72.4698C58.8507 72.4843 60.8683 74.5456 60.8828 77.2311C60.8973 79.6117 60.8828 81.9924 60.8828 84.3585Z" fill="url(#paint1_linear)"/>
<path d="M98.0409 71.323C94.8767 71.323 91.8141 71.3375 88.7369 71.323C86.1097 71.3085 83.8309 69.5811 83.1632 67.0698C83.0325 66.6053 82.9745 66.1263 82.96 65.6472C82.9309 64.8488 83.3954 64.3843 84.1937 64.3698C84.9195 64.3553 85.6307 64.3698 86.3855 64.3698C86.3855 60.886 86.3855 57.4602 86.3855 53.9182C85.7033 53.9182 85.0211 53.9182 84.3244 53.9182C83.3519 53.9037 82.9164 53.4537 82.9455 52.4812C83.018 49.5779 85.5146 47.0086 88.4466 46.9651C92.1189 46.907 95.7911 46.907 99.4779 46.9651C102.555 47.0086 104.994 49.6505 104.994 52.8295C105.008 62.5263 104.994 72.223 104.994 81.9197C104.994 89.1052 104.994 96.2906 104.994 103.462C104.994 104.086 104.906 104.623 104.268 104.899C103.615 105.174 103.165 104.841 102.744 104.405C101.365 103.012 99.9424 101.662 98.607 100.224C98.2877 99.8761 98.0409 99.2955 98.0409 98.8309C98.0119 90.0342 98.0119 81.223 98.0119 72.4262C98.0409 72.0924 98.0409 71.7585 98.0409 71.323ZM85.5726 66.6779C85.9355 68.0424 87.2419 68.9859 88.7659 69.0004C92.0318 69.015 95.2976 69.0004 98.5635 69.0004C100.087 69.0004 100.363 69.2908 100.363 70.8149C100.363 79.902 100.363 89.0036 100.363 98.0906C100.363 98.3084 100.32 98.5987 100.436 98.7148C101.118 99.4551 101.858 100.166 102.686 101.008C102.686 100.442 102.686 100.079 102.686 99.7164C102.686 89.9181 102.686 80.1197 102.686 70.3359C102.686 64.5005 102.686 58.6795 102.686 52.8441C102.686 50.8844 101.292 49.2876 99.4199 49.2586C95.7911 49.2005 92.1624 49.215 88.5337 49.2586C87.1403 49.2731 85.8775 50.2892 85.5726 51.5666C85.8484 51.5666 86.1097 51.5666 86.3565 51.5666C89.7384 51.5666 93.1349 51.5666 96.5169 51.5666C98.9409 51.5666 100.363 52.9747 100.363 55.3844C100.363 57.8956 100.363 60.4214 100.363 62.9327C100.363 65.1972 98.9118 66.6633 96.662 66.6633C93.251 66.6633 89.84 66.6633 86.429 66.6633C86.1532 66.6779 85.8629 66.6779 85.5726 66.6779ZM88.7804 64.3553C91.4512 64.3553 94.0348 64.3553 96.6185 64.3553C97.649 64.3553 98.0409 63.9343 98.0409 62.8892C98.0409 60.3779 98.0409 57.8666 98.0409 55.3553C98.0409 54.3247 97.6345 53.9182 96.5895 53.9182C94.18 53.9182 91.756 53.9182 89.3465 53.9182C89.1578 53.9182 88.9836 53.9473 88.795 53.9618C88.7804 57.4311 88.7804 60.8424 88.7804 64.3553Z" fill="url(#paint2_linear)"/>
<path d="M79.4619 35.3231C79.4619 34.9312 79.4474 34.5538 79.4619 34.1619C79.4909 33.4796 79.9699 33.0006 80.5941 33.0006C81.2182 32.9861 81.7407 33.4506 81.7698 34.1328C81.7988 34.9312 81.7988 35.7296 81.7698 36.5135C81.7407 37.1957 81.2327 37.6457 80.6086 37.6457C79.9699 37.6312 79.5054 37.1667 79.4619 36.4844C79.4474 36.0925 79.4619 35.7006 79.4619 35.3231Z" fill="url(#paint3_linear)"/>
<path d="M77.0669 39.9684C76.704 39.9684 76.3412 39.9829 75.9783 39.9684C75.2961 39.9248 74.8316 39.4603 74.8171 38.8216C74.8026 38.1829 75.2671 37.6748 75.9347 37.6458C76.7331 37.6168 77.5314 37.6168 78.3152 37.6458C78.9829 37.6748 79.4474 38.1829 79.4474 38.8216C79.4328 39.4603 78.9684 39.9248 78.2862 39.9539C77.8943 39.9829 77.4878 39.9684 77.0669 39.9684Z" fill="url(#paint4_linear)"/>
<path d="M84.1067 37.6457C84.4986 37.6457 84.876 37.6312 85.2679 37.6457C85.9501 37.6893 86.4145 38.1538 86.4291 38.7925C86.4291 39.4312 85.9791 39.9248 85.2969 39.9538C84.4986 39.9828 83.7003 39.9828 82.9164 39.9538C82.2342 39.9248 81.7843 39.4167 81.7988 38.778C81.8133 38.1538 82.2778 37.6748 82.96 37.6457C83.3374 37.6312 83.7293 37.6457 84.1067 37.6457Z" fill="url(#paint5_linear)"/>
<path d="M81.7842 42.3198C81.7842 42.7263 81.8132 43.1472 81.7842 43.5537C81.7262 44.1778 81.2327 44.6278 80.623 44.6133C80.0279 44.6133 79.5199 44.1633 79.4909 43.5246C79.4473 42.7118 79.4618 41.8844 79.4909 41.0715C79.5199 40.4328 80.0134 39.9828 80.6085 39.9682C81.2472 39.9537 81.7407 40.4037 81.7842 41.086C81.7987 41.4924 81.7842 41.9134 81.7842 42.3198Z" fill="url(#paint6_linear)"/>
<path d="M80.623 81.7745C80.623 82.1664 80.6375 82.5438 80.623 82.9358C80.5794 83.618 80.115 84.0825 79.4763 84.0971C78.8376 84.1116 78.3296 83.6471 78.3151 82.9648C78.2861 82.1664 78.2861 81.368 78.3151 80.5842C78.3441 79.9164 78.8522 79.4519 79.4908 79.4519C80.115 79.4664 80.5939 79.931 80.623 80.6132C80.6375 81.0051 80.623 81.3826 80.623 81.7745Z" fill="url(#paint7_linear)"/>
<path d="M75.9637 84.0971C76.3701 84.0971 76.791 84.0681 77.1974 84.0971C77.8651 84.1406 78.3296 84.6487 78.3151 85.2874C78.3006 85.8826 77.8506 86.3761 77.2119 86.4051C76.3991 86.4342 75.5718 86.4342 74.7589 86.4051C74.1203 86.3761 73.6848 85.868 73.6848 85.2584C73.6848 84.6487 74.1203 84.1552 74.7589 84.0971C75.1363 84.0681 75.5427 84.0971 75.9637 84.0971Z" fill="url(#paint8_linear)"/>
<path d="M82.9888 86.4197C82.5969 86.4197 82.2195 86.4342 81.8276 86.4197C81.1019 86.3907 80.6229 85.8971 80.6374 85.2439C80.6519 84.6052 81.1164 84.1262 81.7986 84.1117C82.5679 84.0826 83.3372 84.0826 84.1065 84.1117C84.7887 84.1407 85.2531 84.6197 85.2677 85.2584C85.2822 85.9117 84.7887 86.4052 84.0629 86.4342C83.7 86.4342 83.3372 86.4197 82.9888 86.4197Z" fill="url(#paint9_linear)"/>
<path d="M80.623 88.7858C80.623 89.1777 80.6375 89.5551 80.623 89.947C80.5794 90.5858 80.115 91.0358 79.5199 91.0648C78.8957 91.0938 78.3587 90.6293 78.3296 89.9616C78.3006 89.1487 78.3006 88.3212 78.3296 87.5083C78.3587 86.8696 78.8667 86.4342 79.4763 86.4342C80.0714 86.4342 80.5794 86.8696 80.6375 87.4938C80.652 87.9148 80.623 88.3503 80.623 88.7858Z" fill="url(#paint10_linear)"/>
<path d="M39.9814 95.7099C39.9814 96.1018 39.9959 96.4792 39.9814 96.8712C39.9378 97.5534 39.4733 98.0179 38.8347 98.0325C38.2106 98.047 37.7025 97.5825 37.6735 96.9002C37.6445 96.1018 37.6445 95.3034 37.6735 94.5196C37.7025 93.8518 38.2251 93.3873 38.8492 93.4018C39.4588 93.4164 39.9233 93.8518 39.9814 94.5051C40.0104 94.897 39.9814 95.3034 39.9814 95.7099Z" fill="url(#paint11_linear)"/>
<path d="M35.3367 98.0326C35.7286 98.0326 36.106 98.0181 36.4979 98.0326C37.1801 98.0761 37.659 98.5406 37.659 99.1648C37.6736 99.8035 37.2091 100.312 36.5269 100.341C35.7286 100.37 34.9303 100.37 34.1464 100.341C33.4642 100.312 33.0143 99.8035 33.0143 99.1793C33.0288 98.5551 33.4933 98.0761 34.1755 98.0326C34.5674 98.0181 34.9448 98.0326 35.3367 98.0326Z" fill="url(#paint12_linear)"/>
<path d="M42.2892 98.0326C42.6956 98.0326 43.1165 98.0035 43.523 98.0326C44.1616 98.0761 44.6116 98.5552 44.6261 99.1503C44.6406 99.7745 44.1761 100.297 43.5084 100.326C42.7101 100.355 41.9118 100.355 41.128 100.326C40.4458 100.297 39.9813 99.789 39.9813 99.1648C39.9813 98.5406 40.4603 98.0616 41.128 98.0181C41.5199 98.0181 41.9118 98.0326 42.2892 98.0326Z" fill="url(#paint13_linear)"/>
<path d="M37.659 102.692C37.659 102.286 37.63 101.865 37.659 101.458C37.7026 100.82 38.1816 100.37 38.7767 100.355C39.4008 100.341 39.9234 100.805 39.9524 101.473C39.9814 102.286 39.9814 103.113 39.9524 103.926C39.9234 104.55 39.4008 105 38.8057 105C38.1961 105 37.7171 104.55 37.659 103.926C37.6445 103.505 37.6735 103.099 37.659 102.692Z" fill="url(#paint14_linear)"/>
<path d="M56.2815 52.7425C53.4076 52.699 50.7804 51.9586 48.3854 50.4199C47.6597 49.9554 47.442 49.3167 47.8048 48.7216C48.1677 48.0974 48.8499 47.9958 49.6337 48.4603C54.0607 51.1167 58.4878 51.1022 62.9148 48.4312C63.6406 47.9958 64.3228 48.0974 64.6857 48.6925C65.0485 49.2877 64.8453 49.9409 64.1341 50.4054C61.7246 51.9586 59.0974 52.699 56.2815 52.7425Z" fill="url(#paint15_linear)"/>
<defs>
<linearGradient id="paint0_linear" x1="135.5" y1="20.0002" x2="29.5" y2="133" gradientUnits="userSpaceOnUse">
<stop stop-color="#0AA61B" stop-opacity="0.32"/>
<stop offset="1" stop-color="#3BA0A5" stop-opacity="0"/>
</linearGradient>
<linearGradient id="paint1_linear" x1="87" y1="26.0002" x2="33" y2="96.0002" gradientUnits="userSpaceOnUse">
<stop stop-color="#0AA61B" stop-opacity="0.65"/>
<stop offset="1" stop-color="#3BA0A5" stop-opacity="0.65"/>
</linearGradient>
<linearGradient id="paint2_linear" x1="122.5" y1="10.5003" x2="75.5" y2="107.5" gradientUnits="userSpaceOnUse">
<stop stop-color="#0AA61B" stop-opacity="0.65"/>
<stop offset="1" stop-color="#3BA0A5" stop-opacity="0.65"/>
</linearGradient>
<linearGradient id="paint3_linear" x1="80.6235" y1="33.0002" x2="80.6235" y2="37.6457" gradientUnits="userSpaceOnUse">
<stop stop-color="#0AA61B" stop-opacity="0.65"/>
<stop offset="1" stop-color="#3BA0A5" stop-opacity="0.65"/>
</linearGradient>
<linearGradient id="paint4_linear" x1="77.1321" y1="37.624" x2="77.1321" y2="39.9748" gradientUnits="userSpaceOnUse">
<stop stop-color="#0AA61B" stop-opacity="0.65"/>
<stop offset="1" stop-color="#3BA0A5" stop-opacity="0.65"/>
</linearGradient>
<linearGradient id="paint5_linear" x1="84.1138" y1="37.6393" x2="84.1138" y2="39.9756" gradientUnits="userSpaceOnUse">
<stop stop-color="#0AA61B" stop-opacity="0.65"/>
<stop offset="1" stop-color="#3BA0A5" stop-opacity="0.65"/>
</linearGradient>
<linearGradient id="paint6_linear" x1="80.6302" y1="39.9679" x2="80.6302" y2="44.6137" gradientUnits="userSpaceOnUse">
<stop stop-color="#0AA61B" stop-opacity="0.65"/>
<stop offset="1" stop-color="#3BA0A5" stop-opacity="0.65"/>
</linearGradient>
<linearGradient id="paint7_linear" x1="79.4614" y1="79.4519" x2="79.4614" y2="84.0974" gradientUnits="userSpaceOnUse">
<stop stop-color="#0AA61B" stop-opacity="0.65"/>
<stop offset="1" stop-color="#3BA0A5" stop-opacity="0.65"/>
</linearGradient>
<linearGradient id="paint8_linear" x1="76.0001" y1="84.0842" x2="76.0001" y2="86.4269" gradientUnits="userSpaceOnUse">
<stop stop-color="#0AA61B" stop-opacity="0.65"/>
<stop offset="1" stop-color="#3BA0A5" stop-opacity="0.65"/>
</linearGradient>
<linearGradient id="paint9_linear" x1="82.9525" y1="84.0899" x2="82.9525" y2="86.4342" gradientUnits="userSpaceOnUse">
<stop stop-color="#0AA61B" stop-opacity="0.65"/>
<stop offset="1" stop-color="#3BA0A5" stop-opacity="0.65"/>
</linearGradient>
<linearGradient id="paint10_linear" x1="79.4747" y1="86.4342" x2="79.4747" y2="91.0661" gradientUnits="userSpaceOnUse">
<stop stop-color="#0AA61B" stop-opacity="0.65"/>
<stop offset="1" stop-color="#3BA0A5" stop-opacity="0.65"/>
</linearGradient>
<linearGradient id="paint11_linear" x1="38.823" y1="93.4015" x2="38.823" y2="98.0328" gradientUnits="userSpaceOnUse">
<stop stop-color="#0AA61B" stop-opacity="0.65"/>
<stop offset="1" stop-color="#3BA0A5" stop-opacity="0.65"/>
</linearGradient>
<linearGradient id="paint12_linear" x1="35.3368" y1="98.0261" x2="35.3368" y2="100.362" gradientUnits="userSpaceOnUse">
<stop stop-color="#0AA61B" stop-opacity="0.65"/>
<stop offset="1" stop-color="#3BA0A5" stop-opacity="0.65"/>
</linearGradient>
<linearGradient id="paint13_linear" x1="42.3039" y1="98.0181" x2="42.3039" y2="100.348" gradientUnits="userSpaceOnUse">
<stop stop-color="#0AA61B" stop-opacity="0.65"/>
<stop offset="1" stop-color="#3BA0A5" stop-opacity="0.65"/>
</linearGradient>
<linearGradient id="paint14_linear" x1="38.8101" y1="100.355" x2="38.8101" y2="105" gradientUnits="userSpaceOnUse">
<stop stop-color="#0AA61B" stop-opacity="0.65"/>
<stop offset="1" stop-color="#3BA0A5" stop-opacity="0.65"/>
</linearGradient>
<linearGradient id="paint15_linear" x1="56.2473" y1="48.1634" x2="56.2473" y2="52.7425" gradientUnits="userSpaceOnUse">
<stop stop-color="#0AA61B" stop-opacity="0.65"/>
<stop offset="1" stop-color="#3BA0A5" stop-opacity="0.65"/>
</linearGradient>
</defs>
</svg>
