<svg width="147" height="147" viewBox="0 0 147 147" fill="none" xmlns="http://www.w3.org/2000/svg">
<path d="M8 118.555C22.4123 135.936 44.1331 147 68.4297 147C111.823 147 147 111.707 147 68.171C147 50.0306 140.893 33.3214 130.628 20.0001L8 118.555Z" fill="url(#paint0_linear)"/>
<circle cx="69.5" cy="69.5001" r="69.5" fill="white"/>
<path d="M92.6038 49.607C92.6554 49.3269 92.6812 49.1869 92.707 49.0596C92.8232 48.4612 93.2103 48.1175 93.7523 48.1302C94.2944 48.1302 94.6815 48.4994 94.7718 49.085C94.888 49.8871 94.9267 50.6892 95.1074 51.4785C95.8172 54.5849 97.7916 56.5074 100.928 57.2712C101.663 57.4495 102.024 57.7677 101.999 58.3152C101.96 58.9772 101.521 59.2191 100.902 59.3592C97.469 60.0976 95.3268 62.6184 94.9138 66.3486C94.8751 66.7051 94.8235 67.0616 94.7847 67.418C94.6944 68.1055 94.3202 68.4875 93.7394 68.4875C93.1845 68.4875 92.8232 68.131 92.707 67.469C92.6941 67.3671 92.6683 67.2653 92.5264 67.1379C92.4618 67.3416 92.3973 67.5453 92.3328 67.749C91.3778 71.161 90.0486 74.433 88.087 77.3866C84.9898 82.0335 83.1831 87.1515 81.9959 92.5368C81.9184 92.8933 81.841 93.237 81.7249 93.5808C81.2216 95.1085 79.7246 96.0888 78.0986 95.9742C76.5371 95.8724 75.1691 94.752 74.911 93.1988C74.3561 89.876 73.8786 86.5404 73.3624 83.2048C73.0914 81.4224 72.8333 79.64 72.5623 77.8577C72.3429 76.4827 71.2976 75.5788 69.9555 75.6042C68.665 75.6297 67.6455 76.5463 67.439 77.8959C66.6905 82.8228 65.9549 87.7498 65.2064 92.6768C64.9225 94.5993 63.6191 95.8851 61.864 95.9742C60.0315 96.0633 58.612 94.9557 58.1345 93.046C57.9409 92.2822 57.7344 91.531 57.5538 90.7671C56.4827 85.8911 54.4566 81.4224 51.7981 77.1829C47.9653 71.0974 46.2361 64.3753 46.2619 57.2076C46.2748 55.0815 46.2232 52.9808 46.9071 50.9183C49.5269 43.0377 58.9862 39.5493 66.1614 43.878C68.7166 45.4184 71.246 45.4566 73.8141 43.9162C80.2795 40.0204 88.6936 42.312 92.2554 48.945C92.3328 49.1232 92.436 49.3015 92.6038 49.607ZM60.38 44.0562C53.8887 44.0307 49.0106 48.1175 48.4686 53.5028C48.2105 56.0363 48.3009 58.6335 48.5203 61.1797C49.0236 66.9852 50.998 72.3196 54.1856 77.2211C55.7213 79.5891 57.0376 82.0717 57.9022 84.7453C58.741 87.3679 59.4121 90.0415 60.1606 92.6896C60.3929 93.5298 60.9478 93.9882 61.7092 93.95C62.4577 93.9118 62.9997 93.3898 63.1287 92.5495C63.6578 89.0739 64.174 85.5855 64.7032 82.1099C64.9613 80.4166 65.1677 78.6979 65.5162 77.0301C65.9549 74.9167 67.9939 73.4908 70.2394 73.58C72.4849 73.6691 74.2529 75.3241 74.6142 77.6922C75.3627 82.6191 76.0983 87.5461 76.8468 92.4731C76.9758 93.3643 77.492 93.9118 78.2663 93.95C79.0277 93.9882 79.5955 93.5298 79.8278 92.6386C80.3182 90.7799 80.7828 88.8957 81.299 87.0369C82.4088 83.052 84.3575 79.4618 86.5384 75.9607C89.0291 71.9631 90.5261 67.5835 91.2488 62.9366C91.2875 62.7075 91.1842 62.3892 91.0423 62.1855C89.9067 60.645 88.3839 59.6774 86.4868 59.3082C85.9061 59.1936 85.5448 58.9136 85.4931 58.3152C85.4544 57.7805 85.8029 57.4113 86.4739 57.2458C86.603 57.2203 86.7191 57.1821 86.8482 57.1566C88.4484 56.7874 89.726 55.909 90.8229 54.7122C91.5198 53.9484 91.623 53.1972 91.3391 52.2169C89.3259 44.9856 81.1312 41.8282 74.6529 45.7367C71.5557 47.6082 68.3682 47.57 65.271 45.6985C63.4514 44.6291 61.5156 44.0689 60.38 44.0562ZM93.7394 53.9611C92.7845 55.8708 91.4553 57.2585 89.6356 58.3152C91.4811 59.3592 92.7845 60.7723 93.7523 62.6565C94.6815 60.7469 96.0236 59.3592 97.8432 58.3152C96.0107 57.2585 94.6944 55.8708 93.7394 53.9611Z" fill="url(#paint1_linear)"/>
<path d="M54.5082 85.802C54.4437 86.4131 54.0824 86.7059 53.4887 86.8459C50.3141 87.5716 48.3396 89.5068 47.617 92.6386C47.4363 93.4025 47.3976 94.1918 47.2943 94.9685C47.204 95.6177 46.8298 95.987 46.2748 95.9997C45.6941 96.0124 45.3199 95.6305 45.2166 94.943C45.0747 94.0009 45.0231 93.0333 44.765 92.1294C43.939 89.3031 42.0162 87.5589 39.1255 86.8714C38.3383 86.6804 37.964 86.3621 38.0027 85.7892C38.0543 85.1272 38.4931 84.898 39.1126 84.758C42.5582 84.0196 44.7133 81.4606 45.0876 77.7049C45.1263 77.3229 45.165 76.941 45.2295 76.5718C45.3199 75.9862 45.7328 75.6297 46.2619 75.6424C46.8039 75.6552 47.204 76.0116 47.2814 76.5973C47.3976 77.3739 47.4234 78.1632 47.6041 78.9271C48.3138 82.0844 50.2883 84.0578 53.4887 84.7835C54.0824 84.898 54.4437 85.1781 54.5082 85.802ZM46.1845 81.5752C45.2941 83.383 43.939 84.758 42.1581 85.8147C44.0294 86.8459 45.307 88.2845 46.2748 90.1306C47.204 88.2082 48.559 86.8332 50.2367 85.8529C49.4495 85.1909 48.6494 84.6434 47.9912 83.9432C47.3201 83.2557 46.8039 82.4154 46.1845 81.5752Z" fill="url(#paint2_linear)"/>
<path d="M51.3852 56.6219C52.0305 56.6091 52.4305 57.042 52.4305 57.7931C52.4563 60.4158 52.7919 62.9875 53.45 65.521C54.263 68.6402 55.5148 71.5683 57.2312 74.3183C57.3473 74.4965 57.4635 74.6748 57.5667 74.8657C57.8635 75.4132 57.7474 75.9479 57.2699 76.2662C56.7924 76.5845 56.1472 76.4571 55.8116 75.9224C55.1793 74.8912 54.547 73.8472 54.0049 72.7778C51.6304 68.0927 50.4303 63.1275 50.3786 57.895C50.3657 57.0802 50.7271 56.6346 51.3852 56.6219Z" fill="url(#paint3_linear)"/>
<path d="M69.9815 51.1857C67.4392 51.1348 65.1163 50.4855 62.9999 49.1359C62.3547 48.7285 62.1611 48.1811 62.4837 47.6464C62.8063 47.0989 63.4258 47.0098 64.1097 47.4172C68.02 49.747 71.9431 49.7343 75.8662 47.43C76.5631 47.0226 77.1567 47.0862 77.4922 47.6209C77.8278 48.1684 77.6342 48.7285 76.9502 49.1614C74.8209 50.5109 72.4722 51.1475 69.9815 51.1857Z" fill="url(#paint4_linear)"/>
<defs>
<linearGradient id="paint0_linear" x1="135.5" y1="20.0001" x2="29.5" y2="133" gradientUnits="userSpaceOnUse">
<stop stop-color="#0AA61B" stop-opacity="0.32"/>
<stop offset="1" stop-color="#3BA0A5" stop-opacity="0"/>
</linearGradient>
<linearGradient id="paint1_linear" x1="55.5" y1="96" x2="99" y2="28.5" gradientUnits="userSpaceOnUse">
<stop stop-color="#3BA0A5" stop-opacity="0.65"/>
<stop offset="1" stop-color="#0AA61B" stop-opacity="0.65"/>
</linearGradient>
<linearGradient id="paint2_linear" x1="38" y1="96" x2="63" y2="67.5" gradientUnits="userSpaceOnUse">
<stop stop-color="#3BA0A5" stop-opacity="0.65"/>
<stop offset="1" stop-color="#0AA61B" stop-opacity="0.65"/>
</linearGradient>
<linearGradient id="paint3_linear" x1="43.5" y1="95.4999" x2="101" y2="24.9999" gradientUnits="userSpaceOnUse">
<stop stop-color="#3BA0A5" stop-opacity="0.65"/>
<stop offset="1" stop-color="#0AA61B" stop-opacity="0.65"/>
</linearGradient>
<linearGradient id="paint4_linear" x1="69.9918" y1="47.1638" x2="69.9918" y2="51.1857" gradientUnits="userSpaceOnUse">
<stop stop-color="#3BA0A5" stop-opacity="0.65"/>
<stop offset="1" stop-color="#0AA61B" stop-opacity="0.65"/>
</linearGradient>
</defs>
</svg>
