<svg width="147" height="147" viewBox="0 0 147 147" fill="none" xmlns="http://www.w3.org/2000/svg">
<path d="M8 118.555C22.4123 135.936 44.1331 147 68.4297 147C111.823 147 147 111.707 147 68.171C147 50.0306 140.893 33.3214 130.628 20.0001L8 118.555Z" fill="url(#paint0_linear)"/>
<circle cx="69.5" cy="69.5001" r="69.5" fill="white"/>
<path d="M55.2581 109.496C54.9368 109.364 54.6155 109.269 54.3132 109.118C52.8202 108.324 51.913 107.152 51.913 105.395C51.913 102.787 51.913 100.179 51.913 97.5706C51.913 97.2872 51.913 97.0037 51.913 96.6446C50.0042 96.6446 48.1899 96.6446 46.3567 96.6446C44.4479 96.6446 42.8226 95.3784 42.388 93.5074C42.3124 93.1861 42.2935 92.8459 42.2935 92.5057C42.2935 85.4375 42.2935 78.3693 42.2935 71.3011C42.2935 63.9684 47.8119 58.3743 55.1447 58.2609C56.2409 58.242 57.337 58.2609 58.4331 58.2609C59.7939 58.2609 60.8144 57.6561 61.3247 56.3899C61.8349 55.0859 61.5326 53.9519 60.4931 52.9881C57.9607 50.6446 56.2598 47.8287 55.8629 44.3513C55.5416 41.5732 56.3354 38.984 57.6205 36.546C60.1718 31.7457 65.8604 28.9676 71.2088 29.5912C80.0535 30.6307 86.687 41.3464 80.4693 50.8525C79.8645 51.7786 79.1085 52.629 78.3337 53.4417C77.5021 54.3299 77.1998 55.3127 77.6344 56.4466C78.088 57.5805 78.9574 58.2231 80.2236 58.242C81.7355 58.2609 83.2474 58.2231 84.7593 58.2987C91.3739 58.6956 96.6656 64.2519 96.6845 70.8854C96.7223 78.1615 96.7034 85.4375 96.6845 92.7136C96.6845 94.9437 95.0025 96.6068 92.7725 96.6257C90.9204 96.6257 89.0683 96.6257 87.1406 96.6257C87.1217 97.0037 87.065 97.325 87.065 97.6462C87.065 100.141 87.065 102.654 87.065 105.149C87.065 107.436 86.2334 108.589 84.079 109.345C84.0034 109.364 83.9656 109.439 83.89 109.477C74.346 109.496 64.8021 109.496 55.2581 109.496ZM55.0502 88.5181C55.0502 93.942 55.0502 99.366 55.0502 104.79C55.0502 106.283 55.1069 106.34 56.581 106.34C65.2745 106.359 73.9491 106.359 82.6426 106.359C83.8522 106.359 83.9656 106.245 83.9656 104.998C83.9656 94.3389 83.9656 83.661 83.9656 73.002C83.9656 71.0366 83.9656 71.0366 85.9122 71.0366C87.1028 71.0366 87.0839 71.0366 87.0839 72.2272C87.0839 79.0119 87.0839 85.7966 87.065 92.5624C87.065 93.3373 87.2918 93.5452 88.0477 93.5263C89.5029 93.4696 90.9771 93.5263 92.4323 93.5074C93.3583 93.5074 93.6229 93.2617 93.6229 92.3734C93.6229 85.1919 93.6607 78.0292 93.604 70.8476C93.5662 66.1228 90.3723 62.3053 85.7043 61.5493C83.9278 61.2658 82.0757 61.3981 80.2425 61.3603C77.2753 61.3036 74.9886 59.5082 74.4594 56.6356C74.0436 54.3488 74.6673 52.3455 76.3871 50.7391C78.2392 49.0004 79.4676 46.8837 79.6755 44.3513C80.2992 36.7917 74.1192 31.689 67.5046 32.7852C61.627 33.749 59.019 38.606 59.2647 43.5386C59.397 46.279 60.7577 48.4902 62.6287 50.3989C64.065 51.8542 64.7643 53.5362 64.6698 55.615C64.5186 58.431 62.3452 60.9634 59.5293 61.2658C57.9985 61.417 56.4676 61.3603 54.9179 61.3981C49.5506 61.4926 45.4685 65.537 45.4307 70.9043C45.374 78.0859 45.4118 85.2485 45.4118 92.4301C45.4118 93.2995 45.6575 93.5452 46.5268 93.5452C48.0387 93.5452 49.5506 93.5074 51.0626 93.5641C51.7618 93.583 51.9508 93.3562 51.9508 92.6758C51.913 89.2929 51.9319 85.8911 51.9319 82.5082C51.9319 78.9552 51.9508 75.4211 51.9319 71.8681C51.9319 71.2633 52.1209 71.0177 52.7257 71.0744C53.217 71.1122 53.7273 71.1311 54.2187 71.0744C54.9368 70.9988 55.088 71.2822 55.088 71.9626C55.0313 77.4622 55.0502 82.9807 55.0502 88.5181Z" fill="url(#paint1_linear)"/>
<path d="M68.8465 96.6068C67.8826 96.1721 66.9944 95.7941 66.125 95.3973C66.4841 94.1877 66.8999 93.0349 67.1456 91.8632C67.7692 88.9149 67.5614 85.9478 67.07 82.9996C66.4841 79.56 65.7282 76.1393 65.9171 72.6241C66.0683 69.638 67.0511 66.9733 69.0922 64.7432C69.3001 64.5164 69.4701 64.2518 69.678 63.9495C70.4907 64.8188 71.1521 65.537 71.8703 66.3118C70.5096 67.5781 69.5079 69.2412 69.3568 71.2066C69.2056 72.9831 69.2434 74.7974 69.4134 76.5739C69.7725 80.3537 70.3773 84.1146 70.6986 87.8944C70.9065 90.5213 70.3395 93.0727 69.319 95.5106C69.1867 95.8697 69.0355 96.191 68.8465 96.6068Z" fill="url(#paint2_linear)"/>
<defs>
<linearGradient id="paint0_linear" x1="135.5" y1="20.0001" x2="29.5" y2="133" gradientUnits="userSpaceOnUse">
<stop stop-color="#0AA61B" stop-opacity="0.65"/>
<stop offset="1" stop-color="#3BA0A5" stop-opacity="0"/>
</linearGradient>
<linearGradient id="paint1_linear" x1="95.382" y1="28.6174" x2="47.3801" y2="109.496" gradientUnits="userSpaceOnUse">
<stop stop-color="#0AA61B" stop-opacity="0.65"/>
<stop offset="1" stop-color="#3BA0A5" stop-opacity="0.65"/>
</linearGradient>
<linearGradient id="paint2_linear" x1="68.8789" y1="63.9495" x2="68.8789" y2="96.6068" gradientUnits="userSpaceOnUse">
<stop stop-color="#0AA61B" stop-opacity="0.65"/>
<stop offset="1" stop-color="#3BA0A5" stop-opacity="0.65"/>
</linearGradient>
</defs>
</svg>
