<svg width="147" height="147" viewBox="0 0 147 147" fill="none" xmlns="http://www.w3.org/2000/svg">
<path d="M8 118.555C22.4123 135.936 44.1331 147 68.4297 147C111.823 147 147 111.707 147 68.1712C147 50.0307 140.893 33.3215 130.628 20.0002L8 118.555Z" fill="url(#paint0_linear)"/>
<circle cx="69.5" cy="69.5002" r="69.5" fill="white"/>
<path d="M98.5626 71.6155H85.852C89.4468 67.5483 90.9431 62.7022 90.8227 57.1291C90.6335 47.9562 81.0362 42.3312 73.1587 46.9869C71.0604 48.2158 69.2544 48.2677 67.1561 47.0042C61.8242 43.785 55.2023 45.2735 51.6076 50.3619C49.8705 52.8196 49.4405 55.6061 49.4749 58.5657C49.5437 63.5848 51.1604 67.929 54.4456 71.6155H42.4058C39.9635 71.6155 37.9683 73.6232 37.9683 76.0809V95.1884C37.9683 97.6461 39.9635 99.6537 42.4058 99.6537H98.5626C101.005 99.6537 103 97.6461 103 95.1884V76.0809C103 73.6059 101.005 71.6155 98.5626 71.6155ZM52.4504 55.4157C53.3448 49.5658 59.9322 46.3292 65.1609 49.0465C65.6769 49.3061 66.1757 49.5831 66.6745 49.86C68.9964 51.158 71.284 51.1061 73.6403 49.8773C74.9131 49.2023 76.2719 48.5273 77.665 48.2504C82.9625 47.2119 87.916 51.4696 88.0536 56.8695C88.1396 60.6426 87.6236 64.2425 85.5081 67.4444C84.8201 68.5002 84.0117 69.4867 83.1517 70.404C82.7905 70.8021 82.4293 71.2002 82.1025 71.6155C81.3973 72.4982 80.7782 73.4155 80.2278 74.3847C79.471 75.7347 78.869 77.1886 78.4218 78.7289C77.7338 81.0828 77.0286 83.4193 76.3407 85.7731C76.1515 86.3962 75.8763 86.95 75.1195 86.8288C74.3627 86.7077 74.2423 86.1019 74.2939 85.4442C74.2939 85.4096 74.2939 85.3923 74.2939 85.3577V78.5212C74.2939 77.1539 74.2939 75.7866 74.2939 74.402C74.2939 73.5194 74.2939 72.6367 74.2939 71.7713C74.2939 71.7194 74.2939 71.6848 74.2939 71.6328C74.2251 69.2617 72.4535 67.479 70.166 67.479C67.8785 67.479 66.1241 69.2617 66.0381 71.6328C66.0381 71.6848 66.0381 71.7194 66.0381 71.7713C66.0381 72.654 66.0381 73.5367 66.0381 74.402C66.0381 77.9155 66.0381 81.4116 66.0381 84.925C66.0381 85.0635 66.0381 85.2192 66.0381 85.3577C66.0725 86.0327 66.0037 86.6904 65.1953 86.8288C64.3697 86.9673 64.1461 86.3442 63.9569 85.7039C63.2862 83.4193 62.5638 81.1347 61.9102 78.8328C61.463 77.2578 60.861 75.7866 60.087 74.402C59.5366 73.4328 58.9175 72.4982 58.2123 71.6328C57.8511 71.1828 57.4555 70.7329 57.0255 70.3002C52.9664 66.1117 51.6076 61.0579 52.4504 55.4157ZM100.248 95.1884C100.248 96.123 99.4913 96.8845 98.5626 96.8845H42.423C41.4942 96.8845 40.7375 96.123 40.7375 95.1884V76.0809C40.7375 75.1463 41.4942 74.3847 42.423 74.3847H57.0771C58.0403 75.4924 58.6251 76.9809 58.9691 78.6078C59.0207 78.7635 59.0722 78.9366 59.1238 79.127C59.2614 79.577 59.399 80.0443 59.5366 80.4943C60.1558 82.5366 60.7578 84.5962 61.377 86.6385C61.9962 88.6808 63.6473 89.8231 65.5565 89.5461C67.4657 89.2692 68.7728 87.6769 68.7728 85.5654C68.7728 81.827 68.7728 78.0712 68.7728 74.3328C68.7728 73.554 68.7728 72.7578 68.79 71.979C68.79 71.8405 68.8072 71.7021 68.8244 71.5636C68.876 71.2002 68.9964 70.8367 69.2028 70.6463C69.5124 70.3521 70.1488 70.2136 70.5788 70.3002C71.198 70.404 71.4904 70.9232 71.5248 71.5636C71.5248 71.5982 71.5248 71.6328 71.5248 71.6675C71.5248 72.5501 71.5248 73.4501 71.5248 74.3328V76.8078C71.5248 79.7501 71.5248 82.6923 71.5248 85.6346C71.5248 87.7288 72.8491 89.3211 74.7755 89.5807C76.6675 89.8404 78.3358 88.6981 78.9206 86.725C79.7806 83.8693 80.6578 80.9962 81.5005 78.1232C81.5349 78.002 81.5693 77.8982 81.6209 77.8116C81.6553 77.7078 81.7069 77.6212 81.7585 77.552C82.3261 75.4924 83.5817 74.3847 83.5817 74.3847H98.5626C99.4913 74.3847 100.248 75.1463 100.248 76.0809V95.1884Z" fill="url(#paint1_linear)"/>
<path d="M93.5402 39.7697C93.5402 39.3024 93.523 38.8524 93.5402 38.3851C93.5746 37.5717 94.1422 37.0005 94.8817 37.0005C95.6213 36.9832 96.2405 37.537 96.2749 38.3505C96.3093 39.3024 96.3093 40.2543 96.2749 41.1889C96.2405 42.0024 95.6385 42.5389 94.8989 42.5389C94.1422 42.5216 93.5918 41.9678 93.5402 41.1543C93.523 40.687 93.5402 40.237 93.5402 39.7697Z" fill="url(#paint2_linear)"/>
<path d="M90.7883 42.5389C91.2699 42.5389 91.7687 42.5043 92.2503 42.5389C93.0415 42.5908 93.5747 43.2312 93.5403 43.9754C93.5059 44.685 92.9727 45.2562 92.2159 45.2908C91.2699 45.3254 90.3239 45.3254 89.3952 45.2908C88.604 45.2562 88.0536 44.6504 88.0536 43.8889C88.0536 43.1274 88.6212 42.5735 89.4296 42.5216C89.8767 42.5216 90.3239 42.5389 90.7883 42.5389Z" fill="url(#paint3_linear)"/>
<path d="M99.0441 45.3081C98.5797 45.3081 98.1325 45.3254 97.6681 45.3081C96.8425 45.2562 96.3093 44.7197 96.2921 43.9581C96.2749 43.2139 96.8253 42.5908 97.6337 42.5562C98.5797 42.5216 99.5257 42.5216 100.454 42.5562C101.263 42.5908 101.796 43.1966 101.796 43.9408C101.779 44.7024 101.228 45.2562 100.42 45.3081C99.9557 45.3254 99.5085 45.3081 99.0441 45.3081Z" fill="url(#paint4_linear)"/>
<path d="M93.5402 48.0947C93.5402 47.61 93.5058 47.1081 93.5402 46.6235C93.5918 45.862 94.1594 45.3255 94.8646 45.3081C95.6214 45.2908 96.2233 45.8274 96.2577 46.6408C96.2921 47.5927 96.2921 48.5447 96.2577 49.4793C96.2233 50.2927 95.6386 50.8466 94.8818 50.8466C94.1422 50.8466 93.5746 50.2927 93.523 49.4793C93.523 49.012 93.5402 48.5447 93.5402 48.0947Z" fill="url(#paint5_linear)"/>
<path d="M40.2558 106.923C40.2558 107.39 40.273 107.84 40.2558 108.308C40.2042 109.121 39.6539 109.675 38.8971 109.692C38.1403 109.709 37.5383 109.156 37.5211 108.342C37.4867 107.39 37.4867 106.438 37.5211 105.504C37.5555 104.708 38.1575 104.154 38.9143 104.171C39.6539 104.188 40.2214 104.742 40.2558 105.556C40.273 106.006 40.2558 106.456 40.2558 106.923Z" fill="url(#paint6_linear)"/>
<path d="M34.7175 109.692C35.1991 109.692 35.6979 109.658 36.1795 109.692C36.9879 109.744 37.5211 110.35 37.5039 111.094C37.4867 111.804 36.9535 112.392 36.1967 112.427C35.2335 112.461 34.2531 112.461 33.29 112.427C32.5332 112.409 32 111.804 32 111.077C32 110.35 32.516 109.761 33.2556 109.692C33.7372 109.658 34.2359 109.692 34.7175 109.692Z" fill="url(#paint7_linear)"/>
<path d="M43.0077 109.692C43.4721 109.692 43.9193 109.675 44.3837 109.692C45.1921 109.744 45.7425 110.298 45.7597 111.059C45.7769 111.821 45.2265 112.427 44.4181 112.444C43.4721 112.479 42.5261 112.479 41.5973 112.444C40.8062 112.409 40.2558 111.804 40.273 111.042C40.2902 110.281 40.8406 109.727 41.6489 109.692C42.0961 109.675 42.5433 109.692 43.0077 109.692Z" fill="url(#paint8_linear)"/>
<path d="M40.2558 115.265C40.2558 115.732 40.273 116.182 40.2558 116.65C40.2042 117.463 39.6367 118.017 38.8799 118C38.1231 118 37.5383 117.429 37.5211 116.632C37.4867 115.681 37.4867 114.729 37.5211 113.794C37.5555 113.033 38.1403 112.496 38.8455 112.479C39.6023 112.461 40.187 113.015 40.2558 113.811C40.273 114.279 40.2558 114.763 40.2558 115.265Z" fill="url(#paint9_linear)"/>
<path d="M70.2004 56.3849C67.3281 56.3503 64.8685 55.3638 62.581 53.8407C61.893 53.3734 61.7382 52.6119 62.151 51.9542C62.5638 51.2965 63.3377 51.1754 64.1117 51.5388C65.5221 52.1965 66.9153 52.9927 68.4116 53.3907C71.026 54.0657 73.4339 53.2523 75.6871 51.8677C76.8738 51.1407 77.665 51.1581 78.1466 51.9542C78.6454 52.7677 78.3358 53.4773 77.1318 54.2215C74.9819 55.5542 72.6771 56.3849 70.2004 56.3849Z" fill="url(#paint10_linear)"/>
<defs>
<linearGradient id="paint0_linear" x1="135.5" y1="20.0002" x2="29.5" y2="133" gradientUnits="userSpaceOnUse">
<stop stop-color="#0AA61B" stop-opacity="0.32"/>
<stop offset="1" stop-color="#3BA0A5" stop-opacity="0"/>
</linearGradient>
<linearGradient id="paint1_linear" x1="49.5" y1="100" x2="97" y2="37.0001" gradientUnits="userSpaceOnUse">
<stop stop-color="#3BA0A5" stop-opacity="0.65"/>
<stop offset="0.0001" stop-color="#3BA0A4" stop-opacity="0.65"/>
<stop offset="1" stop-color="#0AA61B" stop-opacity="0.65"/>
</linearGradient>
<linearGradient id="paint2_linear" x1="94.9166" y1="37.0001" x2="94.9166" y2="42.5389" gradientUnits="userSpaceOnUse">
<stop stop-color="#3BA0A5" stop-opacity="0.65"/>
<stop offset="0.0001" stop-color="#3BA0A4" stop-opacity="0.65"/>
<stop offset="1" stop-color="#0AA61B" stop-opacity="0.65"/>
</linearGradient>
<linearGradient id="paint3_linear" x1="90.7977" y1="42.5216" x2="90.7977" y2="45.3168" gradientUnits="userSpaceOnUse">
<stop stop-color="#3BA0A5" stop-opacity="0.65"/>
<stop offset="0.0001" stop-color="#3BA0A4" stop-opacity="0.65"/>
<stop offset="1" stop-color="#0AA61B" stop-opacity="0.65"/>
</linearGradient>
<linearGradient id="paint4_linear" x1="99.0439" y1="42.5303" x2="99.0439" y2="45.3158" gradientUnits="userSpaceOnUse">
<stop stop-color="#3BA0A5" stop-opacity="0.65"/>
<stop offset="0.0001" stop-color="#3BA0A4" stop-opacity="0.65"/>
<stop offset="1" stop-color="#0AA61B" stop-opacity="0.65"/>
</linearGradient>
<linearGradient id="paint5_linear" x1="94.9033" y1="45.3077" x2="94.9033" y2="50.8466" gradientUnits="userSpaceOnUse">
<stop stop-color="#3BA0A5" stop-opacity="0.65"/>
<stop offset="0.0001" stop-color="#3BA0A4" stop-opacity="0.65"/>
<stop offset="1" stop-color="#0AA61B" stop-opacity="0.65"/>
</linearGradient>
<linearGradient id="paint6_linear" x1="38.8794" y1="104.171" x2="38.8794" y2="109.693" gradientUnits="userSpaceOnUse">
<stop stop-color="#3BA0A5" stop-opacity="0.65"/>
<stop offset="0.0001" stop-color="#3BA0A4" stop-opacity="0.65"/>
<stop offset="1" stop-color="#0AA61B" stop-opacity="0.65"/>
</linearGradient>
<linearGradient id="paint7_linear" x1="34.7521" y1="109.677" x2="34.7521" y2="112.453" gradientUnits="userSpaceOnUse">
<stop stop-color="#3BA0A5" stop-opacity="0.65"/>
<stop offset="0.0001" stop-color="#3BA0A4" stop-opacity="0.65"/>
<stop offset="1" stop-color="#0AA61B" stop-opacity="0.65"/>
</linearGradient>
<linearGradient id="paint8_linear" x1="43.0163" y1="109.684" x2="43.0163" y2="112.47" gradientUnits="userSpaceOnUse">
<stop stop-color="#3BA0A5" stop-opacity="0.65"/>
<stop offset="0.0001" stop-color="#3BA0A4" stop-opacity="0.65"/>
<stop offset="1" stop-color="#0AA61B" stop-opacity="0.65"/>
</linearGradient>
<linearGradient id="paint9_linear" x1="38.8794" y1="112.478" x2="38.8794" y2="118" gradientUnits="userSpaceOnUse">
<stop stop-color="#3BA0A5" stop-opacity="0.65"/>
<stop offset="0.0001" stop-color="#3BA0A4" stop-opacity="0.65"/>
<stop offset="1" stop-color="#0AA61B" stop-opacity="0.65"/>
</linearGradient>
<linearGradient id="paint10_linear" x1="70.1496" y1="51.337" x2="70.1496" y2="56.3849" gradientUnits="userSpaceOnUse">
<stop stop-color="#3BA0A5" stop-opacity="0.65"/>
<stop offset="0.0001" stop-color="#3BA0A4" stop-opacity="0.65"/>
<stop offset="1" stop-color="#0AA61B" stop-opacity="0.65"/>
</linearGradient>
</defs>
</svg>
