<svg width="147" height="147" viewBox="0 0 147 147" fill="none" xmlns="http://www.w3.org/2000/svg">
<path d="M7.99994 118.555C22.4123 135.936 44.133 147 68.4296 147C111.823 147 147 111.707 147 68.1712C147 50.0307 140.893 33.3215 130.628 20.0002L7.99994 118.555Z" fill="url(#paint0_linear)"/>
<circle cx="69.4999" cy="69.5002" r="69.5" fill="white"/>
<path d="M54.4965 84.7963C53.7207 83.7268 53.0849 82.7738 52.3728 81.8872C49.1937 77.9101 47.1573 73.4232 46.376 68.3906C45.8994 65.3532 45.8332 62.2655 46.1793 59.2104C46.7445 54.2512 50.9516 50.1397 55.933 49.4609C58.7603 49.0744 61.3743 49.6479 63.7306 51.1814C66.7394 53.1402 69.618 53.1 72.6503 51.1814C79.6155 46.786 88.6806 50.6772 90.1047 58.7297C90.4967 60.9462 90.415 63.2886 90.2986 65.5605C90.0216 70.909 88.2997 75.8031 85.2438 80.211C84.2921 81.5755 83.2906 82.8957 82.307 84.2421C82.2045 84.3807 82.1269 84.5455 81.9801 84.7963H82.7365C84.698 84.7963 86.6609 84.7852 88.6224 84.7963C90.1462 84.8101 91.4304 85.7341 91.8085 87.2025C93.1772 92.5588 94.5223 97.9239 95.8438 103.298C96.0668 104.19 95.5349 104.744 94.5112 104.744C89.4088 104.744 84.3069 104.744 79.2054 104.744H42.0803C40.6798 104.744 40.2947 104.258 40.6341 102.897C41.927 97.7323 43.2199 92.5676 44.5129 87.4033C44.9187 85.7895 46.1655 84.8073 47.8278 84.7963C49.9708 84.7879 52.1221 84.7963 54.4965 84.7963ZM88.0005 59.2492C87.9173 58.9112 87.8619 58.6189 87.7747 58.3322C86.0292 52.237 79.1223 49.6867 73.6782 53.1028C72.8263 53.6375 71.9175 54.1431 70.9645 54.4396C68.0859 55.3331 65.3777 54.8704 62.8441 53.2178C57.1395 49.4983 49.8392 52.3548 48.483 58.9666C47.861 61.9976 48.1104 65.1324 48.5938 68.1994C49.3433 72.9578 51.3754 77.1385 54.3953 80.8773C57.0273 84.1383 58.7631 87.8549 59.7535 91.9248C60.1566 93.5581 60.5722 95.1857 60.9878 96.819C61.2108 97.7 61.7926 98.171 62.5338 98.0879C63.2749 98.0047 63.75 97.4105 63.7625 96.5114C63.7625 96.3272 63.7625 96.143 63.7625 95.9573C63.7625 91.5716 63.7542 87.1858 63.7722 82.7973C63.7684 82.2453 63.8487 81.696 64.0105 81.1682C64.6685 79.1291 66.7727 77.8436 68.827 78.1816C71.0282 78.5376 72.6157 80.3329 72.6226 82.541C72.6393 87.2038 72.6226 91.8666 72.6309 96.5322C72.6309 97.4202 73.1199 98.0131 73.8777 98.0879C74.6036 98.1571 75.1798 97.6986 75.3918 96.8633C75.6799 95.7246 75.9916 94.5901 76.2354 93.4403C77.2899 88.4078 79.546 83.705 82.8113 79.7331C83.835 78.4767 84.5387 76.9626 85.4183 75.5773C85.6871 75.1617 85.5568 74.9304 85.2618 74.5827C84.6786 73.8831 84.0151 73.5687 83.1022 73.6934C82.627 73.7585 82.1325 73.7128 81.6504 73.7044C80.7957 73.6878 80.3926 73.2889 80.387 72.4148C80.3773 71.053 80.351 69.6899 80.4064 68.3296C80.4203 67.957 80.5934 67.4514 80.8719 67.2519C82.404 66.1437 82.8861 64.685 82.6062 62.8786C82.5037 62.2248 82.8487 61.7995 83.4374 61.5141C84.9432 60.7869 86.442 60.0263 88.0005 59.2492ZM93.3226 102.507C93.2866 102.295 93.2714 102.134 93.2326 101.979C92.0801 97.3523 90.9257 92.725 89.7694 88.0973C89.5603 87.2662 89.2333 87.0182 88.3371 87.0154C86.5141 87.0154 84.6911 87.0154 82.8681 87.0154C82.1546 87.0154 81.2611 86.791 80.7777 87.1318C80.261 87.4961 80.049 88.3785 79.8468 89.0864C79.0544 91.8292 78.3078 94.5845 77.5653 97.3412C77.025 99.3471 75.4458 100.527 73.5674 100.29C71.689 100.054 70.4076 98.5104 70.4076 96.4588C70.4076 91.9124 70.4228 87.3645 70.3854 82.8181C70.369 82.2497 70.2001 81.6961 69.8964 81.2153C69.3894 80.4257 68.3726 80.1847 67.4944 80.4867C66.533 80.8136 65.9706 81.6171 65.9706 82.7211C65.9706 87.3604 65.9706 92.0024 65.9706 96.6389C65.9706 98.527 64.6546 100.04 62.8427 100.288C61.0307 100.536 59.3892 99.3983 58.8877 97.5642C58.6924 96.8536 58.5262 96.1346 58.3447 95.4212C57.6701 92.7643 57.1063 90.0769 55.9233 87.5751C55.7307 87.1692 55.5354 86.9961 55.0616 87.0016C52.7538 87.0293 50.4459 87.0127 48.1353 87.0127C47.1255 87.0127 46.8262 87.2482 46.5852 88.2123C45.6672 91.8777 44.7502 95.5436 43.8341 99.2099C43.557 100.293 43.3049 101.381 43.032 102.507H93.3226ZM88.0586 61.697C87.0349 62.2081 86.0223 62.693 85.0346 63.2208C84.8961 63.2956 84.7922 63.6197 84.8227 63.8026C85.1413 65.6976 84.4847 67.1632 82.9526 68.2853C82.77 68.4177 82.647 68.6168 82.6104 68.8394C82.573 69.7066 82.5938 70.5751 82.5938 71.4922C84.0871 71.5143 85.6413 71.1348 86.5071 72.8331C87.6929 70.3895 88.4825 64.5977 88.0642 61.697H88.0586Z" fill="url(#paint1_linear)"/>
<path d="M40.4858 63.2263C40.5325 60.3339 41.0418 57.4675 41.9944 54.736C42.2618 53.9686 42.8256 53.6181 43.442 53.8259C44.0861 54.0406 44.348 54.6391 44.0945 55.4023C41.993 61.7635 42.2548 68.0166 44.9256 74.1658C45.2747 74.972 45.0724 75.5829 44.4131 75.853C43.8035 76.1024 43.2328 75.8059 42.8893 75.0482C41.2851 71.4326 40.4858 67.6481 40.4858 63.2263Z" fill="url(#paint2_linear)"/>
<path d="M95.8964 63.2955C95.8798 67.6702 95.0902 71.4104 93.5152 74.983C93.1591 75.7892 92.5981 76.1023 91.9678 75.8446C91.2918 75.5676 91.1089 74.9484 91.4788 74.0909C94.1191 67.9856 94.3925 61.7764 92.2989 55.4632C92.0038 54.5711 92.3654 53.8494 93.1425 53.7801C93.8268 53.7192 94.1801 54.1112 94.3893 54.7332C95.3428 57.4893 95.8515 60.3795 95.8964 63.2955Z" fill="url(#paint3_linear)"/>
<path d="M68.1815 35.9727C71.2564 36.035 74.3041 36.5637 77.2203 37.5408C77.8104 37.743 78.19 38.0949 78.154 38.7404C78.1535 38.9877 78.0613 39.226 77.8952 39.4093C77.7291 39.5925 77.501 39.7076 77.2549 39.7323C76.9543 39.7738 76.6177 39.6769 76.3185 39.5771C73.6447 38.6853 70.8421 38.2406 68.0235 38.2611C65.4368 38.2723 62.8671 38.6811 60.4046 39.4732C60.2079 39.5369 60.0098 39.5979 59.8103 39.6575C59.0803 39.8763 58.5054 39.6353 58.2865 39.0175C58.0677 38.3996 58.3766 37.7707 59.0969 37.5796C60.8091 37.1266 62.5241 36.6639 64.2639 36.3439C65.5467 36.107 66.8724 36.0876 68.1815 35.9727Z" fill="url(#paint4_linear)"/>
<path d="M50.4792 44.938C50.4807 45.0813 50.4536 45.2235 50.3995 45.3563C50.3454 45.489 50.2654 45.6097 50.1641 45.7112C50.0629 45.8127 49.9425 45.893 49.8098 45.9474C49.6772 46.0018 49.5351 46.0293 49.3917 46.0282C49.2427 46.0297 49.0948 46.0012 48.9571 45.9443C48.8193 45.8873 48.6944 45.8032 48.5899 45.6969C48.4854 45.5906 48.4034 45.4643 48.3489 45.3255C48.2943 45.1868 48.2683 45.0385 48.2725 44.8895C48.292 44.6011 48.4197 44.3307 48.6301 44.1324C48.8404 43.9341 49.1179 43.8225 49.407 43.8201C49.6963 43.8295 49.9704 43.9517 50.1708 44.1606C50.3712 44.3695 50.4819 44.6485 50.4792 44.938Z" fill="url(#paint5_linear)"/>
<path d="M88.1112 44.9241C88.1095 45.213 87.995 45.4898 87.7921 45.6956C87.5892 45.9013 87.314 46.0196 87.0252 46.0254C86.8821 46.0323 86.7391 46.0103 86.6048 45.9608C86.4704 45.9112 86.3474 45.8351 86.243 45.737C86.1387 45.6389 86.0552 45.5207 85.9975 45.3896C85.9398 45.2586 85.9091 45.1172 85.9073 44.974C85.9011 44.8247 85.9252 44.6756 85.9781 44.5358C86.031 44.3961 86.1117 44.2684 86.2152 44.1606C86.3188 44.0529 86.443 43.9671 86.5805 43.9086C86.7181 43.85 86.866 43.8199 87.0155 43.8201C87.3032 43.8334 87.5755 43.9542 87.7784 44.1587C87.9813 44.3631 88.1001 44.6363 88.1112 44.9241Z" fill="url(#paint6_linear)"/>
<path d="M45.1709 51.55C44.877 51.5581 44.5919 51.449 44.3784 51.2469C44.1648 51.0448 44.0403 50.7662 44.0322 50.4722C44.0241 50.1783 44.1331 49.8932 44.3353 49.6797C44.5374 49.4661 44.816 49.3416 45.11 49.3335C45.2555 49.3295 45.4004 49.3542 45.5364 49.4062C45.6724 49.4582 45.7968 49.5365 45.9025 49.6366C46.0082 49.7367 46.0932 49.8566 46.1526 49.9895C46.212 50.1224 46.2446 50.2658 46.2486 50.4113C46.2526 50.5568 46.2279 50.7017 46.176 50.8377C46.124 50.9737 46.0457 51.0981 45.9456 51.2038C45.8455 51.3096 45.7256 51.3946 45.5927 51.454C45.4598 51.5133 45.3164 51.546 45.1709 51.55Z" fill="url(#paint7_linear)"/>
<path d="M90.1101 50.4153C90.1239 50.1264 90.2477 49.8537 90.456 49.653C90.6644 49.4524 90.9416 49.339 91.2308 49.3362C91.3763 49.3396 91.5198 49.3717 91.6529 49.4306C91.786 49.4895 91.9063 49.574 92.0067 49.6794C92.1072 49.7847 92.1859 49.9088 92.2384 50.0446C92.2909 50.1804 92.3162 50.3252 92.3127 50.4707C92.3092 50.6162 92.2772 50.7597 92.2183 50.8928C92.1594 51.0259 92.0749 51.1462 91.9695 51.2466C91.8642 51.3471 91.74 51.4258 91.6043 51.4783C91.4685 51.5308 91.3237 51.5561 91.1782 51.5526C90.8882 51.5363 90.6157 51.4091 90.4169 51.1974C90.2181 50.9857 90.1082 50.7057 90.1101 50.4153Z" fill="url(#paint8_linear)"/>
<path d="M54.8414 41.8198C54.5522 41.8007 54.2814 41.6713 54.0847 41.4584C53.8881 41.2456 53.7806 40.9653 53.7844 40.6756C53.791 40.53 53.8261 40.3872 53.8879 40.2553C53.9496 40.1233 54.0367 40.0048 54.1443 39.9065C54.2518 39.8083 54.3777 39.7321 54.5146 39.6825C54.6516 39.6328 54.797 39.6107 54.9425 39.6172C55.088 39.6238 55.2309 39.6589 55.3628 39.7207C55.4948 39.7824 55.6133 39.8695 55.7115 39.9771C55.8098 40.0846 55.8859 40.2104 55.9356 40.3474C55.9852 40.4844 56.0074 40.6298 56.0009 40.7753C55.9763 41.0641 55.8428 41.3327 55.6275 41.5266C55.4122 41.7206 55.1311 41.8254 54.8414 41.8198Z" fill="url(#paint9_linear)"/>
<path d="M82.5979 40.7241C82.5935 40.8696 82.5604 41.0129 82.5006 41.1456C82.4408 41.2783 82.3554 41.398 82.2493 41.4978C82.1433 41.5975 82.0186 41.6754 81.8825 41.727C81.7463 41.7786 81.6013 41.8028 81.4558 41.7984C81.3102 41.7939 81.167 41.7608 81.0343 41.701C80.9015 41.6412 80.7818 41.5558 80.6821 41.4498C80.5823 41.3437 80.5044 41.2191 80.4529 41.0829C80.4013 40.9467 80.377 40.8017 80.3815 40.6562C80.3905 40.3623 80.5159 40.084 80.7301 39.8825C80.9443 39.6811 81.2297 39.5729 81.5237 39.5819C81.8176 39.5909 82.0959 39.7163 82.2973 39.9305C82.4988 40.1447 82.6069 40.4302 82.5979 40.7241Z" fill="url(#paint10_linear)"/>
<path d="M54.3081 62.632H54.4466C56.8015 62.6501 56.5924 62.355 57.6327 64.4648C57.7283 64.6587 58.0912 64.8374 58.3253 64.8277C60.4032 64.7501 60.5085 65.2516 60.4475 67.0192C60.424 67.7118 60.4268 68.4044 60.4475 69.0971C60.4725 69.3634 60.41 69.6307 60.2695 69.8584C60.1291 70.0861 59.9183 70.2618 59.669 70.3591C59.5695 70.4175 59.4652 70.4676 59.3573 70.5087C58.3946 70.7622 58.1106 71.3703 58.2048 72.3455C58.299 73.3207 57.8308 73.7142 56.832 73.7142C55.8623 73.7142 54.8926 73.7252 53.923 73.7142C53.1043 73.7031 52.697 73.2917 52.6762 72.4674C52.6638 71.7983 52.7136 71.1251 52.6499 70.4616C52.6264 70.2067 52.4241 69.852 52.2066 69.7495C50.0456 68.73 50.306 68.6081 50.8213 66.5634C51.0665 65.6034 51.3006 64.6407 51.5472 63.6807C51.7564 62.8689 52.0667 62.632 52.9186 62.6251C53.3855 62.632 53.8468 62.632 54.3081 62.632ZM56.0687 71.47C55.6448 69.9684 56.4663 69.309 57.6396 68.8796C57.7723 68.8402 57.897 68.7779 58.0081 68.6954C58.11 68.6134 58.1797 68.4981 58.2048 68.3698C58.2284 67.9445 58.2145 67.5165 58.2145 67.0552C57.206 67.1064 56.2405 67.1937 55.9191 66.0398C55.6213 64.9745 54.93 64.6628 53.9133 64.8471C53.8024 64.8679 53.6875 64.8665 53.5475 64.8776C53.409 65.4206 53.2428 65.9456 53.132 66.4803C52.8466 67.8351 52.636 67.4791 53.898 68.0803C54.6516 68.4391 54.9744 68.9378 54.9037 69.762C54.8552 70.3244 54.894 70.8951 54.894 71.47H56.0687Z" fill="url(#paint11_linear)"/>
<path d="M68.1579 60.489C65.156 60.3906 62.222 60.0125 59.4196 58.8918C58.8226 58.6492 58.2427 58.3665 57.6839 58.0454C57.5539 57.9808 57.4386 57.89 57.3454 57.7787C57.2521 57.6675 57.1828 57.5381 57.1418 57.3989C57.1008 57.2596 57.0891 57.1133 57.1073 56.9693C57.1255 56.8252 57.1732 56.6865 57.2476 56.5618C57.5482 56.0174 58.1424 55.8359 58.7367 56.1213C64.3401 58.8087 70.0737 58.7796 75.8877 56.9247C76.4529 56.7446 76.982 56.4454 77.5195 56.1822C78.1983 55.8484 78.8078 55.9869 79.1264 56.5715C79.445 57.1561 79.2442 57.7476 78.5723 58.1271C76.6149 59.2243 74.4872 59.8102 72.2846 60.1136C70.9187 60.302 69.5349 60.3685 68.1579 60.489Z" fill="url(#paint12_linear)"/>
<path d="M65.9608 65.9566C66.1806 65.9536 66.3964 66.016 66.5806 66.136C66.7649 66.2559 66.9093 66.4279 66.9955 66.6301C67.0817 66.8323 67.1058 67.0556 67.0648 67.2716C67.0238 67.4875 66.9195 67.6864 66.7651 67.8429C66.6107 67.9995 66.4133 68.1065 66.1979 68.1505C65.9826 68.1945 65.759 68.1735 65.5556 68.0901C65.3522 68.0067 65.1782 67.8647 65.0557 67.6821C64.9333 67.4995 64.8679 67.2847 64.8679 67.0649C64.8707 66.7744 64.9862 66.4965 65.1902 66.2897C65.3941 66.0829 65.6705 65.9635 65.9608 65.9566Z" fill="url(#paint13_linear)"/>
<path d="M75.9487 73.7294C75.9461 73.9495 75.878 74.1638 75.7531 74.345C75.6283 74.5263 75.4523 74.6663 75.2476 74.7471C75.0428 74.828 74.8187 74.846 74.6037 74.799C74.3887 74.7519 74.1925 74.6419 74.0403 74.483C73.888 74.3241 73.7865 74.1234 73.7487 73.9065C73.711 73.6897 73.7386 73.4665 73.8282 73.2655C73.9177 73.0644 74.0651 72.8946 74.2516 72.7776C74.438 72.6606 74.6551 72.6018 74.8751 72.6087C75.1651 72.6177 75.44 72.7402 75.6408 72.9497C75.8415 73.1593 75.9521 73.4392 75.9487 73.7294Z" fill="url(#paint14_linear)"/>
<defs>
<linearGradient id="paint0_linear" x1="135.5" y1="20.0002" x2="29.4999" y2="133" gradientUnits="userSpaceOnUse">
<stop stop-color="#0AA61B" stop-opacity="0.32"/>
<stop offset="1" stop-color="#3BA0A5" stop-opacity="0"/>
</linearGradient>
<linearGradient id="paint1_linear" x1="44.1291" y1="104.744" x2="93.4373" y2="49.3442" gradientUnits="userSpaceOnUse">
<stop stop-color="#3BA0A4" stop-opacity="0.65"/>
<stop offset="1" stop-color="#0AA61B" stop-opacity="0.65"/>
</linearGradient>
<linearGradient id="paint2_linear" x1="34.2013" y1="79.1869" x2="53.726" y2="53.767" gradientUnits="userSpaceOnUse">
<stop stop-color="#3BA0A4" stop-opacity="0.65"/>
<stop offset="1" stop-color="#0AA61B" stop-opacity="0.65"/>
</linearGradient>
<linearGradient id="paint3_linear" x1="82.8476" y1="83.8199" x2="105.351" y2="45.1013" gradientUnits="userSpaceOnUse">
<stop stop-color="#3BA0A4" stop-opacity="0.65"/>
<stop offset="1" stop-color="#0AA61B" stop-opacity="0.65"/>
</linearGradient>
<linearGradient id="paint4_linear" x1="68.1869" y1="35.9727" x2="68.1869" y2="39.7421" gradientUnits="userSpaceOnUse">
<stop stop-color="#3BA0A4" stop-opacity="0.65"/>
<stop offset="1" stop-color="#0AA61B" stop-opacity="0.65"/>
</linearGradient>
<linearGradient id="paint5_linear" x1="49.3756" y1="43.8201" x2="49.3756" y2="46.0282" gradientUnits="userSpaceOnUse">
<stop stop-color="#3BA0A4" stop-opacity="0.65"/>
<stop offset="1" stop-color="#0AA61B" stop-opacity="0.65"/>
</linearGradient>
<linearGradient id="paint6_linear" x1="87.0088" y1="43.8201" x2="87.0088" y2="46.0266" gradientUnits="userSpaceOnUse">
<stop stop-color="#3BA0A4" stop-opacity="0.65"/>
<stop offset="1" stop-color="#0AA61B" stop-opacity="0.65"/>
</linearGradient>
<linearGradient id="paint7_linear" x1="45.1404" y1="49.3331" x2="45.1404" y2="51.5504" gradientUnits="userSpaceOnUse">
<stop stop-color="#3BA0A4" stop-opacity="0.65"/>
<stop offset="1" stop-color="#0AA61B" stop-opacity="0.65"/>
</linearGradient>
<linearGradient id="paint8_linear" x1="91.2116" y1="49.3362" x2="91.2116" y2="51.5529" gradientUnits="userSpaceOnUse">
<stop stop-color="#3BA0A4" stop-opacity="0.65"/>
<stop offset="1" stop-color="#0AA61B" stop-opacity="0.65"/>
</linearGradient>
<linearGradient id="paint9_linear" x1="54.8932" y1="39.6161" x2="54.8932" y2="41.82" gradientUnits="userSpaceOnUse">
<stop stop-color="#3BA0A4" stop-opacity="0.65"/>
<stop offset="1" stop-color="#0AA61B" stop-opacity="0.65"/>
</linearGradient>
<linearGradient id="paint10_linear" x1="81.4897" y1="39.5814" x2="81.4897" y2="41.7989" gradientUnits="userSpaceOnUse">
<stop stop-color="#3BA0A4" stop-opacity="0.65"/>
<stop offset="1" stop-color="#0AA61B" stop-opacity="0.65"/>
</linearGradient>
<linearGradient id="paint11_linear" x1="50.4631" y1="73.7191" x2="64.7478" y2="58.706" gradientUnits="userSpaceOnUse">
<stop stop-color="#3BA0A4" stop-opacity="0.65"/>
<stop offset="1" stop-color="#0AA61B" stop-opacity="0.65"/>
</linearGradient>
<linearGradient id="paint12_linear" x1="68.1867" y1="55.9873" x2="68.1867" y2="60.489" gradientUnits="userSpaceOnUse">
<stop stop-color="#3BA0A4" stop-opacity="0.65"/>
<stop offset="1" stop-color="#0AA61B" stop-opacity="0.65"/>
</linearGradient>
<linearGradient id="paint13_linear" x1="65.9761" y1="65.9565" x2="65.9761" y2="68.173" gradientUnits="userSpaceOnUse">
<stop stop-color="#3BA0A4" stop-opacity="0.65"/>
<stop offset="1" stop-color="#0AA61B" stop-opacity="0.65"/>
</linearGradient>
<linearGradient id="paint14_linear" x1="74.8405" y1="72.6082" x2="74.8405" y2="74.8246" gradientUnits="userSpaceOnUse">
<stop stop-color="#3BA0A4" stop-opacity="0.65"/>
<stop offset="1" stop-color="#0AA61B" stop-opacity="0.65"/>
</linearGradient>
</defs>
</svg>
