<svg width="147" height="147" viewBox="0 0 147 147" fill="none" xmlns="http://www.w3.org/2000/svg">
<path d="M8 118.555C22.4123 135.936 44.1331 147 68.4297 147C111.823 147 147 111.707 147 68.171C147 50.0306 140.893 33.3214 130.628 20.0001L8 118.555Z" fill="url(#paint0_linear)"/>
<circle cx="69.5" cy="69.5001" r="69.5" fill="white"/>
<path d="M97.735 62.8761H93.4106V65.7093H97.735V62.8761Z" fill="url(#paint1_linear)"/>
<path d="M106.717 68.3181V68.2808C106.717 68.2621 106.717 68.2249 106.717 68.1876C106.68 65.243 105.599 62.8761 104.91 61.6647C104.891 61.6275 104.872 61.6088 104.854 61.5716C103.325 59.037 101.164 57.1733 98.3308 56.111C97.809 55.9246 97.6413 55.6451 97.5481 55.1232C96.4671 49.5322 93.2803 45.5999 88.1738 43.2143L87.9315 43.1957C87.9315 43.1957 85.1919 41.798 81.3155 41.947H81.2968C78.3149 42.1148 75.5753 43.1398 73.0221 44.8917C72.8357 45.0221 72.3325 44.9289 72.1275 44.7426C70.6739 43.5312 69.0525 42.5061 67.1515 42.2639C65.6047 42.0589 64.0019 42.208 62.3432 42.208L62.0264 42.3011C62.0264 42.3011 60.2932 43.1025 58.4109 44.463C58.2059 44.668 57.9636 44.8544 57.7213 44.9848C57.535 45.078 57.3672 45.1526 57.1809 45.2085C56.9386 45.2644 56.7149 45.283 56.5099 45.2458C50.1548 43.6989 43.1846 48.004 41.5632 54.7878C41.3769 55.6078 41.0041 55.9992 40.24 56.316C33.1208 59.2047 30.1762 67.5167 33.9035 74.2073C34.3881 75.0646 34.4813 75.7728 34.2017 76.7046C31.6671 85.613 40.1469 94.4095 49.167 92.3036C49.6516 92.1917 50.2666 92.3036 50.7139 92.5272C53.8449 94.13 57.0877 94.5959 60.4423 93.4963C61.7841 93.049 63.0328 92.3595 64.3746 91.7631C64.5237 91.9495 64.7101 92.1731 64.9151 92.4154C69.947 98.3232 78.4454 98.6587 83.8128 93.0863C84.4278 92.4527 84.8192 92.434 85.6019 92.7881C90.4475 95.0432 95.0321 94.4841 99.0763 91.0549C103.12 87.6071 104.667 83.1902 103.195 77.9346C103.027 77.301 103.065 76.891 103.512 76.3505C105.543 73.9836 106.661 71.3186 106.717 68.3181ZM101.443 74.2818C98.8899 70.9272 95.5539 68.989 91.1929 68.7653V71.6727C94.4171 71.8218 97.2499 72.9772 99.0949 75.7728C100.455 77.8414 101.07 80.1897 100.772 82.687C100.176 87.5698 96.374 90.9244 91.547 91.1854C87.2792 91.4276 81.4645 87.9798 81.2968 81.5129H78.464C78.5013 85.0539 79.9177 87.9612 82.2846 90.5331C79.7127 93.5709 76.5072 94.6518 72.6866 93.9436C68.7729 93.2168 66.6297 90.4585 65.1201 86.843C61.9332 90.6822 58.1127 92.0799 53.2299 90.5331C55.1681 89.098 56.6777 87.4953 57.7027 85.4639C58.7091 83.4511 59.1563 81.3265 59.0445 79.0342C61.3741 78.4565 63.4987 77.5805 65.3251 75.8846C64.6728 75.1764 64.0578 74.4868 63.5919 73.9836C62.0823 74.6918 60.6846 75.3441 59.2868 75.9778C58.6904 76.2387 58.355 76.0523 58.1127 75.4C56.9945 72.5486 55.0935 70.3867 52.3167 68.784C51.8694 69.6413 51.4221 70.4613 51.0121 71.244C51.9439 72.0268 52.8571 72.6791 53.6212 73.4804C57.7027 77.7669 56.7149 85.2961 51.5898 88.2594C47.7879 90.4585 43.2033 90.2163 39.8673 87.3089C36.6991 84.5507 35.7672 79.8542 37.6123 75.9032C37.9104 75.2509 37.9291 74.8036 37.4259 74.2073C32.7481 68.5231 35.6554 60.1552 42.8305 58.5524C43.2219 58.4592 43.6133 58.3847 44.1165 58.2915C44.1165 54.6387 45.3279 51.545 48.6266 49.3272V52.3091H51.5712V48.1531C53.6026 47.6685 55.4663 47.8363 57.3113 48.5072C58.2804 48.8613 58.2991 48.8613 59.0632 48.0226V55.2723H62.045V50.054C62.045 48.7122 62.0264 47.389 62.0637 46.0471C62.0637 45.8049 62.2501 45.4135 62.4364 45.3389C64.9151 44.4071 68.5679 44.8544 70.413 47.2399C66.1638 52.8495 65.1387 58.7947 68.6238 65.1312C71.5498 70.4426 77.2154 73.2568 82.1541 73.1823V70.3495C77.3831 70.0886 73.5626 68.2249 71.1398 63.9943C69.3879 60.9193 69.0152 57.6019 69.9284 54.1914C71.4939 48.1904 78.1286 43.7175 84.316 45.1153C84.316 47.5381 84.5769 49.9795 84.2601 52.365C83.7755 56.0178 80.7936 58.3288 77.0849 58.366C76.6004 58.366 76.0972 58.366 75.5567 58.366V61.1802C80.6818 62.112 86.3474 57.956 87.186 52.6259C87.4097 51.2468 87.3351 49.849 87.3724 48.4513C87.391 47.6685 87.3724 46.9044 87.3724 45.9726C89.907 47.0349 91.7148 48.7122 93.0566 50.93C94.3985 53.1664 94.9016 55.6451 94.883 57.9747C96.5603 58.6829 98.1631 59.186 99.5981 60.0061C100.698 60.6211 101.63 61.4225 102.077 62.4661C102.487 63.2116 103.046 64.3671 103.437 65.8207C103.456 65.8207 103.475 65.8207 103.493 65.8207C103.642 66.3053 103.735 66.8271 103.773 67.3489C103.773 67.3862 103.773 67.4235 103.773 67.4608C103.978 69.9395 103.083 72.6977 101.443 74.2818Z" fill="url(#paint2_linear)"/>
<defs>
<linearGradient id="paint0_linear" x1="135.5" y1="20.0001" x2="29.5" y2="133" gradientUnits="userSpaceOnUse">
<stop stop-color="#0AA61B" stop-opacity="0.65"/>
<stop offset="1" stop-color="#3BA0A5" stop-opacity="0"/>
</linearGradient>
<linearGradient id="paint1_linear" x1="95.5728" y1="62.8761" x2="95.5728" y2="65.7093" gradientUnits="userSpaceOnUse">
<stop stop-color="#0AA61B" stop-opacity="0.65"/>
<stop offset="1" stop-color="#3BA0A5" stop-opacity="0.65"/>
</linearGradient>
<linearGradient id="paint2_linear" x1="69.5" y1="41.9359" x2="69.5" y2="97.0642" gradientUnits="userSpaceOnUse">
<stop stop-color="#0AA61B" stop-opacity="0.65"/>
<stop offset="1" stop-color="#3BA0A5" stop-opacity="0.65"/>
</linearGradient>
</defs>
</svg>
