<svg width="16" height="23" viewBox="0 0 16 23" fill="none" xmlns="http://www.w3.org/2000/svg">
<path d="M8.09792 5.09724C6.5003 5.09724 5.14844 6.46481 5.14844 8.08103C5.14844 9.69725 6.5003 11.0648 8.09792 11.0648C9.69553 11.0648 11.0474 9.69725 11.0474 8.08103C11.0474 6.34049 9.69553 5.09724 8.09792 5.09724ZM8.09792 10.0702C6.99187 10.0702 6.00871 9.07563 6.00871 7.95671C6.00871 6.83779 6.99187 5.84319 8.09792 5.84319C9.20396 5.84319 10.1871 6.83779 10.1871 7.95671C10.1871 9.19995 9.20396 10.0702 8.09792 10.0702Z" fill="#308589"/>
<path d="M13.628 2.36218C12.1533 0.870287 10.0641 1.52588e-05 7.97495 1.52588e-05C5.88576 1.52588e-05 3.79652 0.870287 2.3218 2.36218C-0.504759 5.22164 -0.750516 10.4433 1.58446 13.6757L7.97495 23L14.3654 13.6757C16.8232 10.4433 16.4546 5.22164 13.628 2.36218ZM13.7509 13.1784L8.09781 21.5081L2.44473 13.1784C0.232648 10.3189 0.601329 5.47029 3.0592 2.9838C4.41103 1.61623 6.25441 0.870282 8.09781 0.870282C9.94122 0.870282 11.7846 1.61623 13.1364 2.9838C15.5943 5.47029 15.8401 10.3189 13.7509 13.1784Z" fill="#308589"/>
</svg>
