<svg width="41" height="60" viewBox="0 0 41 60" fill="none" xmlns="http://www.w3.org/2000/svg">
<path d="M35.9638 37.829L27.2025 35.382C27.1605 35.37 27.1178 35.361 27.0746 35.355C26.1061 35.2201 25.3833 34.3743 25.381 33.373V30.647C28.3973 28.863 30.2573 25.5679 30.2619 22C32.4184 22 34.1667 20.2091 34.1667 18C34.1635 17.0346 33.8163 16.1038 33.1905 15.382V10.4C33.1825 7.94362 31.9245 5.66925 29.8714 4.4L28.2646 3.412C27.9783 1.4535 26.3379 0.00337503 24.4048 2.61662e-08H11.7143C11.1752 -0.000124974 10.738 0.447625 10.738 0.999875C10.738 1.1975 10.7951 1.39062 10.9021 1.555L12.2863 3.682L11.1286 4.4C9.07552 5.66925 7.81746 7.94362 7.80952 10.4V15.385C7.18427 16.1059 6.83724 17.0356 6.83333 18C6.83333 20.2091 8.58157 22 10.7381 22C10.7427 25.5679 12.6027 28.863 15.619 30.647V33.373C15.6167 34.3741 14.8939 35.2201 13.9254 35.355C13.8822 35.361 13.8395 35.37 13.7975 35.382L5.03617 37.829C2.06562 38.6639 0.00488095 41.4276 0 44.583V60H1.95238V51H6.83333V60H8.78571V46H6.83333V49H1.95238V44.583C1.95641 42.3294 3.42826 40.3556 5.54964 39.759L14.2377 37.331L19.5238 47.255V60H21.4762V47.255L26.7603 37.331L35.4484 39.759C37.5706 40.3549 39.0433 42.3289 39.0476 44.583V49H34.1667V46H32.2143V60H34.1667V51H39.0476V60H41V44.583C40.9951 41.4276 38.9344 38.6639 35.9638 37.829ZM28.3095 20H12.6905V15.162L14.3705 10H26.6295L28.3095 15.162V20ZM32.2143 18C32.2143 19.1046 31.3402 20 30.2619 20V16C31.3402 16 32.2143 16.8954 32.2143 18ZM10.7381 20C9.65977 20 8.78571 19.1046 8.78571 18C8.78571 16.8954 9.65977 16 10.7381 16V20ZM10.7381 14C10.4081 14.0042 10.08 14.052 9.7619 14.142V10.4C9.76618 8.64375 10.6646 7.01713 12.1321 6.109L14.1694 4.857C14.6315 4.57262 14.7811 3.95825 14.5035 3.48487C14.4956 3.47137 14.4874 3.45812 14.4789 3.445L13.5378 2H24.4048C25.4831 2 26.3571 2.89538 26.3571 4C26.3573 4.351 26.5369 4.67625 26.8306 4.857L28.8679 6.109C30.3354 7.01713 31.2338 8.64375 31.2381 10.4V14.145C30.9201 14.0539 30.592 14.0052 30.2619 14H29.9886L28.2588 8.684C28.126 8.27575 27.7533 8.00037 27.3333 8H13.6667C13.2467 8.00037 12.874 8.27575 12.7412 8.684L11.0114 14H10.7381ZM12.6905 22H28.3095C28.3095 26.4183 24.8131 30 20.5 30C16.1869 30 12.6905 26.4183 12.6905 22ZM20.5 44.912L16.0398 36.535C17.0012 35.7812 17.567 34.6133 17.5714 33.373V31.539C18.5189 31.8446 19.5066 32.0001 20.5 32C21.4934 32.0001 22.4811 31.8446 23.4286 31.539V33.373C23.433 34.6133 23.9988 35.7812 24.9602 36.535L20.5 44.912Z" fill="url(#paint0_linear)"/>
<path d="M16.5952 19C17.6735 19 18.5476 18.1046 18.5476 17C18.5476 15.8954 17.6735 15 16.5952 15C15.5169 15 14.6428 15.8954 14.6428 17C14.6428 18.1046 15.5169 19 16.5952 19Z" fill="url(#paint1_linear)"/>
<path d="M24.4048 19C25.483 19 26.3572 18.1046 26.3572 17C26.3572 15.8954 25.483 15 24.4048 15C23.3265 15 22.4524 15.8954 22.4524 17C22.4524 18.1046 23.3265 19 24.4048 19Z" fill="url(#paint2_linear)"/>
<path d="M30.2619 51H23.4285V53H30.2619V51Z" fill="url(#paint3_linear)"/>
<defs>
<linearGradient id="paint0_linear" x1="20.5" y1="0" x2="20.5" y2="60" gradientUnits="userSpaceOnUse">
<stop stop-color="#0AA61B" stop-opacity="0.65"/>
<stop offset="1" stop-color="#3BA0A5" stop-opacity="0.65"/>
</linearGradient>
<linearGradient id="paint1_linear" x1="20.5" y1="0" x2="20.5" y2="60" gradientUnits="userSpaceOnUse">
<stop stop-color="#0AA61B" stop-opacity="0.65"/>
<stop offset="1" stop-color="#3BA0A5" stop-opacity="0.65"/>
</linearGradient>
<linearGradient id="paint2_linear" x1="20.5" y1="0" x2="20.5" y2="60" gradientUnits="userSpaceOnUse">
<stop stop-color="#0AA61B" stop-opacity="0.65"/>
<stop offset="1" stop-color="#3BA0A5" stop-opacity="0.65"/>
</linearGradient>
<linearGradient id="paint3_linear" x1="20.5" y1="0" x2="20.5" y2="60" gradientUnits="userSpaceOnUse">
<stop stop-color="#0AA61B" stop-opacity="0.65"/>
<stop offset="1" stop-color="#3BA0A5" stop-opacity="0.65"/>
</linearGradient>
</defs>
</svg>
