<svg width="35" height="60" viewBox="0 0 35 60" fill="none" xmlns="http://www.w3.org/2000/svg">
<path d="M34 2H32V1C32 0.448 31.553 0 31 0H14C10.481 0 7.568 2.613 7.08 6H3.722C3.375 5.405 2.737 5 2 5C0.897 5 0 5.897 0 7C0 8.103 0.897 9 2 9C2.737 9 3.375 8.595 3.722 8H7.08C7.568 11.387 10.481 14 14 14H16.646C12.405 18.811 10 25.113 10 31.605V53C10 53.552 10.447 54 11 54V56C11 56.552 11.447 57 12 57H13.142C13.589 58.72 15.141 60 17 60C19.206 60 21 58.206 21 56C21 54.897 21.897 54 23 54C24.103 54 25 54.897 25 56V59C25 59.552 25.447 60 26 60C26.553 60 27 59.552 27 59V56C27 53.794 25.206 52 23 52C20.794 52 19 53.794 19 56C19 57.103 18.103 58 17 58C16.263 58 15.625 57.595 15.278 57H16C16.553 57 17 56.552 17 56V54C17.553 54 18 53.552 18 53V33.87C18 27.284 20.564 21.093 25.222 16.436L27.656 14H31C31.553 14 32 13.552 32 13V12H34C34.553 12 35 11.552 35 11V3C35 2.448 34.553 2 34 2ZM9 7C9 4.243 11.243 2 14 2V12C11.243 12 9 9.757 9 7ZM16 52H12V47.574L16 45.237V52ZM16 42.921L12 45.258V41.619L16 39.619V42.921ZM16 33.87V37.382L12 39.382V35.618L16.006 33.615C16.005 33.7 16 33.784 16 33.87ZM15 55H13V54H15V55ZM23.808 15.021C19.379 19.45 16.702 25.163 16.122 31.32L12 33.382V31.605C12 24.986 14.693 18.577 19.394 14H24.829L23.808 15.021ZM30 12H24V10C24 9.448 23.553 9 23 9C22.447 9 22 9.448 22 10V12H16V2H22V4C22 4.552 22.447 5 23 5C23.553 5 24 4.552 24 4V2H30V12ZM33 10H32V4H33V10Z" fill="url(#paint0_linear)"/>
<defs>
<linearGradient id="paint0_linear" x1="17.5" y1="0" x2="17.5" y2="60" gradientUnits="userSpaceOnUse">
<stop stop-color="#0AA61B" stop-opacity="0.65"/>
<stop offset="1" stop-color="#3BA0A5" stop-opacity="0.65"/>
</linearGradient>
</defs>
</svg>
