<svg width="53" height="60" viewBox="0 0 53 60" fill="none" xmlns="http://www.w3.org/2000/svg">
<path d="M30.0011 45.3339C27.8286 47.5064 24.2937 47.5064 22.1214 45.3339C21.6767 44.8893 20.9558 44.8893 20.5112 45.3339C20.0664 45.7785 20.0664 46.4994 20.5112 46.9441C22.0414 48.4742 24.0513 49.2393 26.0613 49.2393C28.0713 49.2393 30.0812 48.4742 31.6114 46.9441C32.0562 46.4994 32.0562 45.7785 31.6114 45.3339C31.1668 44.8893 30.4457 44.8893 30.0011 45.3339Z" fill="url(#paint0_linear)"/>
<path d="M51.8284 56.6301C49.1611 53.6765 49.0483 46.1504 49.364 38.3633C50.5258 37.2721 51.2537 35.7239 51.2537 34.0079C51.2537 32.5011 50.692 31.1238 49.7687 30.0713C50.1567 22.1288 50.3625 16.8174 47.8432 11.913C46.1244 8.56657 43.3433 5.77052 39.5773 3.60257C35.188 1.07596 30.1812 -0.164295 25.0975 0.0174587C20.6321 0.176582 16.4748 2.257 13.608 5.74761C9.90634 5.96779 6.53899 7.98231 4.72729 11.0959C4.57172 11.3632 4.42128 11.638 4.28009 11.9129C1.75931 16.8199 1.96497 22.1309 2.35296 30.0726C1.43025 31.1249 0.869187 32.5017 0.869187 34.0079C0.869187 35.7233 1.59649 37.2711 2.75775 38.3624C3.07343 46.15 2.96056 53.6766 0.293326 56.6302C0.0411195 56.9095 -0.0568028 57.2955 0.0317256 57.6613C0.120254 58.027 0.383847 58.3255 0.735825 58.4586C3.73796 59.5929 6.64545 59.9986 9.26956 59.9986C11.9956 59.9986 14.4157 59.5605 16.3157 59.0467C19.617 58.154 21.9455 56.9009 22.74 56.4385C23.8212 56.6167 24.9304 56.7111 26.0613 56.7111C27.192 56.7111 28.3009 56.6168 29.3819 56.4387C30.1765 56.9012 32.5048 58.154 35.8059 59.0467C38.3403 59.732 40.6899 60 42.8154 60C46.3561 60 49.2746 59.256 51.3857 58.4583C51.7379 58.3252 52.0013 58.0269 52.0898 57.661C52.1785 57.2953 52.0806 56.9095 51.8284 56.6301ZM46.4143 36.3582V30.7056C46.4146 30.6907 46.4146 30.6756 46.4143 30.6605V30.4873C47.8993 30.9688 48.9763 32.3646 48.9763 34.0078C48.9763 35.6641 47.8825 37.0697 46.3792 37.5403C46.4017 37.149 46.4143 36.7552 46.4143 36.3582ZM6.30571 12.9534C6.42883 12.7139 6.55991 12.4742 6.69555 12.2412C8.19527 9.66378 11.0636 8.04066 14.1812 8.00522C14.1847 8.00522 14.1933 8.00508 14.197 8.00494C14.5428 7.99768 14.8665 7.83372 15.077 7.55931C17.5343 4.35393 21.2162 2.43448 25.1786 2.29315C29.8355 2.12705 34.4217 3.26241 38.4409 5.5761C41.8205 7.52159 44.3023 10.0037 45.8173 12.9534C47.8338 16.8788 47.8936 21.1488 47.5629 28.4857C47.1969 28.3336 46.8126 28.2173 46.4143 28.14V26.9822C46.4143 26.3534 45.9045 25.8436 45.2757 25.8436C44.6469 25.8436 44.1371 26.3534 44.1371 26.9822V29.5682C28.4526 29.7357 19.9619 22.181 17.6963 19.8174C17.4297 19.5392 17.0406 19.4149 16.6625 19.4864C16.2841 19.558 15.9675 19.8161 15.8211 20.1723C14.1665 24.1971 11.2757 26.3028 6.72373 26.799C6.14602 26.8619 5.7085 27.3498 5.7085 27.9309V28.1399C5.30984 28.2172 4.92513 28.3336 4.55877 28.486C4.228 21.1508 4.28821 16.881 6.30571 12.9534ZM5.74351 37.5404C4.24024 37.0699 3.14644 35.6642 3.14644 34.0079C3.14644 32.3646 4.22344 30.9688 5.70836 30.4875V36.3582C5.70836 36.7552 5.72103 37.149 5.74351 37.5404ZM2.96199 56.8094C4.99245 53.3437 5.34457 47.5824 5.08638 39.7207C5.38869 39.8141 5.70153 39.883 6.02205 39.9274C7.3171 47.2185 12.5077 53.1789 19.3575 55.5754C16.0631 56.993 9.82763 58.8715 2.96199 56.8094ZM26.0613 54.4338C16.0944 54.4338 7.98562 46.3251 7.98562 36.3581L7.98576 28.9247C12.256 28.222 15.2963 26.1198 17.2236 22.5328C18.8641 24.0294 21.5165 26.082 25.2546 27.8808C30.8752 30.5857 37.2226 31.9197 44.1371 31.8458V36.3581C44.1371 46.3252 36.0283 54.4338 26.0613 54.4338ZM36.4753 56.8685C35.0152 56.4782 33.7555 56.0067 32.761 55.5769C39.613 53.1815 44.8055 47.22 46.1008 39.9274C46.421 39.883 46.7334 39.8142 47.0355 39.721C46.7771 47.5837 47.1291 53.345 49.1606 56.8106C45.1394 58.0253 40.8795 58.0458 36.4753 56.8685Z" fill="url(#paint1_linear)"/>
<path d="M12.4519 32.9837C12.0071 33.4283 12.0071 34.1492 12.4519 34.5939C12.8965 35.0385 13.6174 35.0385 14.062 34.5939C14.7919 33.8643 15.9792 33.8642 16.7091 34.5939C16.9314 34.8162 17.2227 34.9273 17.5142 34.9273C17.8057 34.9273 18.097 34.8162 18.3194 34.5939C18.7641 34.1492 18.7641 33.4283 18.3194 32.9837C16.7018 31.366 14.0694 31.3659 12.4519 32.9837Z" fill="url(#paint2_linear)"/>
<path d="M39.6709 34.5939C40.1157 34.1493 40.1157 33.4284 39.6709 32.9838C38.0532 31.3661 35.421 31.3661 33.8034 32.9838C33.3587 33.4284 33.3587 34.1493 33.8034 34.5939C34.2481 35.0386 34.969 35.0386 35.4136 34.5939C36.1435 33.8642 37.3309 33.8643 38.0606 34.5939C38.2829 34.8162 38.5743 34.9274 38.8658 34.9274C39.1573 34.9274 39.4486 34.8162 39.6709 34.5939Z" fill="url(#paint3_linear)"/>
<defs>
<linearGradient id="paint0_linear" x1="26.0608" y1="0" x2="26.0608" y2="60" gradientUnits="userSpaceOnUse">
<stop stop-color="#0AA61B" stop-opacity="0.65"/>
<stop offset="1" stop-color="#3BA0A5" stop-opacity="0.65"/>
</linearGradient>
<linearGradient id="paint1_linear" x1="26.0608" y1="0" x2="26.0608" y2="60" gradientUnits="userSpaceOnUse">
<stop stop-color="#0AA61B" stop-opacity="0.65"/>
<stop offset="1" stop-color="#3BA0A5" stop-opacity="0.65"/>
</linearGradient>
<linearGradient id="paint2_linear" x1="26.0608" y1="0" x2="26.0608" y2="60" gradientUnits="userSpaceOnUse">
<stop stop-color="#0AA61B" stop-opacity="0.65"/>
<stop offset="1" stop-color="#3BA0A5" stop-opacity="0.65"/>
</linearGradient>
<linearGradient id="paint3_linear" x1="26.0608" y1="0" x2="26.0608" y2="60" gradientUnits="userSpaceOnUse">
<stop stop-color="#0AA61B" stop-opacity="0.65"/>
<stop offset="1" stop-color="#3BA0A5" stop-opacity="0.65"/>
</linearGradient>
</defs>
</svg>
