<svg width="60" height="60" viewBox="0 0 60 60" fill="none" xmlns="http://www.w3.org/2000/svg">
<path d="M47.1029 31.1682C47.7497 31.1682 48.2747 30.6432 48.2747 29.9964C48.2747 29.3495 47.7497 28.8245 47.1029 28.8245C46.4556 28.8245 45.9305 29.3495 45.9305 29.9964C45.9305 30.6432 46.4556 31.1682 47.1029 31.1682Z" fill="url(#paint0_linear)"/>
<path d="M59.2771 29.8686C60.465 27.9383 60.1217 24.7769 58.5575 23.2357L56.276 20.988C55.7643 20.4836 55.5001 19.7837 55.5509 19.0673L55.7794 15.8565C55.9405 13.6039 54.542 11.5755 52.3796 10.9237L49.3588 10.0132C48.6666 9.80443 48.1045 9.30363 47.817 8.64034L46.5527 5.72347C45.6632 3.67132 43.4248 2.49441 41.2275 2.92379L38.1619 3.52621C37.3576 3.68413 35.9367 3.42367 35.4474 3.02862L33.0061 1.05749C31.2606 -0.35242 28.7265 -0.35242 26.9819 1.05703L24.5393 3.02816C24.0504 3.42321 22.63 3.68413 21.8257 3.52621L18.7591 2.92379C16.5637 2.49212 14.3252 3.66949 13.4354 5.72255L12.171 8.64125C11.8831 9.30409 11.3209 9.80443 10.6279 10.0132L7.60803 10.9237C5.4451 11.5755 4.04709 13.6039 4.20822 15.8561L4.43665 19.0673C4.48746 19.7837 4.22333 20.4836 3.71201 20.988L1.43006 23.2361C-0.120385 24.7632 -0.471031 27.8815 0.67887 29.8165L2.34375 33.2158C2.36023 33.2497 2.37854 33.2822 2.39823 33.3142C2.77405 33.9253 2.86377 34.6669 2.64405 35.349L1.65711 38.4192C0.96726 40.562 1.83793 42.8618 3.77426 44.0112L6.50848 45.6345C7.12784 46.002 7.5531 46.6205 7.67441 47.3305L8.21228 50.4881C8.59359 52.7215 10.4402 54.3599 12.7025 54.472L15.8345 54.6281C16.5587 54.6638 17.2256 55.0154 17.6642 55.5931L19.5744 58.1058C20.4835 59.3014 22.2432 60 23.9392 60C24.7096 60 25.4672 59.8558 26.125 59.5486L28.9567 58.2266C29.6154 57.9185 30.3717 57.9185 31.0309 58.2266L33.8621 59.5482C35.9687 60.5324 39.0911 59.8448 40.4132 58.1053L42.322 55.5931C42.761 55.0154 43.428 54.6634 44.1522 54.6277L47.2846 54.472C49.5474 54.3594 51.3935 52.7211 51.7748 50.4877L52.3127 47.3323C52.4345 46.6214 52.8593 46.003 53.4791 45.6354L56.2129 44.0112C58.1492 42.8618 59.0199 40.562 58.3305 38.4197L57.3431 35.3476C57.1073 34.617 57.2364 33.1847 57.5894 32.6111L59.2771 29.8686ZM55.593 31.3829C54.8116 32.6532 54.7137 34.8308 55.1119 36.0663L56.0989 39.1374C56.4518 40.2324 56.0064 41.4079 55.0163 41.9957L52.2825 43.6198C51.0713 44.3385 50.2404 45.5475 50.0024 46.9377L49.4645 50.0935C49.2695 51.2357 48.3256 52.0734 47.1684 52.131L44.0364 52.2867C42.62 52.3567 41.315 53.0447 40.4557 54.1745L38.5469 56.6872C37.8886 57.5532 35.9559 57.9391 34.8541 57.4246L32.0224 56.1026C30.7333 55.5006 29.2543 55.5006 27.9652 56.1026L25.1335 57.4246C24.0317 57.9391 22.099 57.5532 21.4407 56.6872L19.5305 54.1749C18.6726 53.0447 17.3675 52.3567 15.9503 52.2867L12.8187 52.131C11.662 52.0734 10.7181 51.2357 10.5231 50.094L9.98474 46.9354C9.74716 45.5466 8.91632 44.3376 7.70508 43.6185L4.97086 41.9952C3.98117 41.4079 3.53577 40.2324 3.8887 39.1365L4.87518 36.0668C5.29907 34.7516 5.13474 33.3229 4.42566 32.1378L2.76123 28.7389C2.74475 28.705 2.72644 28.6721 2.70676 28.64C2.09107 27.6398 2.28379 25.6851 3.0748 24.9056L5.35721 22.6575C6.35742 21.671 6.87424 20.3019 6.7749 18.9011L6.54648 15.6894C6.46408 14.5377 7.17865 13.5013 8.2846 13.1681L11.3049 12.2571C12.659 11.8488 13.7585 10.871 14.3216 9.57326L15.5859 6.65456C16.0409 5.60537 17.1854 5.00341 18.3073 5.22405L21.3743 5.82647C22.7028 6.08693 24.8543 5.78801 26.0124 4.85143L28.4541 2.88076C29.3463 2.16024 30.6413 2.1607 31.5335 2.88076L33.9747 4.85235C35.1347 5.78847 37.2853 6.08693 38.6137 5.82647L41.6784 5.22405C42.8027 5.00478 43.9471 5.60674 44.4017 6.65548L45.6665 9.5728C46.2286 10.8701 47.3277 11.8488 48.6817 12.2576L51.703 13.1681C52.8089 13.5013 53.5235 14.5382 53.4411 15.6899L53.2127 18.9011C53.1133 20.3023 53.6297 21.6715 54.6304 22.658L56.9123 24.9056C57.7038 25.6851 57.8965 27.6398 57.2808 28.64L55.593 31.3829Z" fill="url(#paint1_linear)"/>
<path d="M29.9917 7.02534C17.7415 7.02534 7.02026 18.3985 7.02026 30.6995C7.02026 43.1712 17.9132 52.9674 29.9917 52.9674C42.2428 52.9674 52.9627 42.2868 52.9627 29.9964C52.9627 17.7452 42.2822 7.02534 29.9917 7.02534ZM29.9917 50.6236C18.8104 50.6236 9.36447 41.4995 9.36447 30.6995C9.36447 19.536 19.1958 9.36909 29.9917 9.36909C40.9799 9.36909 50.6185 19.0082 50.6185 29.9964C50.6185 40.9845 40.9799 50.6236 29.9917 50.6236Z" fill="url(#paint2_linear)"/>
<path d="M29.9918 45.9357C29.3445 45.9357 28.8195 46.4603 28.8195 47.1075C28.8195 47.7548 29.3445 48.2794 29.9918 48.2794C37.8795 48.2794 45.385 42.3299 47.5589 34.9695C47.742 34.3488 47.3872 33.6969 46.7665 33.5133C46.1453 33.3298 45.4939 33.685 45.3108 34.3057C43.3846 40.827 36.6559 45.9357 29.9918 45.9357Z" fill="url(#paint3_linear)"/>
<path d="M25.3033 28.8245C27.2424 28.8245 28.8194 27.247 28.8194 25.3084C28.8194 23.3698 27.2424 21.7923 25.3033 21.7923C23.3647 21.7923 21.7877 23.3698 21.7877 25.3084C21.7877 27.247 23.3647 28.8245 25.3033 28.8245ZM25.3033 24.1365C25.9497 24.1365 26.4757 24.662 26.4757 25.3084C26.4757 25.9548 25.9497 26.4803 25.3033 26.4803C24.6574 26.4803 24.1315 25.9548 24.1315 25.3084C24.1315 24.662 24.6574 24.1365 25.3033 24.1365Z" fill="url(#paint4_linear)"/>
<path d="M34.6797 31.1682C32.7406 31.1682 31.1636 32.7457 31.1636 34.6843C31.1636 36.6229 32.7406 38.2004 34.6797 38.2004C36.6183 38.2004 38.1953 36.6229 38.1953 34.6843C38.1953 32.7457 36.6183 31.1682 34.6797 31.1682ZM34.6797 35.8562C34.0333 35.8562 33.5073 35.3307 33.5073 34.6843C33.5073 34.0379 34.0333 33.5124 34.6797 33.5124C35.3256 33.5124 35.8515 34.0379 35.8515 34.6843C35.8515 35.3307 35.3256 35.8562 34.6797 35.8562Z" fill="url(#paint5_linear)"/>
<path d="M37.8524 22.1357C37.3947 21.6779 36.6526 21.6779 36.1949 22.1357L22.1306 36.1995C21.6728 36.6573 21.6728 37.3993 22.1306 37.8571C22.5888 38.3148 23.3304 38.3148 23.7881 37.8571L37.8524 23.7932C38.3097 23.3354 38.3097 22.5934 37.8524 22.1357Z" fill="url(#paint6_linear)"/>
<defs>
<linearGradient id="paint0_linear" x1="29.9938" y1="0" x2="29.9938" y2="60" gradientUnits="userSpaceOnUse">
<stop stop-color="#0AA61B" stop-opacity="0.65"/>
<stop offset="1" stop-color="#3BA0A5" stop-opacity="0.65"/>
</linearGradient>
<linearGradient id="paint1_linear" x1="29.9938" y1="0" x2="29.9938" y2="60" gradientUnits="userSpaceOnUse">
<stop stop-color="#0AA61B" stop-opacity="0.65"/>
<stop offset="1" stop-color="#3BA0A5" stop-opacity="0.65"/>
</linearGradient>
<linearGradient id="paint2_linear" x1="29.9938" y1="0" x2="29.9938" y2="60" gradientUnits="userSpaceOnUse">
<stop stop-color="#0AA61B" stop-opacity="0.65"/>
<stop offset="1" stop-color="#3BA0A5" stop-opacity="0.65"/>
</linearGradient>
<linearGradient id="paint3_linear" x1="29.9938" y1="0" x2="29.9938" y2="60" gradientUnits="userSpaceOnUse">
<stop stop-color="#0AA61B" stop-opacity="0.65"/>
<stop offset="1" stop-color="#3BA0A5" stop-opacity="0.65"/>
</linearGradient>
<linearGradient id="paint4_linear" x1="29.9938" y1="0" x2="29.9938" y2="60" gradientUnits="userSpaceOnUse">
<stop stop-color="#0AA61B" stop-opacity="0.65"/>
<stop offset="1" stop-color="#3BA0A5" stop-opacity="0.65"/>
</linearGradient>
<linearGradient id="paint5_linear" x1="29.9938" y1="0" x2="29.9938" y2="60" gradientUnits="userSpaceOnUse">
<stop stop-color="#0AA61B" stop-opacity="0.65"/>
<stop offset="1" stop-color="#3BA0A5" stop-opacity="0.65"/>
</linearGradient>
<linearGradient id="paint6_linear" x1="29.9938" y1="0" x2="29.9938" y2="60" gradientUnits="userSpaceOnUse">
<stop stop-color="#0AA61B" stop-opacity="0.65"/>
<stop offset="1" stop-color="#3BA0A5" stop-opacity="0.65"/>
</linearGradient>
</defs>
</svg>
