<svg width="23" height="23" viewBox="0 0 23 23" fill="none" xmlns="http://www.w3.org/2000/svg">
<mask id="path-1-outside-1" maskUnits="userSpaceOnUse" x="0" y="1.52588e-05" width="23" height="23" fill="black">
<rect fill="white" y="1.52588e-05" width="23" height="23"/>
<path d="M15.9084 1.00002H7.09161C6.24178 1.00002 5.54981 1.69197 5.54981 2.54177V20.4579C5.54981 21.3081 6.24178 22 7.09161 22H15.908C16.7582 22 17.4502 21.3081 17.4502 20.4583V2.54177C17.4502 1.69197 16.7582 1.00002 15.9084 1.00002ZM6.24983 3.80002H16.7502V17.1H6.24983V3.80002ZM7.09161 1.70002H15.908C16.3725 1.70002 16.7502 2.07767 16.7502 2.54177V3.10002H6.24983V2.54177C6.24983 2.07767 6.62749 1.70002 7.09161 1.70002ZM15.9084 21.3H7.09161C6.62749 21.3 6.24983 20.9224 6.24983 20.4583V17.8H16.7502V20.4583C16.7502 20.9224 16.3725 21.3 15.9084 21.3Z"/>
<path d="M11.5 18.1501C10.7279 18.1501 10.0999 18.778 10.0999 19.5501C10.0999 20.3222 10.7279 20.9501 11.5 20.9501C12.2721 20.9501 12.9 20.3222 12.9 19.5501C12.9 18.778 12.2721 18.1501 11.5 18.1501ZM11.5 20.2501C11.1139 20.2501 10.8 19.9361 10.8 19.5501C10.8 19.164 11.1139 18.8501 11.5 18.8501C11.886 18.8501 12.2 19.164 12.2 19.5501C12.2 19.9361 11.886 20.2501 11.5 20.2501Z"/>
<path d="M10.1 2.75002H11.5C11.6936 2.75002 11.85 2.59357 11.85 2.40002C11.85 2.20647 11.6936 2.05002 11.5 2.05002H10.1C9.9064 2.05002 9.74994 2.20647 9.74994 2.40002C9.74994 2.59357 9.9064 2.75002 10.1 2.75002Z"/>
<path d="M12.55 2.75002H12.9C13.0936 2.75002 13.25 2.59357 13.25 2.40002C13.25 2.20647 13.0936 2.05002 12.9 2.05002H12.55C12.3565 2.05002 12.2 2.20647 12.2 2.40002C12.2 2.59357 12.3565 2.75002 12.55 2.75002Z"/>
<path d="M20.8145 2.59921C20.6777 2.46236 20.4565 2.46236 20.3196 2.59921C20.1827 2.73606 20.1827 2.95726 20.3196 3.09411C21.6272 4.40171 21.6272 6.52936 20.3196 7.83731C20.1827 7.97416 20.1827 8.19536 20.3196 8.33221C20.3878 8.40046 20.4775 8.43476 20.5671 8.43476C20.6567 8.43476 20.7463 8.40046 20.8145 8.33221C22.3952 6.75196 22.3952 4.17981 20.8145 2.59921Z"/>
<path d="M19.3406 3.39581C19.2037 3.25896 18.9825 3.25896 18.8457 3.39581C18.7088 3.53266 18.7088 3.75386 18.8457 3.89071C19.2786 4.32366 19.517 4.90046 19.517 5.51436C19.517 6.12826 19.2786 6.70471 18.8457 7.13766C18.7088 7.27451 18.7088 7.49571 18.8457 7.63256C18.9139 7.70081 19.0035 7.73511 19.0931 7.73511C19.1827 7.73511 19.2723 7.70081 19.3406 7.63256C19.9059 7.06766 20.217 6.31516 20.217 5.51436C20.217 4.71356 19.9062 3.96071 19.3406 3.39581Z"/>
<path d="M2.6804 3.09411C2.81726 2.95726 2.81726 2.73606 2.6804 2.59921C2.54355 2.46236 2.32234 2.46236 2.18549 2.59921C0.604837 4.17981 0.604837 6.75161 2.18549 8.33221C2.25374 8.40046 2.34334 8.43476 2.43295 8.43476C2.52255 8.43476 2.61215 8.40046 2.6804 8.33221C2.81726 8.19536 2.81726 7.97416 2.6804 7.83731C1.37241 6.52971 1.37241 4.40206 2.6804 3.09411Z"/>
<path d="M4.1543 3.29917C4.01745 3.16232 3.79624 3.16232 3.65938 3.29917C3.09412 3.86407 2.78296 4.61657 2.78296 5.41737C2.78296 6.21817 3.09412 6.97067 3.65938 7.53592C3.72764 7.60417 3.81724 7.63847 3.90684 7.63847C3.99645 7.63847 4.08605 7.60417 4.1543 7.53592C4.29115 7.39907 4.29115 7.17787 4.1543 7.04102C3.72134 6.60807 3.48298 6.03127 3.48298 5.41737C3.48298 4.80347 3.72099 4.22702 4.1543 3.79407C4.2908 3.65757 4.2908 3.43602 4.1543 3.29917Z"/>
</mask>
<path d="M15.9084 1.00002H7.09161C6.24178 1.00002 5.54981 1.69197 5.54981 2.54177V20.4579C5.54981 21.3081 6.24178 22 7.09161 22H15.908C16.7582 22 17.4502 21.3081 17.4502 20.4583V2.54177C17.4502 1.69197 16.7582 1.00002 15.9084 1.00002ZM6.24983 3.80002H16.7502V17.1H6.24983V3.80002ZM7.09161 1.70002H15.908C16.3725 1.70002 16.7502 2.07767 16.7502 2.54177V3.10002H6.24983V2.54177C6.24983 2.07767 6.62749 1.70002 7.09161 1.70002ZM15.9084 21.3H7.09161C6.62749 21.3 6.24983 20.9224 6.24983 20.4583V17.8H16.7502V20.4583C16.7502 20.9224 16.3725 21.3 15.9084 21.3Z" fill="#308589"/>
<path d="M11.5 18.1501C10.7279 18.1501 10.0999 18.778 10.0999 19.5501C10.0999 20.3222 10.7279 20.9501 11.5 20.9501C12.2721 20.9501 12.9 20.3222 12.9 19.5501C12.9 18.778 12.2721 18.1501 11.5 18.1501ZM11.5 20.2501C11.1139 20.2501 10.8 19.9361 10.8 19.5501C10.8 19.164 11.1139 18.8501 11.5 18.8501C11.886 18.8501 12.2 19.164 12.2 19.5501C12.2 19.9361 11.886 20.2501 11.5 20.2501Z" fill="#308589"/>
<path d="M10.1 2.75002H11.5C11.6936 2.75002 11.85 2.59357 11.85 2.40002C11.85 2.20647 11.6936 2.05002 11.5 2.05002H10.1C9.9064 2.05002 9.74994 2.20647 9.74994 2.40002C9.74994 2.59357 9.9064 2.75002 10.1 2.75002Z" fill="#308589"/>
<path d="M12.55 2.75002H12.9C13.0936 2.75002 13.25 2.59357 13.25 2.40002C13.25 2.20647 13.0936 2.05002 12.9 2.05002H12.55C12.3565 2.05002 12.2 2.20647 12.2 2.40002C12.2 2.59357 12.3565 2.75002 12.55 2.75002Z" fill="#308589"/>
<path d="M20.8145 2.59921C20.6777 2.46236 20.4565 2.46236 20.3196 2.59921C20.1827 2.73606 20.1827 2.95726 20.3196 3.09411C21.6272 4.40171 21.6272 6.52936 20.3196 7.83731C20.1827 7.97416 20.1827 8.19536 20.3196 8.33221C20.3878 8.40046 20.4775 8.43476 20.5671 8.43476C20.6567 8.43476 20.7463 8.40046 20.8145 8.33221C22.3952 6.75196 22.3952 4.17981 20.8145 2.59921Z" fill="#308589"/>
<path d="M19.3406 3.39581C19.2037 3.25896 18.9825 3.25896 18.8457 3.39581C18.7088 3.53266 18.7088 3.75386 18.8457 3.89071C19.2786 4.32366 19.517 4.90046 19.517 5.51436C19.517 6.12826 19.2786 6.70471 18.8457 7.13766C18.7088 7.27451 18.7088 7.49571 18.8457 7.63256C18.9139 7.70081 19.0035 7.73511 19.0931 7.73511C19.1827 7.73511 19.2723 7.70081 19.3406 7.63256C19.9059 7.06766 20.217 6.31516 20.217 5.51436C20.217 4.71356 19.9062 3.96071 19.3406 3.39581Z" fill="#308589"/>
<path d="M2.6804 3.09411C2.81726 2.95726 2.81726 2.73606 2.6804 2.59921C2.54355 2.46236 2.32234 2.46236 2.18549 2.59921C0.604837 4.17981 0.604837 6.75161 2.18549 8.33221C2.25374 8.40046 2.34334 8.43476 2.43295 8.43476C2.52255 8.43476 2.61215 8.40046 2.6804 8.33221C2.81726 8.19536 2.81726 7.97416 2.6804 7.83731C1.37241 6.52971 1.37241 4.40206 2.6804 3.09411Z" fill="#308589"/>
<path d="M4.1543 3.29917C4.01745 3.16232 3.79624 3.16232 3.65938 3.29917C3.09412 3.86407 2.78296 4.61657 2.78296 5.41737C2.78296 6.21817 3.09412 6.97067 3.65938 7.53592C3.72764 7.60417 3.81724 7.63847 3.90684 7.63847C3.99645 7.63847 4.08605 7.60417 4.1543 7.53592C4.29115 7.39907 4.29115 7.17787 4.1543 7.04102C3.72134 6.60807 3.48298 6.03127 3.48298 5.41737C3.48298 4.80347 3.72099 4.22702 4.1543 3.79407C4.2908 3.65757 4.2908 3.43602 4.1543 3.29917Z" fill="#308589"/>
<path d="M6.24983 3.80002V3.70002H6.14983V3.80002H6.24983ZM16.7502 3.80002H16.8502V3.70002H16.7502V3.80002ZM16.7502 17.1V17.2H16.8502V17.1H16.7502ZM6.24983 17.1H6.14983V17.2H6.24983V17.1ZM16.7502 3.10002V3.20002H16.8502V3.10002H16.7502ZM6.24983 3.10002H6.14983V3.20002H6.24983V3.10002ZM6.24983 17.8V17.7H6.14983V17.8H6.24983ZM16.7502 17.8H16.8502V17.7H16.7502V17.8ZM20.8145 2.59921L20.7438 2.66992L20.8145 2.59921ZM20.3196 2.59921L20.3903 2.66992L20.3196 2.59921ZM20.3196 3.09411L20.3903 3.0234L20.3196 3.09411ZM20.3196 7.83731L20.3903 7.90802L20.3903 7.90801L20.3196 7.83731ZM20.3196 8.33221L20.3903 8.2615L20.3196 8.33221ZM20.8145 8.33221L20.7438 8.26149L20.7438 8.2615L20.8145 8.33221ZM19.3406 3.39581L19.2699 3.46652L19.2699 3.46657L19.3406 3.39581ZM18.8457 3.89071L18.9164 3.82L18.8457 3.89071ZM18.8457 7.13766L18.9164 7.20837L18.8457 7.13766ZM18.8457 7.63256L18.775 7.70327L18.8457 7.63256ZM19.3406 7.63256L19.2699 7.56183L19.2699 7.56185L19.3406 7.63256ZM2.6804 3.09411L2.60969 3.0234L2.6804 3.09411ZM2.6804 2.59921L2.60969 2.66992L2.6804 2.59921ZM2.18549 2.59921L2.11478 2.5285L2.18549 2.59921ZM2.18549 8.33221L2.11478 8.40292L2.18549 8.33221ZM2.6804 8.33221L2.60969 8.2615H2.60969L2.6804 8.33221ZM2.6804 7.83731L2.75111 7.7666L2.7511 7.76659L2.6804 7.83731ZM4.1543 3.29917L4.2251 3.22855L4.22501 3.22846L4.1543 3.29917ZM3.65938 3.29917L3.73007 3.3699L3.73009 3.36988L3.65938 3.29917ZM3.65938 7.53592L3.73009 7.46521L3.65938 7.53592ZM4.1543 7.53592L4.22501 7.60663L4.1543 7.53592ZM4.1543 7.04102L4.22501 6.97031L4.1543 7.04102ZM4.1543 3.79407L4.22498 3.86481L4.22501 3.86478L4.1543 3.79407ZM15.9084 0.900015H7.09161V1.10002H15.9084V0.900015ZM7.09161 0.900015C6.18655 0.900015 5.44981 1.63673 5.44981 2.54177H5.64981C5.64981 1.7472 6.297 1.10002 7.09161 1.10002V0.900015ZM5.44981 2.54177V20.4579H5.64981V2.54177H5.44981ZM5.44981 20.4579C5.44981 21.3633 6.18654 22.1 7.09161 22.1V21.9C6.29702 21.9 5.64981 21.2528 5.64981 20.4579H5.44981ZM7.09161 22.1H15.908V21.9H7.09161V22.1ZM15.908 22.1C16.8134 22.1 17.5502 21.3633 17.5502 20.4583H17.3502C17.3502 21.2528 16.703 21.9 15.908 21.9V22.1ZM17.5502 20.4583V2.54177H17.3502V20.4583H17.5502ZM17.5502 2.54177C17.5502 1.63673 16.8134 0.900015 15.9084 0.900015V1.10002C16.703 1.10002 17.3502 1.7472 17.3502 2.54177H17.5502ZM6.24983 3.90002H16.7502V3.70002H6.24983V3.90002ZM16.6502 3.80002V17.1H16.8502V3.80002H16.6502ZM16.7502 17H6.24983V17.2H16.7502V17ZM6.34983 17.1V3.80002H6.14983V17.1H6.34983ZM7.09161 1.80002H15.908V1.60002H7.09161V1.80002ZM15.908 1.80002C16.3173 1.80002 16.6502 2.13292 16.6502 2.54177H16.8502C16.8502 2.02241 16.4277 1.60002 15.908 1.60002V1.80002ZM16.6502 2.54177V3.10002H16.8502V2.54177H16.6502ZM16.7502 3.00002H6.24983V3.20002H16.7502V3.00002ZM6.34983 3.10002V2.54177H6.14983V3.10002H6.34983ZM6.34983 2.54177C6.34983 2.1329 6.68272 1.80002 7.09161 1.80002V1.60002C6.57227 1.60002 6.14983 2.02243 6.14983 2.54177H6.34983ZM15.9084 21.2H7.09161V21.4H15.9084V21.2ZM7.09161 21.2C6.68272 21.2 6.34983 20.8671 6.34983 20.4583H6.14983C6.14983 20.9776 6.57227 21.4 7.09161 21.4V21.2ZM6.34983 20.4583V17.8H6.14983V20.4583H6.34983ZM6.24983 17.9H16.7502V17.7H6.24983V17.9ZM16.6502 17.8V20.4583H16.8502V17.8H16.6502ZM16.6502 20.4583C16.6502 20.8671 16.3173 21.2 15.9084 21.2V21.4C16.4277 21.4 16.8502 20.9776 16.8502 20.4583H16.6502ZM11.5 18.0501C10.6726 18.0501 9.99993 18.7227 9.99993 19.5501H10.1999C10.1999 18.8332 10.7831 18.2501 11.5 18.2501V18.0501ZM9.99993 19.5501C9.99993 20.3774 10.6726 21.0501 11.5 21.0501V20.8501C10.7831 20.8501 10.1999 20.2669 10.1999 19.5501H9.99993ZM11.5 21.0501C12.3273 21.0501 13 20.3774 13 19.5501H12.8C12.8 20.2669 12.2169 20.8501 11.5 20.8501V21.0501ZM13 19.5501C13 18.7227 12.3273 18.0501 11.5 18.0501V18.2501C12.2169 18.2501 12.8 18.8332 12.8 19.5501H13ZM11.5 20.1501C11.1691 20.1501 10.9 19.8809 10.9 19.5501H10.7C10.7 19.9913 11.0587 20.3501 11.5 20.3501V20.1501ZM10.9 19.5501C10.9 19.2192 11.1691 18.9501 11.5 18.9501V18.7501C11.0587 18.7501 10.7 19.1088 10.7 19.5501H10.9ZM11.5 18.9501C11.8308 18.9501 12.1 19.2192 12.1 19.5501H12.3C12.3 19.1088 11.9413 18.7501 11.5 18.7501V18.9501ZM12.1 19.5501C12.1 19.8809 11.8308 20.1501 11.5 20.1501V20.3501C11.9413 20.3501 12.3 19.9913 12.3 19.5501H12.1ZM10.1 2.85002H11.5V2.65002H10.1V2.85002ZM11.5 2.85002C11.7488 2.85002 11.95 2.6488 11.95 2.40002H11.75C11.75 2.53833 11.6383 2.65002 11.5 2.65002V2.85002ZM11.95 2.40002C11.95 2.15123 11.7488 1.95002 11.5 1.95002V2.15002C11.6383 2.15002 11.75 2.2617 11.75 2.40002H11.95ZM11.5 1.95002H10.1V2.15002H11.5V1.95002ZM10.1 1.95002C9.85117 1.95002 9.64994 2.15123 9.64994 2.40002H9.84994C9.84994 2.2617 9.96162 2.15002 10.1 2.15002V1.95002ZM9.64994 2.40002C9.64994 2.6488 9.85117 2.85002 10.1 2.85002V2.65002C9.96162 2.65002 9.84994 2.53833 9.84994 2.40002H9.64994ZM12.55 2.85002H12.9V2.65002H12.55V2.85002ZM12.9 2.85002C13.1488 2.85002 13.35 2.6488 13.35 2.40002H13.15C13.15 2.53833 13.0384 2.65002 12.9 2.65002V2.85002ZM13.35 2.40002C13.35 2.15123 13.1488 1.95002 12.9 1.95002V2.15002C13.0384 2.15002 13.15 2.2617 13.15 2.40002H13.35ZM12.9 1.95002H12.55V2.15002H12.9V1.95002ZM12.55 1.95002C12.3012 1.95002 12.1 2.15123 12.1 2.40002H12.3C12.3 2.2617 12.4117 2.15002 12.55 2.15002V1.95002ZM12.1 2.40002C12.1 2.6488 12.3012 2.85002 12.55 2.85002V2.65002C12.4117 2.65002 12.3 2.53833 12.3 2.40002H12.1ZM20.8852 2.5285C20.7093 2.3526 20.4248 2.3526 20.2489 2.5285L20.3903 2.66992C20.4881 2.57212 20.646 2.57212 20.7438 2.66992L20.8852 2.5285ZM20.2489 2.5285C20.073 2.7044 20.073 2.98892 20.2489 3.16482L20.3903 3.0234C20.2925 2.9256 20.2925 2.76772 20.3903 2.66992L20.2489 2.5285ZM20.2489 3.16482C21.5175 4.43336 21.5175 6.4977 20.2489 7.76661L20.3903 7.90801C21.737 6.56102 21.737 4.37006 20.3903 3.0234L20.2489 3.16482ZM20.2489 7.7666C20.073 7.9425 20.073 8.22702 20.2489 8.40292L20.3903 8.2615C20.2925 8.1637 20.2925 8.00582 20.3903 7.90802L20.2489 7.7666ZM20.2489 8.40292C20.3366 8.49063 20.452 8.53476 20.5671 8.53476V8.33476C20.503 8.33476 20.4391 8.31029 20.3903 8.2615L20.2489 8.40292ZM20.5671 8.53476C20.6822 8.53476 20.7975 8.49063 20.8852 8.40292L20.7438 8.2615C20.695 8.31029 20.6312 8.33476 20.5671 8.33476V8.53476ZM20.8852 8.40293C22.5049 6.78362 22.5049 4.14815 20.8852 2.5285L20.7438 2.66992C22.2854 4.21147 22.2854 6.7203 20.7438 8.26149L20.8852 8.40293ZM19.4113 3.3251C19.2354 3.1492 18.9509 3.1492 18.775 3.3251L18.9164 3.46652C19.0142 3.36872 19.1721 3.36872 19.2699 3.46652L19.4113 3.3251ZM18.775 3.3251C18.5991 3.501 18.5991 3.78552 18.775 3.96142L18.9164 3.82C18.8186 3.7222 18.8186 3.56432 18.9164 3.46652L18.775 3.3251ZM18.775 3.96142C19.1891 4.37555 19.417 4.92688 19.417 5.51436H19.617C19.617 4.87404 19.3682 4.27177 18.9164 3.82L18.775 3.96142ZM19.417 5.51436C19.417 6.10182 19.1891 6.65281 18.775 7.06695L18.9164 7.20837C19.3682 6.75661 19.617 6.1547 19.617 5.51436H19.417ZM18.775 7.06695C18.5991 7.24285 18.5991 7.52737 18.775 7.70327L18.9164 7.56185C18.8186 7.46405 18.8186 7.30617 18.9164 7.20837L18.775 7.06695ZM18.775 7.70327C18.8627 7.79099 18.978 7.83511 19.0931 7.83511V7.63511C19.029 7.63511 18.9652 7.61064 18.9164 7.56185L18.775 7.70327ZM19.0931 7.83511C19.2082 7.83511 19.3236 7.79099 19.4113 7.70327L19.2699 7.56185C19.2211 7.61064 19.1572 7.63511 19.0931 7.63511V7.83511ZM19.4113 7.70329C19.9954 7.11958 20.317 6.34161 20.317 5.51436H20.117C20.117 6.28872 19.8163 7.01574 19.2699 7.56183L19.4113 7.70329ZM20.317 5.51436C20.317 4.68715 19.9958 3.90881 19.4113 3.32505L19.2699 3.46657C19.8167 4.01261 20.117 4.73997 20.117 5.51436H20.317ZM2.75111 3.16482C2.92702 2.98892 2.92702 2.7044 2.75111 2.5285L2.60969 2.66992C2.7075 2.76772 2.7075 2.9256 2.60969 3.0234L2.75111 3.16482ZM2.75111 2.5285C2.57521 2.3526 2.29069 2.3526 2.11478 2.5285L2.2562 2.66992C2.354 2.57212 2.51189 2.57212 2.60969 2.66992L2.75111 2.5285ZM2.11478 2.5285C0.495074 4.14815 0.495074 6.78327 2.11478 8.40292L2.2562 8.2615C0.714601 6.71995 0.714601 4.21147 2.2562 2.66992L2.11478 2.5285ZM2.11478 8.40292C2.20249 8.49063 2.31784 8.53476 2.43295 8.53476V8.33476C2.36884 8.33476 2.30499 8.31029 2.2562 8.2615L2.11478 8.40292ZM2.43295 8.53476C2.54805 8.53476 2.6634 8.49063 2.75111 8.40292L2.60969 8.2615C2.56091 8.31029 2.49705 8.33476 2.43295 8.33476V8.53476ZM2.75111 8.40292C2.92702 8.22702 2.92702 7.9425 2.75111 7.7666L2.60969 7.90802C2.7075 8.00582 2.7075 8.1637 2.60969 8.2615L2.75111 8.40292ZM2.7511 7.76659C1.48218 6.49805 1.48217 4.43372 2.75111 3.16482L2.60969 3.0234C1.26265 4.3704 1.26264 6.56137 2.6097 7.90803L2.7511 7.76659ZM4.22501 3.22846C4.0491 3.05255 3.76458 3.05255 3.58867 3.22846L3.73009 3.36988C3.8279 3.27208 3.98579 3.27208 4.08359 3.36988L4.22501 3.22846ZM3.5887 3.22843C3.0046 3.81215 2.68296 4.59012 2.68296 5.41737H2.88296C2.88296 4.64301 3.18363 3.91598 3.73007 3.3699L3.5887 3.22843ZM2.68296 5.41737C2.68296 6.24462 3.0046 7.02257 3.58867 7.60663L3.73009 7.46521C3.18363 6.91876 2.88296 6.19172 2.88296 5.41737H2.68296ZM3.58867 7.60663C3.67639 7.69434 3.79174 7.73847 3.90684 7.73847V7.53847C3.84274 7.53847 3.77888 7.51399 3.73009 7.46521L3.58867 7.60663ZM3.90684 7.73847C4.02195 7.73847 4.13729 7.69434 4.22501 7.60663L4.08359 7.46521C4.0348 7.51399 3.97095 7.53847 3.90684 7.53847V7.73847ZM4.22501 7.60663C4.40092 7.43073 4.40092 7.14621 4.22501 6.97031L4.08359 7.11173C4.18139 7.20953 4.18139 7.36741 4.08359 7.46521L4.22501 7.60663ZM4.22501 6.97031C3.81087 6.55618 3.58298 6.00485 3.58298 5.41737H3.38298C3.38298 6.05769 3.6318 6.65996 4.08359 7.11173L4.22501 6.97031ZM3.58298 5.41737C3.58298 4.82987 3.81053 4.27891 4.22498 3.86481L4.08362 3.72333C3.63144 4.17513 3.38298 4.77707 3.38298 5.41737H3.58298ZM4.22501 3.86478C4.40062 3.68918 4.40049 3.40438 4.2251 3.22855L4.0835 3.36979C4.18112 3.46766 4.18099 3.62596 4.08359 3.72336L4.22501 3.86478Z" fill="white" mask="url(#path-1-outside-1)"/>
</svg>
