<svg width="33" height="22" viewBox="0 0 33 22" fill="none" xmlns="http://www.w3.org/2000/svg">
<path d="M25.7561 14C21.7732 14 18.5444 10.8659 18.5444 7C18.5444 3.13406 21.7732 1.273e-06 25.7561 1.6212e-06C29.739 1.9694e-06 32.9678 3.13406 32.9678 7L33 8C33 15.732 26.5424 22 18.5766 22V18C21.3284 18 23.9156 16.9598 25.8615 15.0711C26.2361 14.7074 26.5779 14.3206 26.8863 13.9142C26.518 13.9704 26.1406 14 25.7561 14ZM7.21171 14C3.22885 14 -3.37971e-07 10.8659 0 7C3.37971e-07 3.13406 3.22885 -3.48193e-07 7.21171 0C11.1946 3.48193e-07 14.4234 3.13406 14.4234 7L14.4556 8C14.4556 15.732 7.9981 22 0.0321938 22L0.0321942 18C2.78398 18 5.3713 16.9598 7.31711 15.0711C7.69174 14.7074 8.03359 14.3206 8.34195 13.9142C7.9737 13.9704 7.59631 14 7.21171 14Z" fill="#0AA61B" fill-opacity="0.2"/>
</svg>
