<svg width="20" height="20" viewBox="0 0 20 20" fill="none" xmlns="http://www.w3.org/2000/svg">
<mask id="path-1-outside-1" maskUnits="userSpaceOnUse" x="0" y="1.52588e-05" width="20" height="20" fill="black">
<rect fill="white" y="1.52588e-05" width="20" height="20"/>
<path d="M18.5277 14.8864L14.8844 12.4566C14.4221 12.1507 13.8023 12.2514 13.4605 12.6879L12.3993 14.0525C12.2629 14.2323 12.015 14.2845 11.8177 14.1749L11.6158 14.0636C10.9466 13.6988 10.1139 13.2446 8.43626 11.5663C6.75861 9.88789 6.30358 9.05454 5.93882 8.38652L5.82813 8.18463C5.71701 7.98735 5.76819 7.73835 5.9481 7.60087L7.31168 6.53986C7.74797 6.198 7.84875 5.57838 7.54325 5.11586L5.11361 1.47234C4.80052 1.00135 4.17237 0.859966 3.68767 1.15135L2.16419 2.06658C1.6855 2.34801 1.33431 2.80382 1.18425 3.33847C0.635648 5.33751 1.04836 8.78755 6.13021 13.8704C10.1727 17.9128 13.1822 19 15.2507 19C15.7267 19.002 16.2009 18.9401 16.6605 18.8158C17.1952 18.6659 17.651 18.3146 17.9323 17.8358L18.8484 16.3131C19.1401 15.8283 18.9988 15.1997 18.5277 14.8864ZM18.3315 16.0053L17.4175 17.5289C17.2156 17.8745 16.8877 18.1287 16.5027 18.238C14.6573 18.7447 11.4334 18.3251 6.55463 13.4459C1.67584 8.56678 1.25624 5.34292 1.76287 3.49718C1.8724 3.11162 2.12683 2.78332 2.47285 2.58105L3.99633 1.66702C4.20664 1.54047 4.47927 1.60181 4.61513 1.80619L7.0427 5.4494C7.17536 5.65002 7.13177 5.91891 6.94252 6.06737L5.57862 7.12837C5.16356 7.44577 5.04503 8.02007 5.30058 8.47587L5.40888 8.67266C5.79224 9.37581 6.26885 10.2505 8.0089 11.9904C9.74894 13.7303 10.6233 14.207 11.3261 14.5903L11.5232 14.6989C11.9789 14.9544 12.5532 14.8359 12.8706 14.4208L13.9315 13.0568C14.08 12.8677 14.3487 12.8241 14.5494 12.9567L18.1924 15.3865C18.3969 15.5222 18.4582 15.795 18.3315 16.0053Z"/>
<path d="M11.1994 4.00112C14.0143 4.00425 16.2955 6.28561 16.2986 9.10074C16.2986 9.26641 16.4329 9.4007 16.5986 9.4007C16.7643 9.4007 16.8985 9.26641 16.8985 9.10074C16.8951 5.95439 14.3455 3.40463 11.1994 3.40119C11.0337 3.40119 10.8994 3.53547 10.8994 3.70115C10.8994 3.86683 11.0337 4.00112 11.1994 4.00112Z"/>
<path d="M11.1994 5.80101C13.0208 5.80315 14.4968 7.27925 14.4989 9.10077C14.4989 9.26644 14.6332 9.40073 14.7989 9.40073C14.9645 9.40073 15.0988 9.26644 15.0988 9.10077C15.0963 6.94803 13.3519 5.20354 11.1994 5.20108C11.0337 5.20108 10.8994 5.33536 10.8994 5.50104C10.8994 5.66672 11.0337 5.80101 11.1994 5.80101Z"/>
<path d="M11.1994 7.6009C12.0273 7.60188 12.6982 8.27282 12.6992 9.10079C12.6992 9.26647 12.8335 9.40076 12.9991 9.40076C13.1648 9.40076 13.2991 9.26647 13.2991 9.10079C13.2977 7.94164 12.3585 7.00227 11.1994 7.00097C11.0337 7.00097 10.8994 7.13525 10.8994 7.30093C10.8994 7.46661 11.0337 7.6009 11.1994 7.6009Z"/>
</mask>
<path d="M18.5277 14.8864L14.8844 12.4566C14.4221 12.1507 13.8023 12.2514 13.4605 12.6879L12.3993 14.0525C12.2629 14.2323 12.015 14.2845 11.8177 14.1749L11.6158 14.0636C10.9466 13.6988 10.1139 13.2446 8.43626 11.5663C6.75861 9.88789 6.30358 9.05454 5.93882 8.38652L5.82813 8.18463C5.71701 7.98735 5.76819 7.73835 5.9481 7.60087L7.31168 6.53986C7.74797 6.198 7.84875 5.57838 7.54325 5.11586L5.11361 1.47234C4.80052 1.00135 4.17237 0.859966 3.68767 1.15135L2.16419 2.06658C1.6855 2.34801 1.33431 2.80382 1.18425 3.33847C0.635648 5.33751 1.04836 8.78755 6.13021 13.8704C10.1727 17.9128 13.1822 19 15.2507 19C15.7267 19.002 16.2009 18.9401 16.6605 18.8158C17.1952 18.6659 17.651 18.3146 17.9323 17.8358L18.8484 16.3131C19.1401 15.8283 18.9988 15.1997 18.5277 14.8864ZM18.3315 16.0053L17.4175 17.5289C17.2156 17.8745 16.8877 18.1287 16.5027 18.238C14.6573 18.7447 11.4334 18.3251 6.55463 13.4459C1.67584 8.56678 1.25624 5.34292 1.76287 3.49718C1.8724 3.11162 2.12683 2.78332 2.47285 2.58105L3.99633 1.66702C4.20664 1.54047 4.47927 1.60181 4.61513 1.80619L7.0427 5.4494C7.17536 5.65002 7.13177 5.91891 6.94252 6.06737L5.57862 7.12837C5.16356 7.44577 5.04503 8.02007 5.30058 8.47587L5.40888 8.67266C5.79224 9.37581 6.26885 10.2505 8.0089 11.9904C9.74894 13.7303 10.6233 14.207 11.3261 14.5903L11.5232 14.6989C11.9789 14.9544 12.5532 14.8359 12.8706 14.4208L13.9315 13.0568C14.08 12.8677 14.3487 12.8241 14.5494 12.9567L18.1924 15.3865C18.3969 15.5222 18.4582 15.795 18.3315 16.0053Z" fill="#308589"/>
<path d="M11.1994 4.00112C14.0143 4.00425 16.2955 6.28561 16.2986 9.10074C16.2986 9.26641 16.4329 9.4007 16.5986 9.4007C16.7643 9.4007 16.8985 9.26641 16.8985 9.10074C16.8951 5.95439 14.3455 3.40463 11.1994 3.40119C11.0337 3.40119 10.8994 3.53547 10.8994 3.70115C10.8994 3.86683 11.0337 4.00112 11.1994 4.00112Z" fill="#308589"/>
<path d="M11.1994 5.80101C13.0208 5.80315 14.4968 7.27925 14.4989 9.10077C14.4989 9.26644 14.6332 9.40073 14.7989 9.40073C14.9645 9.40073 15.0988 9.26644 15.0988 9.10077C15.0963 6.94803 13.3519 5.20354 11.1994 5.20108C11.0337 5.20108 10.8994 5.33536 10.8994 5.50104C10.8994 5.66672 11.0337 5.80101 11.1994 5.80101Z" fill="#308589"/>
<path d="M11.1994 7.6009C12.0273 7.60188 12.6982 8.27282 12.6992 9.10079C12.6992 9.26647 12.8335 9.40076 12.9991 9.40076C13.1648 9.40076 13.2991 9.26647 13.2991 9.10079C13.2977 7.94164 12.3585 7.00227 11.1994 7.00097C11.0337 7.00097 10.8994 7.13525 10.8994 7.30093C10.8994 7.46661 11.0337 7.6009 11.1994 7.6009Z" fill="#308589"/>
<path d="M18.5277 14.8864L18.4722 14.9696L18.4723 14.9697L18.5277 14.8864ZM14.8844 12.4566L14.9399 12.3734L14.9396 12.3732L14.8844 12.4566ZM13.4605 12.6879L13.3818 12.6262L13.3816 12.6265L13.4605 12.6879ZM12.3993 14.0525L12.3203 13.9911L12.3196 13.992L12.3993 14.0525ZM11.8177 14.1749L11.8662 14.0874L11.8659 14.0873L11.8177 14.1749ZM11.6158 14.0636L11.6641 13.976L11.6636 13.9758L11.6158 14.0636ZM8.43626 11.5663L8.36554 11.637L8.43626 11.5663ZM5.93882 8.38652L6.02659 8.33859L6.0265 8.33844L5.93882 8.38652ZM5.82813 8.18463L5.91582 8.13655L5.91526 8.13555L5.82813 8.18463ZM5.9481 7.60087L6.00882 7.68033L6.00951 7.67979L5.9481 7.60087ZM7.31168 6.53986L7.37309 6.61879L7.37335 6.61858L7.31168 6.53986ZM7.54325 5.11586L7.62669 5.06075L7.62645 5.06038L7.54325 5.11586ZM5.11361 1.47234L5.03033 1.5277L5.03041 1.52782L5.11361 1.47234ZM3.68767 1.15135L3.73917 1.23707L3.7392 1.23706L3.68767 1.15135ZM2.16419 2.06658L2.21488 2.15278L2.21569 2.1523L2.16419 2.06658ZM1.18425 3.33847L1.08797 3.31144L1.08782 3.312L1.18425 3.33847ZM6.13021 13.8704L6.0595 13.9411L6.0595 13.9411L6.13021 13.8704ZM15.2507 19L15.2511 18.9H15.2507V19ZM16.6605 18.8158L16.6866 18.9123L16.6875 18.9121L16.6605 18.8158ZM17.9323 17.8358L17.8466 17.7842L17.8461 17.7851L17.9323 17.8358ZM18.8484 16.3131L18.7627 16.2615L18.7627 16.2616L18.8484 16.3131ZM18.3315 16.0053L18.2458 15.9537L18.2457 15.9539L18.3315 16.0053ZM17.4175 17.5289L17.3318 17.4775L17.3312 17.4784L17.4175 17.5289ZM16.5027 18.238L16.5291 18.3345L16.53 18.3342L16.5027 18.238ZM6.55463 13.4459L6.48391 13.5166L6.55463 13.4459ZM1.76287 3.49718L1.66667 3.46986L1.66644 3.47071L1.76287 3.49718ZM2.47285 2.58105L2.52332 2.66739L2.5243 2.6668L2.47285 2.58105ZM3.99633 1.66702L4.04778 1.75277L4.04789 1.7527L3.99633 1.66702ZM4.61513 1.80619L4.53185 1.86155L4.53192 1.86164L4.61513 1.80619ZM7.0427 5.4494L7.12611 5.39424L7.12592 5.39395L7.0427 5.4494ZM6.94252 6.06737L7.00392 6.1463L7.00424 6.14605L6.94252 6.06737ZM5.57862 7.12837L5.63937 7.20781L5.64002 7.2073L5.57862 7.12837ZM5.30058 8.47587L5.38819 8.42766L5.3878 8.42697L5.30058 8.47587ZM5.40888 8.67266L5.49668 8.6248L5.49649 8.62445L5.40888 8.67266ZM8.0089 11.9904L7.93819 12.0611L7.93819 12.0611L8.0089 11.9904ZM11.3261 14.5903L11.3744 14.5027L11.374 14.5025L11.3261 14.5903ZM11.5232 14.6989L11.5721 14.6117L11.5714 14.6113L11.5232 14.6989ZM12.8706 14.4208L12.7916 14.3594L12.7911 14.3601L12.8706 14.4208ZM13.9315 13.0568L13.8528 12.9951L13.8526 12.9954L13.9315 13.0568ZM14.5494 12.9567L14.6049 12.8735L14.6045 12.8732L14.5494 12.9567ZM18.1924 15.3865L18.1369 15.4697L18.1371 15.4698L18.1924 15.3865ZM11.1994 4.00112L11.1995 3.90112H11.1994V4.00112ZM16.2986 9.10074H16.3986V9.10062L16.2986 9.10074ZM16.8985 9.10074H16.9985V9.10063L16.8985 9.10074ZM11.1994 3.40119L11.1995 3.30119H11.1994V3.40119ZM11.1994 5.80101L11.1995 5.70101H11.1994V5.80101ZM14.4989 9.10077H14.5989V9.10065L14.4989 9.10077ZM15.0988 9.10077H15.1988V9.10065L15.0988 9.10077ZM11.1994 5.20108L11.1995 5.10108H11.1994V5.20108ZM11.1994 7.6009L11.1995 7.5009H11.1994V7.6009ZM12.6992 9.10079H12.7992V9.10067L12.6992 9.10079ZM13.2991 9.10079H13.3991V9.10068L13.2991 9.10079ZM11.1994 7.00097L11.1995 6.90097H11.1994V7.00097ZM18.5832 14.8032L14.9399 12.3734L14.8289 12.5398L18.4722 14.9696L18.5832 14.8032ZM14.9396 12.3732C14.4338 12.0386 13.7557 12.1487 13.3818 12.6262L13.5392 12.7495C13.8489 12.3541 14.4104 12.2629 14.8292 12.54L14.9396 12.3732ZM13.3816 12.6265L12.3203 13.9911L12.4782 14.1138L13.5394 12.7493L13.3816 12.6265ZM12.3196 13.992C12.2133 14.1322 12.02 14.1729 11.8662 14.0874L11.7691 14.2623C12.0099 14.3961 12.3125 14.3324 12.4789 14.1129L12.3196 13.992ZM11.8659 14.0873L11.6641 13.976L11.5675 14.1511L11.7694 14.2624L11.8659 14.0873ZM11.6636 13.9758C11.0019 13.615 10.1771 13.1664 8.50699 11.4956L8.36554 11.637C10.0507 13.3228 10.8913 13.7825 11.5679 14.1514L11.6636 13.9758ZM8.50699 11.4956C6.83683 9.82469 6.38732 8.99925 6.02659 8.33859L5.85105 8.43444C6.21983 9.10983 6.68039 9.95109 8.36554 11.637L8.50699 11.4956ZM6.0265 8.33844L5.91581 8.13655L5.74044 8.2327L5.85113 8.43459L6.0265 8.33844ZM5.91526 8.13555C5.82861 7.98172 5.86852 7.78754 6.00882 7.68032L5.88738 7.52141C5.66787 7.68917 5.60541 7.99298 5.74099 8.2337L5.91526 8.13555ZM6.00951 7.67979L7.37309 6.61879L7.25027 6.46094L5.88669 7.52194L6.00951 7.67979ZM7.37335 6.61858C7.85065 6.24458 7.9609 5.56673 7.62669 5.06075L7.45981 5.17098C7.7366 5.59002 7.64529 6.15141 7.25 6.46115L7.37335 6.61858ZM7.62645 5.06038L5.19681 1.41686L5.03041 1.52782L7.46005 5.17134L7.62645 5.06038ZM5.19689 1.41698C4.8542 0.901468 4.16667 0.746715 3.63615 1.06565L3.7392 1.23706C4.17807 0.973216 4.74684 1.10124 5.03033 1.5277L5.19689 1.41698ZM3.63618 1.06563L2.11269 1.98085L2.21569 2.1523L3.73917 1.23707L3.63618 1.06563ZM2.11351 1.98037C1.61255 2.27491 1.24501 2.75191 1.08797 3.31144L1.28053 3.36549C1.42361 2.85572 1.75846 2.42112 2.21487 2.15278L2.11351 1.98037ZM1.08782 3.312C0.525737 5.36015 0.96498 8.84559 6.0595 13.9411L6.20093 13.7997C1.13173 8.7295 0.74556 5.31486 1.28069 3.36493L1.08782 3.312ZM6.0595 13.9411C10.1117 17.9933 13.1451 19.1 15.2507 19.1V18.9C13.2192 18.9 10.2337 17.8324 6.20092 13.7997L6.0595 13.9411ZM15.2503 19.1C15.7353 19.102 16.2184 19.0389 16.6866 18.9123L16.6344 18.7193C16.1835 18.8412 15.7182 18.902 15.2511 18.9L15.2503 19.1ZM16.6875 18.9121C17.2471 18.7552 17.7242 18.3876 18.0185 17.8864L17.8461 17.7851C17.5779 18.2417 17.1433 18.5766 16.6335 18.7195L16.6875 18.9121ZM18.018 17.8873L18.934 16.3647L18.7627 16.2616L17.8466 17.7842L18.018 17.8873ZM18.934 16.3647C19.2534 15.834 19.0987 15.146 18.583 14.8031L18.4723 14.9697C18.8989 15.2534 19.0269 15.8225 18.7627 16.2615L18.934 16.3647ZM18.2457 15.9539L17.3318 17.4775L17.5033 17.5803L18.4172 16.0567L18.2457 15.9539ZM17.3312 17.4784C17.1423 17.8018 16.8356 18.0395 16.4753 18.1419L16.53 18.3342C16.9399 18.2178 17.2889 17.9473 17.5039 17.5793L17.3312 17.4784ZM16.4762 18.1416C14.6813 18.6344 11.4929 18.2431 6.62534 13.3752L6.48391 13.5166C11.374 18.407 14.6334 18.855 16.5291 18.3345L16.4762 18.1416ZM6.62534 13.3752C1.75782 8.50735 1.3665 5.319 1.85931 3.52365L1.66644 3.47071C1.14598 5.36684 1.59385 8.62622 6.48391 13.5166L6.62534 13.3752ZM1.85907 3.52451C1.96154 3.16378 2.19958 2.85662 2.52332 2.66738L2.42239 2.49472C2.05407 2.71002 1.78326 3.05946 1.66668 3.46986L1.85907 3.52451ZM2.5243 2.6668L4.04778 1.75277L3.94489 1.58127L2.42141 2.4953L2.5243 2.6668ZM4.04789 1.7527C4.21237 1.65373 4.4256 1.7017 4.53185 1.86155L4.69841 1.75084C4.53295 1.50192 4.20091 1.42721 3.94477 1.58134L4.04789 1.7527ZM6.95929 5.50456C7.06321 5.66172 7.02907 5.87238 6.8808 5.98868L7.00424 6.14605C7.23448 5.96544 7.28751 5.63832 7.12611 5.39424L6.95929 5.50456ZM6.88112 5.98844L5.51722 7.04944L5.64002 7.2073L7.00392 6.1463L6.88112 5.98844ZM5.51788 7.04893C5.06328 7.39656 4.93347 8.02557 5.21335 8.52478L5.3878 8.42697C5.1566 8.01458 5.26383 7.49498 5.63937 7.20781L5.51788 7.04893ZM5.21297 8.52409L5.32127 8.72088L5.49649 8.62445L5.38819 8.42766L5.21297 8.52409ZM5.32108 8.72053C5.7084 9.43094 6.19053 10.3136 7.93819 12.0611L8.0796 11.9197C6.34717 10.1874 5.87607 9.32067 5.49668 8.6248L5.32108 8.72053ZM7.93819 12.0611C9.68584 13.8086 10.5682 14.2908 11.2782 14.6781L11.374 14.5025C10.6785 14.1231 9.81205 13.652 8.0796 11.9197L7.93819 12.0611ZM11.2778 14.6779L11.4749 14.7865L11.5714 14.6113L11.3744 14.5027L11.2778 14.6779ZM11.4743 14.7861C11.9734 15.066 12.6024 14.9362 12.95 14.4816L12.7911 14.3601C12.504 14.7356 11.9844 14.8429 11.5721 14.6117L11.4743 14.7861ZM12.9495 14.4822L14.0104 13.1182L13.8526 12.9954L12.7916 14.3594L12.9495 14.4822ZM14.0102 13.1186C14.1265 12.9704 14.3371 12.9362 14.4943 13.0401L14.6045 12.8732C14.3604 12.712 14.0335 12.765 13.8528 12.9951L14.0102 13.1186ZM14.4939 13.0398L18.1369 15.4697L18.2479 15.3033L14.6049 12.8735L14.4939 13.0398ZM18.1371 15.4698C18.297 15.5759 18.3449 15.7892 18.2458 15.9537L18.4171 16.0569C18.5715 15.8008 18.4968 15.4685 18.2477 15.3032L18.1371 15.4698ZM11.1993 4.10112C13.9591 4.10419 16.1955 6.34085 16.1986 9.10085L16.3986 9.10062C16.3954 6.23036 14.0696 3.90431 11.1995 3.90112L11.1993 4.10112ZM16.1986 9.10074C16.1986 9.32164 16.3777 9.5007 16.5986 9.5007V9.3007C16.4882 9.3007 16.3986 9.21119 16.3986 9.10074H16.1986ZM16.5986 9.5007C16.8195 9.5007 16.9985 9.32164 16.9985 9.10074H16.7985C16.7985 9.21119 16.709 9.3007 16.5986 9.3007V9.5007ZM16.9985 9.10063C16.995 5.89914 14.4008 3.30469 11.1995 3.30119L11.1993 3.50119C14.2903 3.50457 16.7951 6.00963 16.7985 9.10085L16.9985 9.10063ZM11.1994 3.30119C10.9785 3.30119 10.7994 3.48025 10.7994 3.70115H10.9994C10.9994 3.5907 11.089 3.50119 11.1994 3.50119V3.30119ZM10.7994 3.70115C10.7994 3.92205 10.9785 4.10112 11.1994 4.10112V3.90112C11.089 3.90112 10.9994 3.81161 10.9994 3.70115H10.7994ZM11.1993 5.90101C12.9655 5.90309 14.3968 7.3345 14.3989 9.10088L14.5989 9.10065C14.5967 7.224 13.076 5.70322 11.1995 5.70101L11.1993 5.90101ZM14.3989 9.10077C14.3989 9.32167 14.578 9.50073 14.7989 9.50073V9.30073C14.6885 9.30073 14.5989 9.21122 14.5989 9.10077H14.3989ZM14.7989 9.50073C15.0198 9.50073 15.1988 9.32166 15.1988 9.10077H14.9988C14.9988 9.21122 14.9093 9.30073 14.7989 9.30073V9.50073ZM15.1988 9.10065C15.1962 6.89279 13.4072 5.1036 11.1995 5.10108L11.1993 5.30108C13.2967 5.30348 14.9964 7.00328 14.9988 9.10088L15.1988 9.10065ZM11.1994 5.10108C10.9785 5.10108 10.7994 5.28014 10.7994 5.50104H10.9994C10.9994 5.39059 11.089 5.30108 11.1994 5.30108V5.10108ZM10.7994 5.50104C10.7994 5.72194 10.9785 5.90101 11.1994 5.90101V5.70101C11.089 5.70101 10.9994 5.6115 10.9994 5.50104H10.7994ZM11.1993 7.7009C11.972 7.70182 12.5982 8.32807 12.5992 9.10092L12.7992 9.10067C12.7981 8.21758 12.0825 7.50195 11.1995 7.5009L11.1993 7.7009ZM12.5992 9.10079C12.5992 9.3217 12.7783 9.50076 12.9991 9.50076V9.30076C12.8887 9.30076 12.7992 9.21124 12.7992 9.10079H12.5992ZM12.9991 9.50076C13.22 9.50076 13.3991 9.3217 13.3991 9.10079H13.1991C13.1991 9.21124 13.1095 9.30076 12.9991 9.30076V9.50076ZM13.3991 9.10068C13.3977 7.8864 12.4137 6.90233 11.1995 6.90097L11.1993 7.10097C12.3032 7.10221 13.1978 7.99689 13.1991 9.10091L13.3991 9.10068ZM11.1994 6.90097C10.9785 6.90097 10.7994 7.08003 10.7994 7.30093H10.9994C10.9994 7.19048 11.089 7.10097 11.1994 7.10097V6.90097ZM10.7994 7.30093C10.7994 7.52183 10.9785 7.7009 11.1994 7.7009V7.5009C11.089 7.5009 10.9994 7.41139 10.9994 7.30093H10.7994ZM4.53192 1.86164L6.95948 5.50485L7.12592 5.39395L4.69835 1.75074L4.53192 1.86164Z" fill="white" mask="url(#path-1-outside-1)"/>
</svg>
