<svg width="21" height="21" viewBox="0 0 21 21" fill="none" xmlns="http://www.w3.org/2000/svg">
<path d="M10.5 20C15.7467 20 20 15.7467 20 10.5C20 5.25331 15.7467 1.00002 10.5 1.00002C5.25329 1.00002 1 5.25331 1 10.5C1 15.7467 5.25329 20 10.5 20Z" stroke="#308589" stroke-width="1.11006" stroke-miterlimit="10"/>
<path d="M13.8261 13.0385L11.0836 10.2961V4.38937C11.0836 4.07294 10.8235 3.81276 10.507 3.81276C10.1906 3.81276 9.93042 4.07294 9.93042 4.38937V10.5422C9.93042 10.711 10.0078 10.8657 10.1273 10.9712L13.0104 13.8542C13.2354 14.0792 13.601 14.0792 13.8261 13.8542C14.0511 13.6292 14.0511 13.2565 13.8261 13.0385Z" fill="#308589"/>
</svg>
