<svg width="31" height="33" viewBox="0 0 31 33" fill="none" xmlns="http://www.w3.org/2000/svg">
<path d="M30.8708 31.9939L21.8259 22.3354C24.1854 19.9208 25.5619 16.7012 25.5619 13.0793C25.5619 5.83537 19.8596 0 12.7809 0C5.70226 0 0 5.83537 0 13.0793C0 20.3232 5.70226 26.1585 12.7809 26.1585C15.927 26.1585 18.6798 24.9512 20.8427 23.1403L29.8877 32.7988C30.0843 33 30.0843 33 30.281 33C30.4776 33 30.6742 33 30.6742 32.7988C31.0675 32.5975 31.0675 32.1951 30.8708 31.9939ZM1.17976 13.0793C1.17976 6.64025 6.29215 1.20733 12.7809 1.20733C19.0731 1.20733 24.3821 6.43903 24.3821 13.0793C24.3821 19.5183 19.2697 24.9512 12.7809 24.9512C6.29215 24.9512 1.17976 19.7195 1.17976 13.0793Z" fill="#0AA61B"/>
<path d="M17.1068 12.4757H13.3708V8.65246C13.3708 8.25002 13.1742 8.04883 12.7809 8.04883C12.3877 8.04883 12.191 8.25002 12.191 8.65246V12.4757H8.45504C8.06178 12.4757 7.86517 12.6769 7.86517 13.0793C7.86517 13.4818 8.06178 13.683 8.45504 13.683H12.191V17.5062C12.191 17.9086 12.3877 18.1098 12.7809 18.1098C13.1742 18.1098 13.3708 17.9086 13.3708 17.5062V13.683H17.1068C17.5 13.683 17.6967 13.4818 17.6967 13.0793C17.6967 12.6769 17.3034 12.4757 17.1068 12.4757Z" fill="#0AA61B"/>
</svg>
